<svg width="127" height="27" viewBox="0 0 127 27" fill="none" xmlns="http://www.w3.org/2000/svg">
<g clip-path="url(#clip0_2892_16504)">
<mask id="mask0_2892_16504" style="mask-type:luminance" maskUnits="userSpaceOnUse" x="0" y="1" width="23" height="26">
<path d="M16.8169 10.017L11.4774 7.02451C11.4774 7.02451 1.69666 1.48111 1.14774 1.13771C0.548919 0.843375 0 1.0396 0 1.67734C0 2.80564 0 13.5 0 13.5C0 13.5 0 25.0283 0 25.5679C0 26.0585 0.399214 26.3038 0.898232 26.0094C1.39725 25.7151 11.4774 20.0245 11.4774 20.0245L16.8169 16.983C16.8169 16.983 21.358 14.4321 21.9568 14.0887C22.5556 13.7453 22.5057 13.2547 22.0067 13.0094C21.4578 12.7151 16.8169 10.017 16.8169 10.017Z" fill="white"/>
</mask>
<g mask="url(#mask0_2892_16504)">
<path d="M0 0.598145V13.5V26.4019L13.224 13.5L0 0.598145Z" fill="url(#paint0_linear_2892_16504)"/>
</g>
<mask id="mask1_2892_16504" style="mask-type:luminance" maskUnits="userSpaceOnUse" x="0" y="1" width="23" height="26">
<path d="M16.8169 10.017L11.4774 7.02451C11.4774 7.02451 1.69666 1.48111 1.14774 1.13771C0.548919 0.843375 0 1.0396 0 1.67734C0 2.80564 0 13.5 0 13.5C0 13.5 0 25.0283 0 25.5679C0 26.0585 0.399214 26.3038 0.898232 26.0094C1.39725 25.7151 11.4774 20.0245 11.4774 20.0245L16.8169 16.983C16.8169 16.983 21.358 14.4321 21.9568 14.0887C22.5556 13.7453 22.5057 13.2547 22.0067 13.0094C21.4578 12.7151 16.8169 10.017 16.8169 10.017Z" fill="white"/>
</mask>
<g mask="url(#mask1_2892_16504)">
<path d="M16.8169 10.017L11.4774 7.02453L0 0.5V0.598113L13.224 13.5L16.8169 10.017Z" fill="url(#paint1_linear_2892_16504)"/>
</g>
<mask id="mask2_2892_16504" style="mask-type:luminance" maskUnits="userSpaceOnUse" x="0" y="1" width="23" height="26">
<path d="M16.8169 10.017L11.4774 7.02451C11.4774 7.02451 1.69666 1.48111 1.14774 1.13771C0.548919 0.843375 0 1.0396 0 1.67734C0 2.80564 0 13.5 0 13.5C0 13.5 0 25.0283 0 25.5679C0 26.0585 0.399214 26.3038 0.898232 26.0094C1.39725 25.7151 11.4774 20.0245 11.4774 20.0245L16.8169 16.983C16.8169 16.983 21.358 14.4321 21.9568 14.0887C22.5556 13.7453 22.5057 13.2547 22.0067 13.0094C21.4578 12.7151 16.8169 10.017 16.8169 10.017Z" fill="white"/>
</mask>
<g mask="url(#mask2_2892_16504)">
<path d="M0 26.4019V26.5L11.4774 20.0245L16.8169 16.983L13.224 13.5L0 26.4019Z" fill="url(#paint2_linear_2892_16504)"/>
</g>
<mask id="mask3_2892_16504" style="mask-type:luminance" maskUnits="userSpaceOnUse" x="0" y="1" width="23" height="26">
<path d="M16.8169 10.017L11.4774 7.02451C11.4774 7.02451 1.69666 1.48111 1.14774 1.13771C0.548919 0.843375 0 1.0396 0 1.67734C0 2.80564 0 13.5 0 13.5C0 13.5 0 25.0283 0 25.5679C0 26.0585 0.399214 26.3038 0.898232 26.0094C1.39725 25.7151 11.4774 20.0245 11.4774 20.0245L16.8169 16.983C16.8169 16.983 21.358 14.4321 21.9568 14.0887C22.5556 13.7453 22.5057 13.2547 22.0067 13.0094C21.4578 12.7151 16.8169 10.017 16.8169 10.017Z" fill="white"/>
</mask>
<g mask="url(#mask3_2892_16504)">
<path d="M16.8166 10.0168L13.2236 13.4999L16.8166 16.9829L22.9046 13.4999L16.8166 10.0168Z" fill="url(#paint3_linear_2892_16504)"/>
</g>
<path d="M42.7654 6.04344L43.1147 9.96797H42.7654C42.4161 8.98684 42.0169 8.25099 41.5179 7.76042C40.7693 7.02457 39.8212 6.68118 38.6236 6.68118C37.0267 6.68118 35.7792 7.31891 34.9807 8.54533C34.2821 9.57552 33.9328 10.851 33.9328 12.3227C33.9328 13.5 34.1823 14.5793 34.6314 15.5604C35.0805 16.5416 35.6793 17.2283 36.4778 17.7189C37.2762 18.2095 38.0247 18.4057 38.7733 18.4057C39.2224 18.4057 39.6715 18.3566 40.1206 18.2095C40.5697 18.1114 40.9689 17.9151 41.3682 17.7189V14.1378C41.3682 13.5 41.3182 13.1076 41.2184 12.9114C41.1186 12.7151 40.9689 12.568 40.7693 12.4699C40.5697 12.3717 40.2204 12.3227 39.7214 12.3227V11.9793H44.6118V12.2736H44.3623C43.8632 12.2736 43.5638 12.4208 43.3642 12.7642C43.2644 13.0095 43.1646 13.451 43.1646 14.0887V17.8661C42.466 18.2585 41.7674 18.5038 41.0687 18.7C40.3701 18.8963 39.6216 18.9453 38.7733 18.9453C36.3281 18.9453 34.4817 18.1604 33.2342 16.6397C32.286 15.5114 31.8369 14.1868 31.8369 12.6661C31.8369 11.5868 32.0864 10.5566 32.6353 9.52646C33.2841 8.3491 34.1324 7.41703 35.2302 6.77929C36.1285 6.23967 37.2263 5.99438 38.4738 5.99438C38.923 5.99438 39.3721 6.04344 39.7214 6.0925C40.1206 6.14155 40.6196 6.33778 41.3183 6.58306C41.6676 6.73023 41.9171 6.77929 42.0169 6.77929C42.1167 6.77929 42.2165 6.73023 42.3163 6.63212C42.4161 6.53401 42.466 6.33778 42.466 5.99438H42.7654V6.04344Z" fill="white"/>
<path d="M49.5519 10.0662C50.8494 10.0662 51.8973 10.5567 52.6458 11.4888C53.2945 12.3228 53.6439 13.2548 53.6439 14.3341C53.6439 15.0699 53.4442 15.8548 53.0949 16.5907C52.7456 17.3756 52.2466 17.9152 51.5979 18.3077C50.9492 18.7001 50.2505 18.8964 49.4521 18.8964C48.1547 18.8964 47.1566 18.4058 46.4081 17.3756C45.7594 16.5416 45.46 15.5605 45.46 14.5303C45.46 13.7454 45.6596 13.0096 46.0588 12.2247C46.458 11.4888 46.957 10.9001 47.6057 10.5567C48.2046 10.2624 48.8533 10.0662 49.5519 10.0662ZM49.3024 10.6548C48.9531 10.6548 48.6537 10.753 48.3044 10.9492C47.9551 11.1454 47.7055 11.4888 47.5059 11.9794C47.3063 12.4699 47.2065 13.0586 47.2065 13.8435C47.2065 15.0699 47.456 16.1001 47.955 16.9831C48.4541 17.8662 49.1028 18.3077 49.9012 18.3077C50.5 18.3077 50.9991 18.0624 51.3983 17.5718C51.7975 17.0813 51.9971 16.2473 51.9971 15.0699C51.9971 13.5982 51.6478 12.4209 50.9991 11.5869C50.5 10.9492 49.9511 10.6548 49.3024 10.6548Z" fill="white"/>
<path d="M59.0832 10.0662C60.3806 10.0662 61.4285 10.5567 62.1771 11.4888C62.8258 12.3228 63.1751 13.2548 63.1751 14.3341C63.1751 15.0699 62.9755 15.8548 62.6262 16.5907C62.2769 17.3756 61.7779 17.9152 61.1291 18.3077C60.4804 18.7001 59.7818 18.8964 58.9834 18.8964C57.6859 18.8964 56.6879 18.4058 55.9393 17.3756C55.2906 16.5416 54.9912 15.5605 54.9912 14.5303C54.9912 13.7454 55.1908 13.0096 55.59 12.2247C55.9892 11.4888 56.4883 10.9001 57.137 10.5567C57.6859 10.2624 58.3845 10.0662 59.0832 10.0662ZM58.7837 10.6548C58.4344 10.6548 58.135 10.753 57.7857 10.9492C57.4364 11.1454 57.1869 11.4888 56.9873 11.9794C56.7877 12.4699 56.6879 13.0586 56.6879 13.8435C56.6879 15.0699 56.9374 16.1001 57.4364 16.9831C57.9354 17.8662 58.5841 18.3077 59.3826 18.3077C59.9814 18.3077 60.4804 18.0624 60.8796 17.5718C61.2788 17.0813 61.4784 16.2473 61.4784 15.0699C61.4784 13.5982 61.1291 12.4209 60.4804 11.5869C60.0313 10.9492 59.4824 10.6548 58.7837 10.6548Z" fill="white"/>
<path d="M66.7184 15.6586C66.2194 15.4133 65.8202 15.07 65.5208 14.6284C65.2214 14.1869 65.1216 13.6964 65.1216 13.1567C65.1216 12.3228 65.421 11.636 66.0697 10.9983C66.7184 10.4096 67.5169 10.1152 68.5149 10.1152C69.3133 10.1152 70.0119 10.3115 70.6108 10.7039H72.4072C72.6567 10.7039 72.8064 10.7039 72.8563 10.7039C72.9062 10.7039 72.9062 10.753 72.9561 10.802C73.0061 10.8511 73.0061 10.9492 73.0061 11.0964C73.0061 11.2435 73.0061 11.3416 72.9561 11.4398C72.9561 11.4888 72.9062 11.4888 72.8563 11.4888C72.8064 11.4888 72.6567 11.5379 72.4072 11.5379H71.3094C71.6587 11.9794 71.8084 12.519 71.8084 13.2058C71.8084 13.9907 71.509 14.6284 70.9102 15.2171C70.3114 15.7567 69.5129 16.0511 68.465 16.0511C68.0658 16.0511 67.6167 16.002 67.1675 15.8549C66.918 16.1001 66.7184 16.2964 66.6186 16.4435C66.5188 16.6398 66.4689 16.7869 66.4689 16.885C66.4689 16.9832 66.5188 17.0813 66.6186 17.1794C66.7184 17.2775 66.918 17.3266 67.2174 17.3756C67.3672 17.3756 67.8163 17.4247 68.5149 17.4247C69.8123 17.4737 70.6108 17.4737 71.01 17.5718C71.6088 17.67 72.0579 17.8662 72.4072 18.2096C72.7565 18.553 72.9063 18.9945 72.9063 19.485C72.9063 20.1718 72.5569 20.8096 71.9082 21.3983C70.9601 22.2813 69.6626 22.7228 68.1157 22.7228C66.918 22.7228 65.92 22.4775 65.0717 21.9379C64.6226 21.6435 64.373 21.3001 64.373 21.0058C64.373 20.8586 64.4229 20.7115 64.4728 20.5643C64.5727 20.319 64.7723 20.0247 65.1216 19.6322C65.1715 19.5832 65.4709 19.2398 66.0697 18.6511C65.7703 18.4549 65.5208 18.3077 65.3711 18.1605C65.2214 18.0133 65.1715 17.8662 65.1715 17.67C65.1715 17.4737 65.2713 17.2284 65.421 16.9341C65.6705 16.5907 66.0697 16.1492 66.7184 15.6586ZM66.6186 18.7001C66.3192 18.9945 66.1196 19.2888 65.9699 19.5832C65.8202 19.8284 65.7703 20.0737 65.7703 20.319C65.7703 20.6133 65.9699 20.8586 66.3192 21.1039C66.918 21.4964 67.8163 21.6926 69.0139 21.6926C70.1118 21.6926 70.9601 21.4964 71.4591 21.1039C72.008 20.7115 72.2575 20.319 72.2575 19.8775C72.2575 19.5832 72.1078 19.3379 71.8084 19.1907C71.509 19.0435 70.8603 18.9945 69.9121 18.9454C68.4151 18.8473 67.3672 18.7983 66.6186 18.7001ZM68.3153 10.5077C67.8662 10.5077 67.467 10.7039 67.1675 11.0473C66.8681 11.3907 66.7184 11.9794 66.7184 12.7152C66.7184 13.6964 66.918 14.4322 67.3672 14.9718C67.6666 15.3643 68.1157 15.5605 68.6147 15.5605C69.0638 15.5605 69.463 15.3643 69.7624 15.0209C70.0618 14.6775 70.2116 14.1379 70.2116 13.402C70.2116 12.4209 70.0119 11.685 69.5628 11.1454C69.2135 10.7039 68.8143 10.5077 68.3153 10.5077Z" fill="white"/>
<path d="M76.8485 5.69995V16.7867C76.8485 17.3264 76.8984 17.6698 76.9483 17.8169C77.0481 17.9641 77.1479 18.1113 77.2976 18.2094C77.4473 18.3075 77.7467 18.3566 78.1958 18.3566V18.7H74.0041V18.3566C74.4033 18.3566 74.6528 18.3075 74.8025 18.2584C74.9522 18.1603 75.052 18.0622 75.1518 17.866C75.2516 17.6698 75.2516 17.3264 75.2516 16.8358V9.18297C75.2516 8.25089 75.2516 7.66222 75.2017 7.46599C75.1518 7.26976 75.1019 7.12259 75.0021 7.02448C74.9023 6.92637 74.8025 6.92637 74.6528 6.92637C74.5031 6.92637 74.3035 6.97542 74.054 7.07354L73.9043 6.73014L76.4493 5.69995H76.8485Z" fill="white"/>
<path d="M80.6413 13.5002C80.6413 14.7266 80.9407 15.7077 81.5395 16.4436C82.1383 17.1303 82.8869 17.5228 83.7352 17.5228C84.2841 17.5228 84.7831 17.3756 85.1824 17.0813C85.5816 16.7869 85.9309 16.2473 86.2303 15.5115L86.5297 15.7077C86.38 16.5417 86.0307 17.2775 85.382 17.9643C84.7332 18.6511 83.9847 18.9945 83.0366 18.9945C82.0385 18.9945 81.1403 18.602 80.3918 17.8171C79.6433 17.0322 79.2939 16.002 79.2939 14.6775C79.2939 13.2549 79.6433 12.1266 80.3918 11.3417C81.1403 10.5568 82.0884 10.1643 83.1863 10.1643C84.1344 10.1643 84.9328 10.4586 85.5317 11.0964C86.1305 11.7341 86.4299 12.519 86.4299 13.5983H80.6413V13.5002ZM80.6413 12.9605H84.5835C84.5336 12.4209 84.4837 12.0285 84.3839 11.8322C84.2342 11.4888 83.9847 11.2436 83.6853 11.0473C83.3859 10.8511 83.0366 10.753 82.7372 10.753C82.2382 10.753 81.7391 10.9492 81.3399 11.3417C80.9407 11.7341 80.6912 12.2737 80.6413 12.9605Z" fill="white"/>
<path d="M101.699 14.1379C101.699 15.5605 101.35 16.6888 100.651 17.5718C99.9527 18.4549 99.0046 18.8964 97.807 18.8964C97.2082 18.8964 96.6592 18.7983 96.1602 18.602C95.7111 18.4058 95.3119 18.1115 94.9626 17.67V22.4775H93.1162V8.79071H94.5135L94.8129 10.0662C95.1622 9.57561 95.5614 9.23222 96.0604 8.98693C96.5594 8.74165 97.1083 8.59448 97.7571 8.59448C99.0046 8.59448 99.9527 9.08505 100.651 10.0662C101.35 11.0473 101.699 12.3228 101.699 13.8926V14.1379ZM99.8529 13.9417C99.8529 12.8134 99.6533 11.8813 99.2042 11.1945C98.7551 10.5077 98.1064 10.1152 97.2082 10.1152C96.6592 10.1152 96.2101 10.2133 95.8608 10.4586C95.5115 10.7039 95.2121 10.9983 94.9626 11.4398V16.1983C95.2121 16.5907 95.5115 16.9341 95.8608 17.1303C96.2101 17.3756 96.7091 17.4737 97.2082 17.4737C98.0565 17.4737 98.7551 17.1794 99.1543 16.5417C99.6034 15.9039 99.803 15.119 99.803 14.1379V13.9417H99.8529Z" fill="white"/>
<path d="M105.891 18.7H104.045V4.47363H105.891V18.7Z" fill="white"/>
<path d="M114.924 18.6999C114.874 18.4056 114.824 18.1603 114.774 17.915C114.724 17.6697 114.724 17.4735 114.724 17.2282C114.375 17.7188 113.926 18.1113 113.377 18.4056C112.828 18.749 112.229 18.8962 111.63 18.8962C110.582 18.8962 109.784 18.6509 109.235 18.1113C108.686 17.5716 108.437 16.8358 108.437 15.9528C108.437 15.0207 108.836 14.2848 109.584 13.7452C110.383 13.2056 111.431 12.9603 112.728 12.9603H114.724V11.9792C114.724 11.3905 114.525 10.949 114.175 10.6056C113.826 10.2622 113.327 10.115 112.628 10.115C112.029 10.115 111.53 10.2622 111.181 10.5565C110.832 10.8509 110.632 11.1943 110.632 11.5867H108.886V11.5377C108.836 10.8018 109.185 10.1641 109.934 9.5754C110.682 8.98672 111.58 8.69238 112.728 8.69238C113.876 8.69238 114.774 8.98672 115.473 9.52634C116.171 10.115 116.521 10.8999 116.521 11.9792V16.6886C116.521 17.032 116.521 17.3754 116.571 17.7188C116.62 18.0622 116.67 18.3565 116.77 18.6999H114.924ZM111.88 17.3754C112.528 17.3754 113.127 17.2282 113.676 16.8848C114.225 16.5414 114.574 16.149 114.724 15.7565V14.1377H112.678C111.93 14.1377 111.331 14.3339 110.932 14.6773C110.482 15.0207 110.283 15.4622 110.283 15.9528C110.283 16.3943 110.433 16.7377 110.682 16.9829C110.932 17.2282 111.331 17.3754 111.88 17.3754Z" fill="white"/>
<path d="M122.11 15.0207L122.459 16.2471H122.509L124.954 8.79053H127L122.758 20.2207C122.509 20.9075 122.16 21.4471 121.661 21.9377C121.161 22.4283 120.563 22.6735 119.764 22.6735C119.615 22.6735 119.415 22.6735 119.215 22.6245C119.016 22.5754 118.816 22.5754 118.666 22.5264L118.866 21.1037C118.816 21.1037 118.916 21.1037 119.215 21.1037C119.515 21.1037 119.615 21.1528 119.714 21.1528C120.114 21.1528 120.413 21.0056 120.662 20.6622C120.912 20.3188 121.112 19.9264 121.261 19.5339L121.71 18.5037L117.968 8.83958H120.014L122.11 15.0207Z" fill="white"/>
</g>
<defs>
<linearGradient id="paint0_linear_2892_16504" x1="6.62356" y1="0.593975" x2="6.62356" y2="26.4196" gradientUnits="userSpaceOnUse">
<stop stop-color="#257CB0"/>
<stop offset="0.2863" stop-color="#4A93B5"/>
<stop offset="0.767" stop-color="#78BCBB"/>
<stop offset="1" stop-color="#89CFBD"/>
</linearGradient>
<linearGradient id="paint1_linear_2892_16504" x1="0" y1="7.00348" x2="16.8052" y2="7.00348" gradientUnits="userSpaceOnUse">
<stop stop-color="#52C1AD"/>
<stop offset="1" stop-color="#DEE89A"/>
</linearGradient>
<linearGradient id="paint2_linear_2892_16504" x1="8.40251" y1="13.507" x2="8.40251" y2="26.5135" gradientUnits="userSpaceOnUse">
<stop stop-color="#EC413D"/>
<stop offset="0.1668" stop-color="#DA4452"/>
<stop offset="0.5748" stop-color="#B0487A"/>
<stop offset="0.8619" stop-color="#954A92"/>
<stop offset="1" stop-color="#8A4A9D"/>
</linearGradient>
<linearGradient id="paint3_linear_2892_16504" x1="18.0813" y1="10.0384" x2="18.0813" y2="16.9748" gradientUnits="userSpaceOnUse">
<stop stop-color="#F58879"/>
<stop offset="0.1194" stop-color="#F69079"/>
<stop offset="0.7128" stop-color="#FCB877"/>
<stop offset="1" stop-color="#FEC874"/>
</linearGradient>
<clipPath id="clip0_2892_16504">
<rect width="127" height="26" fill="white" transform="translate(0 0.5)"/>
</clipPath>
</defs>
</svg>
