<svg xmlns="http://www.w3.org/2000/svg" width="30" height="41">
    <path fill="#333" fill-rule="evenodd" d="M29.067 41H1.928c-.624 0-1.047-.67-.944-1.478l3.57-29.537c.062-.485.496-.874.967-.874h19.95c.473 0 .907.389.968.874l3.571 29.537c.102.808-.32 1.478-.943 1.478zM10.409 10.25c-.936 0-1.696.765-1.696 1.708s.76 1.709 1.696 1.709c.936 0 1.696-.766 1.696-1.709 0-.943-.76-1.708-1.696-1.708zm10.177 0c-.936 0-1.696.765-1.696 1.708s.76 1.709 1.696 1.709c.936 0 1.696-.766 1.696-1.709 0-.943-.76-1.708-1.696-1.708zm-.565-2.278c-.625 0-1.131-.509-1.131-1.139 0-2.954-.541-4.555-3.393-4.555-2.867 0-3.392 1.534-3.392 4.555 0 .63-.506 1.139-1.131 1.139s-1.13-.509-1.13-1.139c0-1.868 0-6.833 5.653-6.833 5.654 0 5.654 4.965 5.654 6.833 0 .63-.506 1.139-1.13 1.139z"/>
</svg>
