<svg xmlns="http://www.w3.org/2000/svg" width="28" height="28">
    <path fill="#FFF" fill-rule="evenodd" d="M14.461.961C7.003.961.956 7.007.956 14.466c0 7.458 6.047 13.505 13.505 13.505 7.459 0 13.505-6.047 13.505-13.505C27.966 7.007 21.92.961 14.461.961zm2.066 21.98h-4.003v-3.913h4.003v3.913zm3.723-10.132c-.18.3-.405.603-.675.911-.21.232-.472.494-.787.787l-.787.731c-.293.277-.525.517-.698.72-.472.54-.73 1.064-.776 1.574h-4.003c.007-.712.217-1.402.63-2.069.172-.27.386-.551.641-.844.187-.21.427-.461.719-.753l.732-.72c.254-.263.46-.495.617-.697.413-.525.619-1.027.619-1.508 0-.952-.445-1.428-1.338-1.428-.63 0-1.068.229-1.315.687-.165.314-.255.824-.27 1.529H9.342c-.009-.067-.016-.139-.024-.213v-.203c0-1.695.589-3.081 1.766-4.162 1.148-1.049 2.58-1.574 4.297-1.574 2.339 0 3.995.922 4.97 2.767.367.682.551 1.387.551 2.114 0 .84-.217 1.623-.652 2.351z"/>
</svg>
