<svg xmlns="http://www.w3.org/2000/svg" width="36" height="41">
    <path fill="#333" fill-rule="evenodd" d="M19.143 37.471V41L8.784 34.692l10.359-6.308v3.285c5.634-.768 9.976-5.469 9.976-11.169 0-3.132-1.312-5.966-3.427-8.015l4.361-3.874c3.071 3.073 4.971 7.262 4.971 11.889 0 8.883-6.978 16.174-15.881 16.971zM15.906 9.325c-5.634.77-9.977 5.474-9.977 11.175 0 3.135 1.312 5.968 3.43 8.016l-4.362 3.875C1.924 29.319.024 25.127.024 20.5c0-8.883 6.978-16.174 15.882-16.971V0l10.357 6.307-10.357 6.308v-3.29z"/>
</svg>
