<svg xmlns="http://www.w3.org/2000/svg" width="126" height="89">
    <path fill="#306E51" fill-rule="evenodd" d="M125.79 43.579c-.094.423-.21.811-.348 1.165h-10.968c-.12 1.855.824 2.782 2.832 2.782 1.047 0 2.034-.457 2.961-1.372h4.48c-.978 1.527-2.171 2.743-3.579 3.65-1.501.957-3.051 1.436-4.647 1.436-2.137 0-3.798-.764-4.982-2.291-1.202-1.518-1.575-3.351-1.12-5.499.455-2.156 1.588-4.007 3.398-5.551 1.837-1.57 3.819-2.355 5.948-2.355 2.215 0 3.897.785 5.047 2.355 1.124 1.544 1.45 3.438.978 5.68zm-6.784-4.321c-1.854 0-3.142.841-3.863 2.523h6.643c0-1.682-.927-2.523-2.78-2.523zm-10.25-12.725c-.354-.718-.729-1.424-1.124-2.119-.126-.222-.266-.435-.396-.655-.273-.46-.545-.921-.835-1.37-.177-.273-.368-.536-.551-.805-.262-.384-.521-.769-.795-1.144-.206-.281-.424-.552-.637-.827-.27-.349-.538-.7-.819-1.04-.228-.277-.467-.544-.703-.814-.283-.325-.566-.651-.86-.967-.247-.266-.504-.525-.759-.785-.298-.304-.598-.608-.906-.903-.265-.254-.537-.501-.809-.748-.315-.285-.632-.568-.956-.844-.28-.239-.566-.472-.854-.703-.331-.267-.666-.529-1.006-.786-.295-.222-.593-.44-.894-.654-.349-.248-.702-.491-1.059-.728-.307-.204-.616-.405-.93-.601-.366-.229-.738-.451-1.113-.668-.317-.185-.635-.369-.959-.545-.385-.21-.777-.41-1.171-.608-.325-.163-.65-.328-.981-.484-.407-.19-.821-.368-1.235-.546-.33-.141-.659-.286-.994-.419-.432-.172-.872-.328-1.312-.485-.329-.117-.656-.24-.989-.35-.468-.153-.945-.287-1.42-.424-.317-.091-.63-.191-.951-.274-.535-.139-1.079-.257-1.624-.375-.271-.059-.537-.128-.811-.182-.823-.161-1.655-.299-2.497-.41h-.002c-1.001-.132-1.997-.221-2.99-.278-.061-.004-.123-.01-.185-.013-.952-.05-1.899-.061-2.84-.045-.098.002-.197.001-.295.004-.915.023-1.824.081-2.726.166-.119.011-.238.02-.356.032-.887.092-1.766.215-2.637.364-.127.022-.255.043-.382.066-.863.156-1.718.341-2.564.553-.127.031-.253.063-.379.096-.845.22-1.68.466-2.505.74-.117.038-.233.079-.349.118-.831.284-1.651.592-2.458.929-.099.041-.197.085-.296.127-.82.349-1.628.722-2.421 1.124-.073.037-.144.076-.216.113-.815.419-1.617.862-2.4 1.335l-.105.065c-1.645 1-3.218 2.114-4.705 3.336l-.018.015c-.729.6-1.435 1.229-2.122 1.879-.035.034-.071.066-.107.099-.664.635-1.305 1.294-1.927 1.974l-.151.163c-.606.671-1.189 1.364-1.751 2.075l-.167.211c-.552.708-1.08 1.437-1.585 2.183l-.163.242c-.498.748-.973 1.515-1.423 2.299-.43.749-.843 1.511-1.227 2.291h-4.301c.325-.739.675-1.464 1.037-2.18h-.009c.09-.178.188-.352.28-.528.132-.253.264-.507.401-.757.143-.262.292-.52.44-.778.141-.247.282-.494.428-.737.153-.256.312-.507.47-.759.15-.24.299-.48.453-.716.163-.25.333-.495.501-.741.158-.232.314-.465.477-.693.174-.244.354-.484.533-.725.165-.222.327-.446.496-.665.187-.241.38-.477.571-.714.17-.211.337-.425.51-.632.203-.243.414-.48.622-.718.17-.194.335-.392.508-.583.248-.275.505-.541.76-.81.224-.235.449-.47.677-.7.313-.315.627-.629.949-.935.178-.168.362-.33.542-.496.241-.221.481-.445.727-.661.197-.173.399-.339.599-.508.237-.201.472-.404.712-.599.209-.169.422-.332.633-.497.239-.187.477-.376.72-.559.217-.163.439-.319.659-.478.244-.176.486-.353.734-.525.224-.155.453-.304.68-.455.249-.166.498-.332.75-.493.231-.147.466-.289.7-.432.255-.155.509-.311.767-.461.237-.139.478-.272.718-.406.26-.145.52-.29.784-.431.243-.129.488-.254.733-.378.266-.136.533-.27.802-.4.248-.12.497-.236.748-.351.271-.125.544-.249.818-.369.253-.11.507-.216.761-.322.278-.115.556-.227.836-.336.256-.101.514-.198.773-.293.283-.104.567-.206.852-.304.26-.09.521-.178.783-.263.289-.094.578-.184.869-.272.264-.079.527-.157.793-.232.293-.082.589-.161.885-.237.266-.069.532-.137.8-.201.299-.072.6-.138.902-.203.268-.058.536-.116.805-.17.306-.06.613-.114.92-.168.269-.047.538-.094.809-.137.311-.048.624-.09.938-.131.269-.036.538-.074.809-.105.319-.036.639-.065.959-.095.269-.024.537-.051.806-.071.327-.024.656-.04.985-.056.265-.014.53-.031.796-.04.339-.011.679-.012 1.02-.015.258-.003.516-.009.775-.007.358.003.717.016 1.076.028.244.008.487.011.732.023.398.019.799.051 1.198.081.207.016.413.026.621.044.595.054 1.192.12 1.79.198l.037.004.018.003c.962.128 1.913.287 2.852.473.319.064.629.147.946.218.62.137 1.241.272 1.85.435.372.099.733.218 1.101.327.541.16 1.084.316 1.616.495.386.13.763.279 1.144.42.499.184.999.365 1.489.566.388.159.766.334 1.149.504.467.208.936.415 1.394.638.384.187.758.387 1.135.585.442.231.883.462 1.315.707.375.213.742.438 1.109.661.418.254.834.508 1.241.775.364.238.721.485 1.077.733.394.275.785.553 1.17.84.351.262.695.53 1.037.802.372.295.739.594 1.101.901.335.284.666.574.993.868.349.314.692.634 1.031.959.319.306.634.615.944.93.327.333.646.672.962 1.015.301.326.6.653.89.988.305.351.6.709.894 1.068.281.345.561.689.832 1.042.282.368.553.744.824 1.121.259.361.52.721.769 1.09.26.386.507.78.755 1.174.236.375.476.748.702 1.131.238.404.46.818.686 1.23.212.386.429.77.629 1.163.036.069.076.135.111.205h-.013c.346.687.686 1.378.997 2.083h-4.307zM31.839 50.761h-4.326L22.608 38.83l-.064.026-2.382 11.905h-4.776l1.749-8.276H0l17.589-2.148.436-2.064H5.154l13.282-1.946.441-2.085h-8.801l9.134-1.574.322-1.524h4.299l4.944 12.332.064-.052 2.369-12.28h4.776l-4.145 19.617zm8.36.349c-2.034 0-3.639-.741-4.815-2.225-1.175-1.484-1.549-3.244-1.119-5.28.445-2.105 1.557-3.912 3.334-5.421 1.793-1.527 3.733-2.291 5.819-2.291 2.051 0 3.664.75 4.84 2.252 1.176 1.501 1.545 3.286 1.108 5.357-.438 2.079-1.559 3.864-3.361 5.357-1.802 1.501-3.738 2.251-5.806 2.251zm6.553-11.801c-.876-1.164-2.098-1.747-3.669-1.747-1.614 0-3.099.604-4.455 1.812-1.33 1.173-2.167 2.575-2.51 4.205-.343 1.588-.082 2.959.785 4.115.867 1.165 2.09 1.747 3.67 1.747 1.63 0 3.123-.595 4.479-1.786 1.305-1.164 2.133-2.575 2.485-4.231.335-1.587.073-2.959-.785-4.115zm-4.378 6.284c0 .403-.325.731-.726.731-.38 0-.692-.295-.723-.67l-3.2-2.429c-.214-.163-.256-.469-.094-.682.161-.216.465-.256.677-.097l3.2 2.431c.046-.009.092-.014.14-.014l.022.001 3.824-4.027c.185-.194.492-.203.685-.017.194.187.2.493.016.689l-3.823 4.027.002.057zm60.359-10.049c2.214 0 3.896.785 5.046 2.355 1.125 1.544 1.451 3.438.979 5.68-.095.423-.211.811-.348 1.165H97.442c-.12 1.855.824 2.782 2.832 2.782 1.047 0 2.034-.457 2.961-1.372h4.48c-.978 1.527-2.172 2.743-3.579 3.65-1.502.957-3.051 1.436-4.648 1.436-2.136 0-3.797-.764-4.982-2.291-1.201-1.518-1.575-3.351-1.119-5.499.454-2.156 1.587-4.007 3.398-5.551 1.837-1.57 3.819-2.355 5.948-2.355zm2.021 6.237c0-1.682-.927-2.523-2.781-2.523s-3.141.841-3.862 2.523h6.643zm-11.612-1.812c-1.133.035-1.983.207-2.549.518-.755.414-1.245 1.143-1.468 2.187l-1.712 8.087h-4.377l3.115-14.712h4.107l-.335 1.565h.065c.986-1.38 2.351-2.07 4.094-2.07l-.94 4.425zm-32.52 10.792l-.438-9.511h-.051l-4.467 9.511h-4.069l-1.364-14.712h4.531l.258 9.148h.051l4.339-9.148h3.682l.502 9.148h.052l4.119-9.148h4.506l-7.596 14.712h-4.055zm22.504-7.479h-5.664l-1.584 7.479h-4.776l4.145-19.617h10.647l-.927 4.4h-5.871l-.708 3.338h5.665l-.927 4.4zm7.684-17.265c0 .24-.194.434-.432.434H54.614c-.239 0-.432-.194-.432-.434s.193-.434.432-.434h10.723c-.459-.443-.747-1.063-.747-1.752 0-1.346 1.082-2.438 2.422-2.438 1.339 0 2.421 1.092 2.421 2.438 0 .689-.288 1.309-.746 1.752h9.323c-.459-.443-.748-1.063-.748-1.752 0-1.346 1.086-2.438 2.425-2.438 1.335 0 2.421 1.092 2.421 2.438 0 .689-.288 1.309-.747 1.752h9.017c.238 0 .432.194.432.434zm-23.798-3.403c-.67 0-1.211.544-1.211 1.217 0 .669.541 1.217 1.211 1.217.669 0 1.21-.548 1.21-1.217 0-.673-.541-1.217-1.21-1.217zm12.675 0c-.67 0-1.211.544-1.211 1.217 0 .669.541 1.217 1.211 1.217.666 0 1.211-.548 1.211-1.217 0-.673-.545-1.217-1.211-1.217zm5.587-.422c0 .648-.523 1.173-1.168 1.173h-1.249c-.226-1.557-1.561-2.754-3.173-2.754-1.608 0-2.943 1.197-3.169 2.754h-6.334c-.226-1.557-1.561-2.754-3.169-2.754-1.607 0-2.943 1.197-3.168 2.754h-1.565c-.645 0-1.168-.525-1.168-1.173v-2.599h24.163v2.599zM62.278 9.913h13.368c.646 0 1.168.524 1.168 1.174v.872h2.316c.409 0 .802.165 1.094.454l4.59 4.563c.292.293.459.692.459 1.111v.857H61.11v-2.307l-4.848-.919 8.476-.738-8.476-1.212 8.506-.849-8.397-1.099 4.739-.549v-.184c0-.65.525-1.174 1.168-1.174zm15.91 7.031c0 .102.082.184.183.184h4.442c.164 0 .245-.203.125-.317l-3.593-3.447c-.036-.031-.082-.051-.129-.051h-.845c-.101 0-.183.082-.183.184v3.447zM33.644 55.311h77.731l.041.178.051-.178h4.034c-1.179 4.751-3.101 9.165-5.621 13.128-.264.416-.533.828-.811 1.234-9.124 13.346-25.194 21.191-42.263 18.942-12.967-1.709-23.881-8.897-30.744-18.942-.278-.407-.548-.818-.813-1.234-2.549-4.009-4.468-8.437-5.639-13.128h4.034zM93.642 71.47l2.191-1.158 2.191 1.158-.418-2.452 1.772-1.737-2.449-.358-1.096-2.231-1.095 2.231-2.449.358 1.772 1.737-.419 2.452zm-17.846 8.149l1.727-8.154h6.64l-1.727 8.154h5.181l4.31-20.399h-5.18l-1.62 7.67h-6.64l1.619-7.67h-5.181l-4.31 20.399h5.181zm-8.247 0l.924-4.386h-6.881c.562-.404 1.026-.749 1.392-1.036.518-.395.986-.763 1.406-1.104 1.044-.852 1.941-1.664 2.691-2.435.901-.933 1.628-1.857 2.182-2.772.642-1.032 1.075-2.072 1.298-3.122.161-.771.152-1.552-.027-2.341-.312-1.184-1.004-2.09-2.074-2.718-.982-.574-2.169-.861-3.562-.861-1.285 0-2.516.251-3.695.753-1.267.547-2.338 1.332-3.212 2.355-.59.691-1.058 1.44-1.406 2.247-.295.637-.558 1.449-.79 2.435h4.94c.241-.941.562-1.668.964-2.179.526-.691 1.209-1.037 2.048-1.037 1.276 0 1.776.66 1.499 1.979-.178.816-.696 1.749-1.553 2.798-.348.422-.74.857-1.177 1.306-.367.367-.759.735-1.179 1.103-1.017.924-2.182 1.821-3.494 2.691-.553.368-1.164.754-1.834 1.157-.517.305-1.156.678-1.914 1.117l-.857 4.05h14.311zM46.501 71.47l2.191-1.158 2.191 1.158-.418-2.452 1.772-1.737-2.45-.358-1.095-2.231-1.095 2.231-2.45.358 1.773 1.737-.419 2.452z"/>
</svg>
