<svg xmlns="http://www.w3.org/2000/svg" width="54" height="54">
    <path fill="#306E51" fill-rule="evenodd" d="M26.998 53.999c-14.911 0-27-12.089-27-27.001C-.002 12.34 11.682.418 26.244.017c.251-.006.501-.019.754-.019.241 0 .479.012.717.018 14.58.381 26.283 12.312 26.283 26.982 0 14.912-12.087 27.001-27 27.001zm0-51.501C13.49 2.498 2.5 13.488 2.5 26.998c0 13.509 10.99 24.501 24.498 24.501 13.51 0 24.5-10.992 24.5-24.501 0-13.51-10.99-24.5-24.5-24.5zm17.701 25.46l-.239 2.201 2.268.28-.119 1.083-5.275-.651.118-1.084 2.192.272.239-2.202-2.191-.27.118-1.083 5.276.651-.118 1.083-2.269-.28zm.62-2.597c-.495.098-.932.003-1.307-.29-.375-.292-.626-.745-.754-1.359l-.2-.973-1.884.376-.221-1.071 5.193-1.034.423 2.043c.128.614.077 1.127-.157 1.54-.23.413-.595.668-1.093.768zm.448-2.147l-.202-.973-1.704.339.2.971c.063.301.188.51.379.633.188.122.405.159.653.11.249-.049.439-.166.569-.353.134-.184.168-.427.105-.727zm-6.395-4.297l1.567-3.899-.016-.015-2.866 2.121-.648-.882 4.254-3.152.648.884-1.566 3.897.018.016 2.862-2.12.647.883-4.254 3.15-.646-.883zm.6-9.138c-.101-.076-.2-.202-.294-.378-.095-.175-.18-.291-.254-.346-.05-.038-.107-.043-.176-.016-.065.026-.123.073-.17.14l-.273-.338c.097-.136.225-.229.386-.275.157-.048.302-.024.429.072.082.06.177.181.282.362.107.182.196.301.273.357.047.036.108.038.18.01.071-.029.132-.077.181-.147l.255.367c-.098.14-.227.228-.387.27-.159.044-.302.016-.432-.078zm-.196.176l.391 1.323-.02.014-.754-.559-.182-.756-.77.051-.757-.562.008-.022 1.369-.019.715.53zm-.074 2.382l-1.922-1.425-.781 1.081 1.621 1.203-.479.664-1.622-1.202-.888 1.23 1.928 1.429-.478.662-2.806-2.08 3.108-4.303 2.8 2.076-.481.665zm-7.199.773l2.152-4.868.99.455-2.154 4.869-.988-.456zm-1.711-.688l.494-3.615-.021-.008-1.816 3.42-.727-.108-.827-3.827-.021.001-.496 3.623-1.07-.163.722-5.296 1.406.211.825 4.11.022.004 1.906-3.697 1.396.211-.72 5.297-1.073-.163zm-8.177-.979l-1.642.582.05 1.212-1.015.36.008.012-.887.669c-.126-.003-.255-.068-.387-.198-.131-.128-.248-.26-.348-.397l-.229-.304c-.16-.215-.344-.338-.55-.369-.205-.03-.415.035-.629.197l-.684.517 1.284 1.719-.861.651-3.214-4.303 1.486-1.122c.49-.369.957-.546 1.399-.532.443.015.814.223 1.114.622.164.221.248.457.252.705.001.248-.071.507-.222.774.309-.116.586-.128.827-.037.242.091.46.265.653.525l.236.315c.089.12.198.234.33.34.127.103.25.156.373.163l-.104-5.593 1.041-.368 3.517 4.451-1.061.376-.737-.967zm-5.937.005c-.149-.197-.325-.308-.53-.335-.206-.026-.423.048-.655.222l-.624.471.936 1.253.61-.461c.242-.183.384-.37.425-.562.042-.191-.014-.388-.162-.588zm4.205-2.294l-.022.007.077 1.981 1.144-.406-1.199-1.582zm-.39-2.192l.081.226-.76.269-.225-.455c.168-.069.283-.133.345-.193.059-.06.071-.125.035-.19l-.007-.02c-.017-.085-.077-.131-.175-.135-.099-.006-.225.019-.382.074l-.141-.47c.428-.153.78-.209 1.05-.17.271.04.444.165.521.376.052.148.044.282-.025.4-.071.118-.177.214-.317.288zm-4.889 10.547l-.641.87-3.611-2.732-.901 1.221-.661-.499 2.459-3.334.661.5-.916 1.24 3.61 2.734zm-2.682 5.212l-5.03-1.776.346-1.029 5.029 1.775-.345 1.03zm-3.444.306l.951.098c.651.068 1.168.334 1.553.795.386.463.549 1.031.488 1.702-.059.67-.319 1.191-.781 1.564-.46.373-1.016.525-1.664.46l-.951-.099c-.647-.067-1.164-.331-1.551-.79s-.552-1.023-.492-1.689c.06-.671.322-1.197.784-1.575.462-.377 1.016-.531 1.663-.466zm-1.62 2.127c-.031.366.074.666.32.898.246.232.575.369.985.411l.959.099c.419.044.769-.024 1.052-.203.282-.178.439-.453.473-.822.033-.371-.074-.675-.319-.911s-.577-.374-.996-.418l-.959-.099c-.41-.042-.758.028-1.041.211-.282.185-.44.462-.474.834zm-1.714-.17l.504.649-.086.948-.023.009-.82-1.185.083-.928 1.015-.992.021.013-.086.95-.608.536zm-.249-1.268c.006-.155-.002-.267-.025-.335-.023-.069-.065-.102-.127-.097l-.022-.002c-.071-.018-.127.01-.168.083-.037.074-.064.181-.077.322l-.401-.067c.035-.386.114-.677.237-.871.123-.193.279-.281.465-.261.133.013.232.069.298.167.064.097.103.214.106.347l.201.021-.062.688-.425.005zm3.33 5.2l.855-.191c.633-.14 1.2-.044 1.698.29.498.332.82.824.97 1.474l.425 1.855-2.317.512.114.497-.643.141-.116-.497-2.209.49-.426-1.856c-.149-.65-.069-1.23.239-1.741.307-.509.776-.835 1.41-.974zm-.85 2.538l.181.79 1.413-.313-.203-.888.644-.141.203.888 1.52-.337-.181-.789c-.079-.35-.272-.604-.577-.762-.304-.159-.652-.194-1.051-.107l-.863.191c-.394.089-.694.268-.899.538-.206.27-.266.58-.187.93zM26.998 46.71c7.024 0 13.149-3.897 16.349-9.635l.454.216c-3.281 5.907-9.579 9.918-16.803 9.918-7.782 0-14.482-4.659-17.499-11.327l.507-.099c2.962 6.437 9.456 10.927 16.992 10.927zm0-7.712c-5.157 0-9.541-3.259-11.238-7.824-.216-.582-.4-1.178-.524-1.797-.155-.769-.237-1.565-.237-2.379 0-6.627 5.373-12 11.999-12 4.194 0 7.878 2.154 10.024 5.413 1.23 1.866 1.952 4.094 1.972 6.492 0 .032.004.063.004.095 0 1.209-.182 2.374-.514 3.474-.122.405-.262.801-.425 1.186-1.82 4.313-6.087 7.34-11.061 7.34zm-9.227-5.384l2.25-.821.08.094c.049.053.095.11.151.167.059.053.12.108.182.167l.41.373c.074.064.146.137.23.2l.262.189.566.401c.207.122.431.24.658.364.113.062.226.128.347.185l.378.153.387.154c.129.054.262.103.402.133l.847.224c.303.049.614.089.927.129l.233.029.212.001.425.001h.471l.462-.043c.307-.019.613-.096.916-.146.599-.143 1.192-.321 1.735-.581.552-.239 1.052-.558 1.516-.88.449-.346.864-.7 1.206-1.084.088-.093.172-.187.257-.279l.226-.289c.154-.185.282-.38.404-.565.127-.182.228-.368.325-.545.05-.088.097-.173.14-.257l.117-.253c.157-.321.255-.619.343-.858.085-.24.121-.437.162-.566.035-.132.055-.201.055-.201l-.079.193c-.054.123-.114.316-.226.542-.113.226-.24.502-.43.797l-.139.231c-.055.075-.109.154-.167.232-.111.161-.23.327-.372.487-.137.162-.278.334-.444.492-.081.08-.163.162-.245.248l-.271.233c-.361.322-.787.604-1.232.871-.46.246-.944.482-1.464.637-.512.177-1.052.271-1.589.335-.271.011-.539.051-.81.034l-.4-.009c-.129-.016-.259-.031-.387-.048-.142-.016-.282-.034-.422-.051l-.211-.025-.179-.049-.699-.185-.677-.265c-.112-.037-.216-.092-.316-.151-.101-.054-.203-.108-.3-.162l-.291-.157c-.091-.058-.178-.125-.264-.183-.17-.124-.338-.236-.492-.352-.143-.131-.28-.256-.411-.373-.065-.06-.128-.116-.191-.171-.059-.059-.107-.124-.159-.182l-.116-.132 2.075-.756-5.199-4.358-1.175 6.681zm13.232-5.032v-.793h-.577v-3.206h-1.035l-2.117 3.386.048.613h2.08v1.108h1.024v-1.108h.577zm-5.254 1.108v-5.18l-2.077.182v.782h1.055v4.216h1.022zm8.54-8.616c-.022-.026-.043-.049-.064-.076l-.147-.165c-.056-.051-.116-.105-.177-.163l-.401-.363c-.072-.065-.147-.131-.222-.2l-.257-.185-.552-.392c-.195-.132-.421-.237-.639-.363l-.339-.184c-.113-.061-.243-.102-.365-.155-.251-.096-.503-.207-.768-.295-.234-.063-.473-.124-.716-.188l-.112-.029c-.135-.041-.288-.06-.44-.081l-.455-.062c-.15-.016-.311-.043-.454-.05l-.415-.001-.421-.001-.105-.001h-.091l-.057.006-.227.02c-.149.016-.3.027-.449.046l-.447.08c-.298.042-.588.142-.877.211-.282.103-.569.181-.836.307-.134.059-.267.118-.402.176-.129.064-.255.136-.382.203l-.03.016c-.245.125-.468.282-.692.422-.227.16-.443.322-.648.49-.067.059-.125.119-.191.175-.132.115-.267.225-.38.35-.177.177-.348.351-.492.537-.075.09-.15.178-.221.266-.067.091-.13.182-.195.27l-.183.26-.158.259c-.103.168-.199.329-.272.487-.166.308-.28.592-.372.823-.097.231-.142.42-.187.546l-.062.194.084-.185c.06-.119.126-.305.249-.518.118-.218.261-.478.458-.76.088-.145.199-.288.319-.438.057-.076.117-.153.179-.231.067-.075.137-.15.207-.227l.212-.237c.08-.074.16-.149.241-.227.158-.158.339-.302.523-.45.178-.157.388-.28.589-.425.093-.059.197-.115.296-.172.117-.069.23-.142.353-.207.231-.109.456-.234.704-.321.123-.047.243-.098.366-.142l.377-.116c.251-.083.518-.122.774-.184.267-.029.526-.089.794-.093l.396-.024c.131-.001.263.006.395.009l.196.004h.024l.013.002.027.003.103.012c.14.018.279.034.418.05l.413.052c.134.02.241.06.36.09l.345.09c.113.028.225.053.339.106.226.088.445.174.662.261.209.098.404.216.598.317.095.056.195.096.281.159l.256.182c.164.123.334.224.476.35l.403.366c.062.057.125.115.186.168.052.061.102.122.153.18l.047.053.048.055-2.081.761 5.201 4.357.395-2.248.779-4.435-2.258.823zm-5.013 5.084l.106-.228.02.004v1.855h-1.198l1.072-1.631zm11.561 10.954c.204-.31.4-.626.584-.949l.436.206.472.223c-3.018 5.361-8.754 8.994-15.331 8.994-6.988 0-13.018-4.106-15.854-10.025l.475-.092.538-.105c.203.406.427.8.66 1.187 2.708 4.477 7.456 7.586 12.957 7.99.405.03.813.046 1.224.046.39 0 .775-.015 1.159-.042 1.077-.069 2.115-.269 3.13-.528.985-.267 1.936-.621 2.841-1.056-.611.312-1.245.585-1.896.818 1.839-.576 3.548-1.445 5.073-2.555 1.407-1.154 2.629-2.527 3.605-4.072l-.073-.04zm.131-5.493l5.001 1.854-.361 1.023-5.002-1.853.362-1.024zm6.157 3.089l-.401 1.141-.024-.001-.55-1.302.308-.873.667 1.035z"/>
</svg>
