<?xml version="1.0" encoding="utf-8"?>
<!-- Generator: Adobe Illustrator 24.1.3, SVG Export Plug-In . SVG Version: 6.00 Build 0)  -->
<svg version="1.1" id="Layer_1" xmlns="http://www.w3.org/2000/svg" xmlns:xlink="http://www.w3.org/1999/xlink" x="0px" y="0px"
	 viewBox="0 0 2500 590.1" style="enable-background:new 0 0 2500 590.1;" xml:space="preserve">
<style type="text/css">
	.st0{fill-rule:evenodd;clip-rule:evenodd;fill:url(#SVGID_1_);}
	.st1{fill-rule:evenodd;clip-rule:evenodd;fill:url(#SVGID_2_);}
	.st2{fill-rule:evenodd;clip-rule:evenodd;fill:url(#SVGID_3_);}
	.st3{fill-rule:evenodd;clip-rule:evenodd;fill:url(#SVGID_4_);}
	.st4{opacity:0.2;fill-rule:evenodd;clip-rule:evenodd;enable-background:new    ;}
	.st5{opacity:0.12;fill-rule:evenodd;clip-rule:evenodd;enable-background:new    ;}
	.st6{opacity:0.25;fill-rule:evenodd;clip-rule:evenodd;fill:#FFFFFF;enable-background:new    ;}
	.st7{fill-rule:evenodd;clip-rule:evenodd;fill:#808285;}
</style>
<g>
	
		<linearGradient id="SVGID_1_" gradientUnits="userSpaceOnUse" x1="3647.4277" y1="-749.5518" x2="3540.7349" y2="-694.4778" gradientTransform="matrix(3.5761 0 0 6.9279 -12774.748 5232.7344)">
		<stop  offset="0" style="stop-color:#00A0FF"/>
		<stop  offset="7.000001e-03" style="stop-color:#00A1FF"/>
		<stop  offset="0.26" style="stop-color:#00BEFF"/>
		<stop  offset="0.512" style="stop-color:#00D2FF"/>
		<stop  offset="0.76" style="stop-color:#00DFFF"/>
		<stop  offset="1" style="stop-color:#00E3FF"/>
	</linearGradient>
	<path class="st0" d="M10.4,13.3C3.8,20.3,0,31.2,0,45.3V548c0,14.1,3.8,25,10.6,31.8l1.8,1.5L294,299.7v-6.3L12.1,11.8L10.4,13.3z"
		/>
	
		<linearGradient id="SVGID_2_" gradientUnits="userSpaceOnUse" x1="3611.5098" y1="-1013.0535" x2="3415.71" y2="-1013.0535" gradientTransform="matrix(2.8096 0 0 2.3656 -9604.3721 2693.1763)">
		<stop  offset="0" style="stop-color:#FFE000"/>
		<stop  offset="0.409" style="stop-color:#FFBD00"/>
		<stop  offset="0.775" style="stop-color:#FFA500"/>
		<stop  offset="1" style="stop-color:#FF9C00"/>
	</linearGradient>
	<path class="st1" d="M387.7,393.9l-93.9-94v-6.6l94-94l2,1.3L501,263.8c31.8,17.9,31.8,47.5,0,65.7l-111.2,63.2
		C389.8,392.7,387.7,393.9,387.7,393.9L387.7,393.9z"/>
	
		<linearGradient id="SVGID_3_" gradientUnits="userSpaceOnUse" x1="3771.2219" y1="-846.0191" x2="3659.095" y2="-700.555" gradientTransform="matrix(4.6145 0 0 3.5569 -17064.7188 3358.0837)">
		<stop  offset="0" style="stop-color:#FF3A44"/>
		<stop  offset="1" style="stop-color:#C31162"/>
	</linearGradient>
	<path class="st2" d="M389.8,392.7l-96-96L10.4,580.1c10.4,11.1,27.8,12.4,47.3,1.5L389.8,392.7z"/>
	
		<linearGradient id="SVGID_4_" gradientUnits="userSpaceOnUse" x1="3684.8508" y1="-986.6144" x2="3734.9187" y2="-921.6234" gradientTransform="matrix(4.6145 0 0 3.555 -17064.7188 3353.4929)">
		<stop  offset="0" style="stop-color:#32A071"/>
		<stop  offset="6.900000e-02" style="stop-color:#2DA771"/>
		<stop  offset="0.476" style="stop-color:#15CF74"/>
		<stop  offset="0.801" style="stop-color:#06E775"/>
		<stop  offset="1" style="stop-color:#00F076"/>
	</linearGradient>
	<path class="st3" d="M389.8,200.7L57.6,12C38.2,0.9,20.7,2.4,10.4,13.5l283.4,283.2L389.8,200.7z"/>
	<path class="st4" d="M387.7,390.7L57.9,578.1c-18.4,10.6-34.9,9.9-45.5,0.2l-1.8,1.8l1.8,1.5c10.6,9.6,27,10.4,45.5-0.2L390,392.7
		L387.7,390.7z"/>
	<path class="st5" d="M500.9,326.2l-113.4,64.4l2,2l111.2-63.2c15.9-9.1,23.7-21,23.7-32.8C523.4,307.6,515.3,317.9,500.9,326.2
		L500.9,326.2z"/>
	<path class="st6" d="M57.6,15.3l443.3,251.9c14.4,8.1,22.5,18.7,23.7,29.6c0-11.9-7.8-23.7-23.7-32.8L57.6,12C25.8-6.2,0,9,0,45.3
		v3.3C0,12.2,25.8-2.7,57.6,15.3z"/>
	<g>
		<path class="st7" d="M632.9,280.7c0-80.5,67.7-146.1,148.2-146.1c44.5,0,76.2,17.5,100.1,40.2L853,203c-17.1-16-40.2-28.5-72-28.5
			c-58.8,0-104.8,47.3-104.8,106.1s46,106.2,104.7,106.2c38.1,0,59.8-15.3,73.7-29.2c11.4-11.4,18.9-27.8,21.8-50.2h-95.4v-39.8
			h134.3c1.4,7.1,2.2,15.7,2.2,24.9c0,29.9-8.2,67-34.6,93.4c-25.7,26.7-58.4,41-101.9,41C700.5,426.9,632.8,361.4,632.9,280.7
			L632.9,280.7z M1026.1,238.7c-52,0-94.5,39.6-94.5,94c0,54.2,42.4,94,94.5,94c52,0,94.4-39.9,94.4-94.1
			C1120.5,278.2,1078.1,238.7,1026.1,238.7L1026.1,238.7z M1026.1,389.8c-28.5,0-53.1-23.5-53.1-57c0-33.9,24.6-57,53.1-57
			c28.5,0,53.1,23.1,53.1,57C1079.2,366.3,1054.6,389.8,1026.1,389.8z M1232.1,238.7c-52,0-94.4,39.6-94.4,94
			c0,54.2,42.4,94,94.4,94c52,0,94.4-39.9,94.4-94.1C1326.5,278.2,1284.2,238.7,1232.1,238.7L1232.1,238.7z M1232.1,389.8
			c-28.5,0-53.1-23.5-53.1-57c0-33.9,24.6-57,53.1-57c28.5,0,53.1,23.1,53.1,57C1285.2,366.3,1260.6,389.8,1232.1,389.8
			L1232.1,389.8z M1484.9,244.4v15.3h-1.4c-9.2-11.1-27.1-21-49.5-21c-47,0-90.2,41.4-90.2,94.5c0,52.7,43.1,93.7,90.2,93.7
			c22.4,0,40.2-10,49.5-21.4h1.4V419c0,36-19.2,55.2-50.2,55.2c-25.3,0-41-18.2-47.4-33.5l-36,15c10.3,24.9,37.8,55.6,83.4,55.6
			c48.4,0,89.4-28.5,89.4-98V244.4L1484.9,244.4z M1437.6,389.8c-28.5,0-52.4-23.9-52.4-56.7c0-33.1,23.9-57.4,52.4-57.4
			c28.1,0,50.2,24.2,50.2,57.4C1487.8,365.9,1465.7,389.8,1437.6,389.8z M1552.6,144.6h41.4v276.5h-41.4V144.6z M1707.3,389.8
			c-21,0-36-9.6-45.6-28.5l125.8-52.1l-4.3-10.7c-7.8-21-31.7-59.8-80.5-59.8c-48.4,0-88.7,38.1-88.7,94.1c0,52.7,39.9,94,93.4,94
			c43.1,0,68.1-26.3,78.4-41.7l-32.1-21.4C1742.9,379.5,1728.3,389.8,1707.3,389.8L1707.3,389.8z M1704.1,275
			c16.4,0,30.3,8.2,34.9,19.9l-84.1,34.9C1653.8,293.6,1683,275,1704.1,275L1704.1,275z M1969,144.6h-98.9v276.5h41.3V316.4h57.6
			c45.7,0,90.7-33.1,90.7-85.9C2059.7,177.8,2014.8,144.7,1969,144.6L1969,144.6z M1970,277.9h-58.7v-94.8h58.7
			c30.8,0,48.4,25.6,48.4,47.4C2018.5,251.9,2000.9,277.9,1970,277.9L1970,277.9z M2123.7,421.1V144.6h-41.3v276.5H2123.7z
			 M2309.1,420.6v-106c0-49.1-36.7-76.5-84-76.5c-29.8,0-60.8,13.2-73.6,42.3l36.6,15.3c7.8-15.3,22.4-20.3,37.7-20.3
			c21.3,0,43,12.8,43.3,35.6v2.9c-7.5-4.3-23.4-10.7-43-10.7c-39.5,0-79.7,21.7-79.7,62.2c0,37,32.4,60.8,68.7,60.8
			c27.8,0,43-12.4,52.6-27h1.4v21.4L2309.1,420.6L2309.1,420.6z M2220.1,389.7c-13.5,0-32.4-6.8-32.4-23.4
			c0-21.4,23.5-29.6,43.8-29.6c18.2,0,26.7,3.9,37.7,9.2C2266.1,370.8,2245.1,389.4,2220.1,389.7L2220.1,389.7z M2454.2,244.2
			l-47.3,119.8h-1.4l-49.1-119.8h-44.5l73.6,167.6l-42,93.2h43L2500,244.2L2454.2,244.2z"/>
	</g>
</g>
</svg>
