<svg xmlns="http://www.w3.org/2000/svg" viewBox="0 0 64 64"><radialGradient id="GyJEbq9bXIP9dNYWCibDwa" cx="32.5" cy="31.5" r="30.516" gradientUnits="userSpaceOnUse" spreadMethod="reflect"><stop offset="0" stop-color="#afeeff"/><stop offset=".193" stop-color="#bbf1ff"/><stop offset=".703" stop-color="#d7f8ff"/><stop offset="1" stop-color="#e1faff"/></radialGradient><path fill="url(#GyJEbq9bXIP9dNYWCibDwa)" d="M59,20h1.5c2.168,0,3.892-1.998,3.422-4.243C63.58,14.122,62.056,13,60.385,13L53,13 c-1.105,0-2-0.895-2-2c0-1.105,0.895-2,2-2h3.385c1.67,0,3.195-1.122,3.537-2.757C60.392,3.998,58.668,2,56.5,2H34.006H32.5h-24 C6.575,2,5,3.575,5,5.5S6.575,9,8.5,9H10c1.105,0,2,0.895,2,2c0,1.105-0.895,2-2,2l-5.385,0c-1.67,0-3.195,1.122-3.537,2.757 C0.608,18.002,2.332,20,4.5,20H18v12L4.615,32c-1.67,0-3.195,1.122-3.537,2.757C0.608,37.002,2.332,39,4.5,39H5c1.105,0,2,0.895,2,2 c0,1.105-0.895,2-2,2H4.5c-2.168,0-3.892,1.998-3.422,4.243C1.42,48.878,2.945,50,4.615,50H10c1.105,0,2,0.895,2,2 c0,1.105-0.895,2-2,2l-1.385,0c-1.67,0-3.195,1.122-3.537,2.757C4.608,59.002,6.332,61,8.5,61h22.494H32.5h23 c1.925,0,3.5-1.575,3.5-3.5S57.425,54,55.5,54H55c-1.105,0-2-0.895-2-2c0-1.105,0.895-2,2-2h4.385c1.67,0,3.195-1.122,3.537-2.757 C63.392,44.998,61.668,43,59.5,43H47V31h12.385c1.67,0,3.195-1.122,3.537-2.757C63.392,25.998,61.668,24,59.5,24H59 c-1.105,0-2-0.895-2-2C57,20.895,57.895,20,59,20z"/><linearGradient id="GyJEbq9bXIP9dNYWCibDwb" x1="19.5" x2="19.5" y1="26.185" y2="-26.601" gradientUnits="userSpaceOnUse" spreadMethod="reflect"><stop offset="0" stop-color="#ff634d"/><stop offset=".204" stop-color="#fe6464"/><stop offset=".521" stop-color="#fc6581"/><stop offset=".794" stop-color="#fa6694"/><stop offset=".989" stop-color="#fa669a"/></linearGradient><path fill="url(#GyJEbq9bXIP9dNYWCibDwb)" d="M7,31C7,17.252,18.252,6,32,6v25H7z"/><linearGradient id="GyJEbq9bXIP9dNYWCibDwc" x1="44.5" x2="44.5" y1="83.477" y2="7.516" gradientUnits="userSpaceOnUse" spreadMethod="reflect"><stop offset="0" stop-color="#feaa53"/><stop offset=".612" stop-color="#ffcd49"/><stop offset="1" stop-color="#ffde44"/></linearGradient><path fill="url(#GyJEbq9bXIP9dNYWCibDwc)" d="M57,31C57,17.252,45.748,6,32,6v25l17.084,18.197C53.946,44.748,57,38.221,57,31z"/><linearGradient id="GyJEbq9bXIP9dNYWCibDwd" x1="28.042" x2="28.042" y1="56" y2="6.406" gradientUnits="userSpaceOnUse" spreadMethod="reflect"><stop offset="0" stop-color="#ff9757"/><stop offset="1" stop-color="#ffb65b"/></linearGradient><path fill="url(#GyJEbq9bXIP9dNYWCibDwd)" d="M32,31H7c0,6.527,2.637,12.641,6.803,17.084C18.388,52.946,24.914,56,32,56 c6.527,0,12.5-2.637,17.084-6.803L32,31z"/><g><linearGradient id="GyJEbq9bXIP9dNYWCibDwe" x1="46.185" x2="43.903" y1="25.726" y2="-15.231" gradientUnits="userSpaceOnUse" spreadMethod="reflect"><stop offset="0" stop-color="#ff634d"/><stop offset=".204" stop-color="#fe6464"/><stop offset=".521" stop-color="#fc6581"/><stop offset=".794" stop-color="#fa6694"/><stop offset=".989" stop-color="#fa669a"/></linearGradient><path fill="url(#GyJEbq9bXIP9dNYWCibDwe)" d="M43.939,6.635l-8.846,19.903c-0.385,0.867,0.501,1.753,1.368,1.368l19.929-8.857 c0.514-0.229,0.767-0.833,0.54-1.348c-2.312-5.241-6.79-9.306-11.619-11.592C44.792,5.863,44.172,6.111,43.939,6.635z"/></g></svg>