<svg xmlns="http://www.w3.org/2000/svg" viewBox="0 0 100 100"><circle cx="77" cy="13" r="1" fill="#f1bc19"/><circle cx="50" cy="50" r="37" fill="#e6edb7"/><circle cx="83" cy="15" r="4" fill="#f1bc19"/><circle cx="87" cy="24" r="2" fill="#9f8066"/><circle cx="81" cy="76" r="2" fill="#fbcd59"/><circle cx="15" cy="63" r="4" fill="#fbcd59"/><circle cx="25" cy="87" r="2" fill="#9f8066"/><circle cx="19.5" cy="43.5" r="2.5" fill="#fff"/><circle cx="79.5" cy="33.5" r="1.5" fill="#fff"/><g><path fill="#fabf82" d="M75.044,53.202c-0.287-1.529-0.86-2.389-2.389-2.867c-0.096,0-0.191-0.096-0.287-0.096 s-0.287-0.096-0.382-0.191c-0.86-0.382-6.116-2.293-6.116-2.293c-0.382-0.096-0.669-0.382-0.86-0.764 c-0.287-0.573-0.191-2.007-0.191-2.007s-2.198,0.764-3.536,0.956c-1.338,0.096-4.204-1.624-4.204-1.624s-0.096,2.102-0.191,2.58 c-0.096,0.382-0.478,0.669-0.86,0.764l-4.969,1.816c-0.573,0.191-1.051,0.382-1.529,0.669c-1.242,0.764-1.911,1.911-2.198,2.962 c0,0-0.287,2.293-0.287,2.389c0,0.287-0.096-0.287-0.096,0.096c5.447,3.727,9.842,4.682,17.296,4.396 c3.44-0.191,8.504-1.816,11.18-3.153C75.331,53.967,75.044,53.202,75.044,53.202z"/><path fill="#ee3e54" d="M72.751,50.431c-0.096,0-0.191-0.096-0.287-0.096c-0.096,0-0.287-0.096-0.382-0.191 c-0.573-0.191-2.771-1.051-4.3-1.624h-0.096c-1.72,0.86-4.3,2.293-6.593,2.293s-4.587-1.242-6.593-2.293l-0.191,0.096 l-3.153,1.147c-0.573,0.191-1.051,0.382-1.529,0.669c-1.242,0.764-1.911,1.911-2.198,2.962c0,0-0.287,2.293-0.287,2.389 c0,0.287-0.096,2.867-0.096,3.249c5.447,3.727,9.842,4.682,17.296,4.396c3.44-0.191,8.504-1.816,11.18-3.153 c-0.096-2.962-0.382-6.88-0.382-6.88C74.758,51.769,74.184,50.814,72.751,50.431z"/><path fill="#fddbbc" d="M69.693,34.569c-0.096,0-0.191,0-0.287,0c-0.669,0-0.86,0.191-0.86-0.191 c0.096-0.764-0.096-3.727-0.096-3.918c0-3.153-3.249-5.638-7.358-5.829l0,0h-0.096h-0.096l0,0 c-4.109,0.096-7.358,2.676-7.358,5.829c0,0.191-0.096,3.153-0.096,3.918c0,0.382-0.191,0.191-0.86,0.191 c-0.096,0-0.191,0-0.287,0c-0.764,0.096-1.338,0.478-1.433,1.147c0.096,0.096,0.382,2.58,0.956,3.631 c0.287,0.573,0.764,0.669,1.242,1.051c0.287,0.191,0.287,0.382,0.382,0.764c0.287,1.147,1.051,2.102,1.911,2.867 c0.382,0.382,3.153,3.344,5.542,3.153c2.389-0.096,5.064-2.771,5.542-3.153c0.86-0.764,1.624-1.72,1.911-2.867 c0.096-0.287,0.096-0.573,0.382-0.764c0.478-0.382,0.956-0.478,1.242-1.051c0.573-1.051,0.86-3.536,0.956-3.631 C71.031,35.142,70.458,34.665,69.693,34.569z"/><path fill="#512c2b" d="M61.189,39.538c0.478,0,0.956-0.191,1.242-0.573v-0.096l0,0h-0.096 c-0.287,0.287-0.669,0.478-1.147,0.478c-0.478,0-0.86-0.191-1.147-0.478c0,0,0,0-0.096,0c0,0,0,0-0.096,0v0.096 C60.233,39.347,60.711,39.538,61.189,39.538z M59.66,33.136l0.287-0.573c-1.242-0.287-2.771-0.287-4.013,0.096l0.382,0.573 C57.367,32.849,58.609,32.849,59.66,33.136z M66.062,33.136l0.287-0.573c-1.242-0.287-2.771-0.287-4.013,0.096l0.382,0.573 C63.769,32.849,65.011,32.849,66.062,33.136z M57.749,33.9c-0.287,0-0.573,0.191-0.764,0.478h0.096 c0.287,0,0.478,0.191,0.478,0.478s-0.191,0.478-0.478,0.478c-0.096,0-0.191,0-0.191-0.096c0.096,0.478,0.478,0.764,0.86,0.764 c0.478,0,0.86-0.478,0.86-1.147C58.609,34.378,58.227,33.9,57.749,33.9z M64.533,33.9c-0.287,0-0.478,0.191-0.669,0.382 c0.096,0,0.096,0,0.191,0c0.287,0,0.478,0.191,0.478,0.478c0,0.287-0.191,0.478-0.478,0.478c-0.191,0-0.287-0.096-0.382-0.191 c0,0.573,0.382,1.051,0.86,1.051c0.478,0,0.86-0.478,0.86-1.147C65.393,34.378,65.011,33.9,64.533,33.9z M64.82,40.876V40.78l0,0 h-0.096c-0.764,0.669-2.102,0.956-3.631,0.956c-1.529,0-2.771-0.382-3.631-0.956c0,0,0,0-0.096,0h-0.096v0.096 c0.86,0.764,2.293,1.147,3.727,1.147C62.622,42.022,63.96,41.64,64.82,40.876z M62.144,44.602l0.096-0.096 c0,0,0-0.096-0.096-0.096h-1.816l-0.096,0.096c0,0,0,0.096,0.096,0.096H62.144z"/><path fill="#472b29" d="M61.858,63.905c-6.307,0-10.32-1.242-15.193-4.491c-0.191-0.096-0.191-0.287-0.191-0.478 c0-0.096,0-0.287,0-0.669c0-1.529,0.096-3.727,0.382-5.064c0.478-1.72,1.147-2.389,2.389-3.153 c0.478-0.287,1.051-0.573,1.72-0.669l4.969-1.816c0.382-0.096,0.573-0.287,0.573-0.478c0-0.096,0.096-0.382,0.096-1.338 c-0.669-0.478-1.242-0.956-1.433-1.147c-1.147-1.051-1.72-2.102-2.007-3.153c-0.096-0.287-0.096-0.382-0.191-0.478 c-0.096-0.096-0.287-0.191-0.382-0.287c-0.382-0.191-0.764-0.382-0.956-0.956c-0.573-1.147-1.051-3.249-1.051-3.918v-0.096 c0.191-0.86,0.956-1.433,1.911-1.529c0.096,0,0.191,0,0.287,0s0.287,0,0.382,0c0-0.86,0-2.58,0.096-3.344V30.46 c0-3.344,3.344-6.211,7.74-6.307h0.096h0.096l0,0h0.096c4.3,0.191,7.74,2.962,7.74,6.307v0.382c0,0.764,0.096,2.484,0.096,3.344 c0.096,0,0.191,0,0.382,0c0.096,0,0.191,0,0.287,0c0.956,0.096,1.72,0.669,1.911,1.529v0.096c0,0.764-0.478,2.771-1.051,3.918 c-0.287,0.478-0.669,0.764-0.956,0.956c-0.096,0.096-0.287,0.191-0.382,0.287c-0.096,0.096-0.191,0.191-0.191,0.478 c-0.287,1.051-0.86,2.102-2.007,3.153c-0.191,0.191-0.764,0.669-1.529,1.242c0,0.764,0.096,1.051,0.096,1.147 c0.096,0.287,0.287,0.478,0.573,0.478c0.287,0.096,5.256,1.911,6.116,2.293c0.191,0.096,0.287,0.096,0.382,0.191 c0.096,0,0.096,0.096,0.191,0.096c1.529,0.478,2.293,1.433,2.676,3.153c0,0,0,0,0,0.096c0,0,0.287,3.918,0.382,6.88 c0,0.191-0.096,0.382-0.287,0.478c-2.867,1.433-8.027,3.058-11.371,3.249C63.482,63.905,62.718,63.905,61.858,63.905z M47.524,58.745c5.16,3.44,9.46,4.491,16.818,4.204c3.153-0.096,7.836-1.624,10.702-2.962c-0.096-2.867-0.382-6.116-0.382-6.498 c-0.287-1.433-0.86-2.102-2.007-2.389c-0.096,0-0.191-0.096-0.287-0.096c-0.096-0.096-0.287-0.096-0.382-0.191 c-0.86-0.382-6.02-2.293-6.116-2.293c-0.478-0.096-0.86-0.478-1.147-0.956c-0.191-0.382-0.287-0.956-0.191-1.816 c0-0.191,0.096-0.287,0.191-0.382c0.86-0.573,1.433-1.147,1.624-1.242c0.956-0.956,1.529-1.816,1.72-2.676 c0.096-0.382,0.191-0.669,0.573-1.051c0.191-0.096,0.382-0.191,0.478-0.287c0.287-0.191,0.478-0.287,0.573-0.573 c0.478-0.956,0.86-2.771,0.956-3.344c-0.096-0.382-0.573-0.669-1.051-0.669c-0.096,0-0.191,0-0.191,0c-0.191,0-0.382,0-0.478,0 c-0.191,0-0.382,0.096-0.669-0.096c-0.191-0.191-0.191-0.478-0.191-0.573c0-0.573,0-2.771,0-3.536c0-0.191,0-0.382,0-0.382 c0-2.867-3.058-5.256-6.88-5.447c0,0,0,0-0.096,0l0,0c0,0,0,0-0.096,0c-3.822,0.096-6.88,2.484-6.88,5.447c0,0,0,0.191,0,0.382 c0,0.764-0.096,2.962,0,3.536c0,0.096,0,0.382-0.191,0.573c-0.191,0.191-0.478,0.191-0.669,0.096c-0.096,0-0.287,0-0.478,0 c-0.096,0-0.191,0-0.287,0c-0.478,0-0.956,0.287-1.051,0.669c0,0.669,0.382,2.484,0.956,3.344 c0.096,0.287,0.287,0.382,0.573,0.573c0.191,0.096,0.382,0.191,0.478,0.287c0.382,0.287,0.478,0.669,0.573,0.956 c0.191,0.86,0.764,1.72,1.72,2.676c0.096,0.096,0.669,0.573,1.529,1.147c0.096,0.096,0.191,0.287,0.191,0.382 c-0.096,1.338-0.096,1.624-0.096,1.72c-0.096,0.573-0.669,1.051-1.242,1.147l-4.969,1.816c-0.573,0.191-1.051,0.382-1.433,0.573 c-1.147,0.669-1.624,1.242-2.007,2.676c-0.287,1.147-0.382,3.44-0.382,4.778C47.524,58.458,47.524,58.649,47.524,58.745z"/><path fill="#895d3d" d="M69.789,38.009l-0.573-0.096l0.096-1.147l-0.573,0.287l-0.191-0.573l1.051-0.478 c0.096,0,0.191,0,0.287,0c0.096,0.096,0.096,0.191,0.096,0.287L69.789,38.009z M52.684,37.818l-0.191-1.624 c0-0.096,0-0.191,0.096-0.287s0.191-0.096,0.287,0l1.051,0.478l-0.191,0.573l-0.669-0.287l0.096,1.147H52.684z"/><path fill="#472b29" d="M53.64,40.971L53.64,40.971c-0.096,0-0.191-0.096-0.191-0.191l0.096-6.02 c0-0.096,0.096-0.191,0.191-0.191c0.096,0,0.191,0.096,0.191,0.191l-0.096,6.02C53.831,40.876,53.736,40.971,53.64,40.971z M68.642,40.971c-0.096,0-0.191-0.096-0.191-0.191l-0.096-6.02c0-0.096,0.096-0.191,0.191-0.191l0,0 c0.096,0,0.191,0.096,0.191,0.191l0.096,6.02C68.833,40.876,68.738,40.971,68.642,40.971L68.642,40.971z"/><path fill="#472b29" d="M61.189,47.374c-1.529,0-4.013-1.816-4.109-1.911s-0.096-0.191-0.096-0.287 c0.096-0.096,0.191-0.096,0.287-0.096c0.764,0.573,2.867,1.911,4.013,1.816c1.338-0.191,3.44-1.624,3.44-1.624 c0.096-0.096,0.287-0.096,0.287,0.096c0.096,0.096,0.096,0.287-0.096,0.287C64.82,45.749,62.622,47.278,61.189,47.374 C61.284,47.374,61.284,47.374,61.189,47.374z"/><path fill="#512c2b" d="M52.493,27.402c0.287-0.669,1.147-0.764,1.147-0.764s-0.764-0.956-0.478-1.338 c0.287-0.478,2.867-3.44,9.364-2.771c6.498,0.669,7.262,4.873,7.262,4.873l-1.338,7.644c0,0-2.58-7.549-12.996-6.116 c0,0,0.478,0.956-1.72,4.778L52.493,27.402L52.493,27.402z"/></g><g><path fill="#fabf82" d="M52.493,53.49c-0.287-1.515-0.86-2.367-2.293-2.746c-0.096,0-0.191-0.095-0.287-0.095 s-0.287-0.095-0.382-0.189c-0.86-0.379-6.02-2.272-6.02-2.272c-0.382-0.095-0.669-0.379-0.86-0.757 c-0.287-0.568-0.191-1.988-0.191-1.988s-2.102,0.757-3.44,0.947c-1.338,0.095-4.109-1.515-4.109-1.515s-0.096,2.083-0.191,2.557 c-0.096,0.379-0.478,0.663-0.86,0.757l-4.969,1.799c-0.573,0.095-1.051,0.379-1.529,0.663c-1.242,0.757-1.911,1.894-2.198,2.841 c0,0-0.287,1.326-0.287,1.42c0,0.284-0.096,0.663-0.096,1.042c5.351,3.598,9.651,4.64,17.104,4.261 c3.344-0.189,8.409-1.799,10.989-3.125C52.78,54.247,52.493,53.49,52.493,53.49z"/><path fill="#88cdd7" d="M50.2,50.839c-0.096-0.095-0.191-0.095-0.287-0.095s-0.287-0.095-0.382-0.189 c-0.573-0.189-2.676-1.042-4.3-1.61h-0.096c-1.72,0.852-4.204,2.178-6.498,2.178s-4.587-1.231-6.498-2.178l-0.191,0.095 l-2.962,1.042c-0.573,0.095-1.051,0.379-1.529,0.663c-1.242,0.757-1.911,1.894-2.198,2.841c0,0-0.287,1.326-0.287,1.42 c0,0.284-0.096,3.693-0.096,4.072c5.351,3.598,9.651,4.64,17.104,4.261c3.249-0.095,8.313-1.799,10.893-3.125 c-0.096-2.841-0.382-6.628-0.382-6.628C52.207,52.07,51.633,51.217,50.2,50.839z"/><path fill="#be7841" d="M31.28,37.014c-0.096-0.284-2.676-5.965-0.764-9.753c0.86-1.61,2.293-2.651,4.396-3.125 c1.242-0.852,2.676-1.231,4.109-1.231c1.242,0,2.389,0.284,3.44,0.947c0.573,0.284,1.051,0.568,1.433,0.852 c1.242,0.757,1.624,0.947,2.293,0.947c0.096,0,0.191,0,0.287,0c0.191,0,0.287,0,0.382,0c0.764,0,0.956,0.473,0.956,0.757 c0.096,0.757-0.191,1.42-0.382,1.988c-0.191,0.473-0.382,0.852-0.287,1.231c1.242,4.166-0.669,7.575-0.764,7.764l-0.86,1.515 v-1.704c0,0,0-3.03-0.669-5.113c-0.956,0.473-2.102,0.757-3.44,0.757c-2.198,0-4.682-0.757-7.167-2.272 c-2.102,1.704-2.102,6.628-2.102,6.628v2.178L31.28,37.014z"/><path fill="#472b29" d="M38.924,23.285c1.051,0,2.102,0.284,3.249,0.852c2.484,1.326,2.867,1.799,4.013,1.799 c0.096,0,0.191,0,0.287,0c0.096,0,0.287,0,0.382,0c0.287,0,0.478,0.095,0.478,0.284c0.191,1.231-0.956,2.272-0.669,3.219 c1.242,4.072-0.764,7.386-0.764,7.386s0-3.693-0.956-5.776c-0.956,0.663-2.198,0.947-3.631,0.947 c-2.102,0-4.587-0.757-7.167-2.462c-2.58,1.704-2.484,7.196-2.484,7.196s-4.873-10.51,3.44-12.309 C36.153,23.758,37.491,23.285,38.924,23.285 M38.924,22.338c-1.529,0-2.962,0.473-4.3,1.326c-2.198,0.473-3.727,1.61-4.587,3.409 c-2.102,4.072,0.573,9.942,0.669,10.226l1.816,3.977v-4.45c0-1.231,0.287-4.545,1.624-6.06c2.389,1.42,4.873,2.178,7.071,2.178 c1.147,0,2.198-0.189,3.153-0.568c0.478,1.894,0.478,4.45,0.478,4.45v3.503l1.816-3.03c0.096-0.189,2.198-3.693,0.86-8.143 c-0.096-0.189,0.096-0.568,0.287-0.852c0.287-0.568,0.573-1.326,0.382-2.178c-0.096-0.568-0.478-1.136-1.433-1.136 c-0.096,0-0.191,0-0.382,0h-0.096c-0.096,0-0.191,0-0.191,0c-0.573,0-0.86-0.189-2.102-0.852 c-0.382-0.189-0.86-0.473-1.433-0.852C41.504,22.622,40.262,22.338,38.924,22.338L38.924,22.338z"/><path fill="#00a5a5" d="M29.56,62.012c-0.191,0-0.287-0.095-0.287-0.284v-2.746c0-0.189,0.096-0.284,0.287-0.284 c0.191,0,0.287,0.095,0.287,0.284v2.746C29.847,61.917,29.656,62.012,29.56,62.012z M47.716,62.485 c-0.191,0-0.287-0.095-0.287-0.284v-3.219c0-0.189,0.096-0.284,0.287-0.284c0.191,0,0.287,0.095,0.287,0.284v3.219 C48.002,62.39,47.907,62.485,47.716,62.485z"/><path fill="#fddbbc" d="M47.142,35.31c-0.096,0-0.191,0-0.287,0c-0.669,0-0.573,0.189-0.573-0.189 c0.096-0.757-0.287-3.693-0.287-3.787c0-3.03-3.249-5.586-7.262-5.681l0,0h-0.096h-0.096l0,0 c-4.013,0.095-7.262,2.651-7.262,5.681c0,0.189-0.096,3.125-0.096,3.787c0,0.379-0.191,0.189-0.86,0.189 c-0.096,0-0.191,0-0.287,0c-0.764,0.095-1.338,0.473-1.433,1.042c0.096,0.095,0.382,2.557,0.956,3.503 c0.287,0.568,0.764,0.663,1.242,0.947c0.287,0.189,0.287,0.379,0.382,0.757c0.287,1.136,1.051,1.988,1.816,2.841 c0.382,0.379,3.153,3.219,5.447,3.125c2.293-0.095,5.064-2.746,5.447-3.125c0.86-0.757,1.624-1.704,1.816-2.841 c0.096-0.284,0.096-0.473,0.382-0.757c0.478-0.379,0.956-0.473,1.242-0.947c0.573-0.947,0.86-3.503,0.956-3.503 C48.48,35.878,47.907,35.405,47.142,35.31z"/><path fill="#512c2b" d="M38.733,40.234c0.478,0,0.956-0.189,1.242-0.568v-0.095l0,0H39.88 c-0.287,0.284-0.669,0.473-1.051,0.473c-0.382,0-0.86-0.189-1.051-0.473c0,0,0,0-0.096,0c0,0,0,0-0.096,0v0.095 C37.873,39.95,38.256,40.234,38.733,40.234z M37.3,33.89l0.287-0.568c-1.242-0.284-2.771-0.284-3.918,0.095l0.382,0.568 C35.007,33.7,36.249,33.606,37.3,33.89z M43.607,33.89l0.287-0.568c-1.242-0.284-2.676-0.284-3.918,0.095l0.382,0.568 C41.313,33.7,42.556,33.606,43.607,33.89z M35.484,34.647c-0.287,0-0.573,0.189-0.764,0.473h0.096 c0.287,0,0.478,0.189,0.478,0.473c0,0.284-0.191,0.473-0.478,0.473c-0.096,0-0.191,0-0.191-0.095 c0.096,0.473,0.478,0.757,0.86,0.757c0.478,0,0.86-0.473,0.86-1.136C36.344,34.931,35.962,34.647,35.484,34.647z M42.078,34.647 c-0.287,0-0.478,0.189-0.669,0.379c0.096,0,0.096,0,0.191,0c0.287,0,0.478,0.189,0.478,0.473c0,0.284-0.191,0.473-0.478,0.473 c-0.191,0-0.287-0.095-0.382-0.189c0,0.568,0.382,1.042,0.86,1.042c0.478,0,0.86-0.473,0.86-1.136 C42.938,35.121,42.556,34.647,42.078,34.647z M42.46,41.465V41.37l0,0h-0.096c-0.764,0.663-2.102,0.947-3.536,0.947 c-1.433,0-2.771-0.379-3.536-0.947c0,0,0,0-0.096,0h-0.096v0.095c0.86,0.757,2.293,1.136,3.631,1.136 C40.167,42.601,41.504,42.222,42.46,41.465z M39.784,45.063l0.096-0.095c0,0,0-0.095-0.096-0.095h-1.816l-0.096,0.095 c0,0,0,0.095,0.096,0.095H39.784z"/><path fill="#472b29" d="M39.498,64c-6.211,0-10.129-1.231-14.907-4.45C24.4,59.455,24.4,59.266,24.4,59.076 c0-0.095,0-0.284,0-0.663c0-1.515,0.096-3.693,0.382-4.924c0.478-1.704,1.147-2.367,2.389-3.125 c0.478-0.284,1.051-0.473,1.624-0.663l4.873-1.799c0.287-0.095,0.573-0.284,0.573-0.379c0-0.189,0.096-0.663,0.096-1.326 c-0.669-0.473-1.242-0.947-1.433-1.042c-1.051-1.042-1.72-1.988-2.007-3.03c-0.096-0.284-0.096-0.379-0.191-0.473 c-0.096-0.095-0.287-0.189-0.382-0.284c-0.287-0.189-0.669-0.379-0.956-0.852c-0.573-1.136-1.051-3.125-1.051-3.787v-0.095 c0.191-0.757,0.956-1.42,1.911-1.42c0.096,0,0.191,0,0.287,0c0.096,0,0.191,0,0.382,0c0-0.852,0-2.462,0.096-3.219v-0.379 c0-3.314,3.344-6.06,7.644-6.249h0.096h0.096l0,0h0.096c4.3,0.189,7.644,2.935,7.644,6.249c0,0,0,0.284,0.096,0.473 c0.096,1.136,0.287,2.462,0.287,3.03l0,0c0.191,0,0.287,0,0.382,0c0.956,0.095,1.72,0.663,1.911,1.42v0.095 c0,0.757-0.478,2.746-1.051,3.787c-0.287,0.473-0.669,0.757-0.956,0.852c-0.096,0.095-0.287,0.189-0.382,0.284 c-0.096,0.095-0.096,0.189-0.191,0.473c-0.287,1.042-0.86,1.988-2.007,3.125c-0.191,0.189-0.764,0.663-1.529,1.231 c0,0.757,0.096,1.042,0.096,1.136c0.096,0.284,0.287,0.379,0.573,0.473s5.16,1.894,6.02,2.272 c0.191,0.095,0.287,0.095,0.382,0.189c0.096,0,0.096,0.095,0.191,0.095c1.529,0.473,2.293,1.42,2.676,3.125c0,0,0,0,0,0.095 c0,0,0.287,3.787,0.382,6.723c0,0.189-0.096,0.379-0.287,0.473C50.391,62.39,45.729,64,39.498,64z M25.26,58.887 c5.064,3.314,9.269,4.356,16.531,4.072c3.058-0.095,7.8-1.486,10.571-2.811c-0.096-2.746-0.442-6.089-0.442-6.468 c-0.287-1.326-0.764-1.988-2.007-2.367c-0.096,0-0.191-0.095-0.287-0.095c-0.096-0.095-0.287-0.095-0.382-0.189 c-0.764-0.284-5.829-2.178-5.829-2.178c-0.478-0.095-0.86-0.473-1.147-0.947c-0.096-0.095-0.287-0.568-0.191-1.799 c0-0.189,0.096-0.284,0.191-0.379c0.764-0.568,1.433-1.136,1.624-1.231c0.956-0.947,1.529-1.799,1.72-2.651 c0.096-0.379,0.191-0.663,0.573-0.947c0.191-0.095,0.382-0.189,0.478-0.284c0.287-0.189,0.478-0.284,0.573-0.473 c0.478-0.947,0.86-2.651,0.86-3.314c-0.096-0.379-0.478-0.663-0.956-0.663c-0.096,0-0.096,0-0.191,0h-0.096 c-0.382,0-0.669,0-0.86-0.284c-0.191-0.189-0.191-0.379-0.096-0.568c0-0.568-0.096-2.272-0.191-3.03 c0-0.379-0.096-0.568-0.096-0.568c0-2.841-2.962-5.113-6.784-5.302c0,0,0,0-0.096,0l0,0c0,0,0,0-0.096,0 c-3.822,0.095-6.784,2.462-6.784,5.302c0,0,0,0.189,0,0.379c0,0.757-0.096,2.841,0,3.409c0,0.095,0,0.379-0.191,0.568 c-0.191,0.189-0.478,0.189-0.669,0.095c-0.096,0-0.287,0-0.478,0c-0.096,0-0.191,0-0.191,0c-0.478,0-0.86,0.284-1.051,0.663 c0,0.663,0.382,2.462,0.86,3.314c0.096,0.284,0.287,0.379,0.573,0.473c0.191,0.095,0.382,0.189,0.478,0.284 c0.382,0.284,0.478,0.663,0.573,0.947c0.191,0.852,0.764,1.704,1.72,2.651c0.096,0.095,0.669,0.568,1.529,1.136 c0.096,0.095,0.191,0.284,0.191,0.379c0,0.852-0.096,1.42-0.096,1.704c-0.096,0.568-0.669,1.042-1.242,1.136l-4.873,1.799 c-0.573,0.189-1.051,0.379-1.433,0.568c-1.147,0.663-1.624,1.136-2.007,2.557c-0.287,1.136-0.382,3.314-0.382,4.64 C25.26,58.603,25.26,58.792,25.26,58.887z"/><path fill="#895d3d" d="M47.333,38.719l-0.573-0.095l0.096-1.042l-0.573,0.284l-0.191-0.568l1.051-0.473 c0.096,0,0.191,0,0.287,0c0.096,0.095,0.096,0.189,0.096,0.284L47.333,38.719z M30.42,38.435l-0.191-1.61 c0-0.095,0-0.189,0.096-0.284s0.191-0.095,0.287,0l1.051,0.473l-0.191,0.568l-0.573-0.284l0.096,1.042L30.42,38.435z"/><path fill="#472b29" d="M31.376,41.559L31.376,41.559c-0.096,0-0.191-0.095-0.191-0.189l0.096-5.965 c0-0.095,0.096-0.189,0.191-0.189l0,0c0.096,0,0.191,0.095,0.191,0.189l-0.096,5.965C31.567,41.465,31.471,41.559,31.376,41.559z M46.187,41.559c-0.096,0-0.191-0.095-0.191-0.189L45.9,35.405c0-0.095,0.096-0.189,0.191-0.189l0,0 c0.096,0,0.191,0.095,0.191,0.189l0.096,5.965C46.378,41.465,46.282,41.559,46.187,41.559L46.187,41.559z M38.829,47.809 c-1.529,0-4.013-1.799-4.109-1.894c-0.096-0.095-0.096-0.189-0.096-0.284c0.096-0.095,0.191-0.095,0.287-0.095 c0.764,0.568,2.867,1.894,3.918,1.799c1.338-0.189,3.44-1.61,3.44-1.61c0.096-0.095,0.287-0.095,0.287,0.095 c0.096,0.095,0.096,0.284-0.096,0.284C42.364,46.199,40.262,47.619,38.829,47.809C38.924,47.809,38.829,47.809,38.829,47.809z"/><path fill="#be7841" d="M47.333,26.315c-0.096-0.379-0.478-0.284-0.86-0.284c-1.338,0.095-1.624-0.379-4.204-1.799 c-2.676-1.42-5.351-0.852-7.167,0.379c-8.218,1.799-3.44,12.309-3.44,12.309s0-5.492,2.484-7.196 c4.3,2.746,8.313,3.03,10.798,1.42C45.9,33.227,45.9,36.92,45.9,36.92s2.007-3.314,0.764-7.386 C46.378,28.493,47.524,27.546,47.333,26.315L47.333,26.315z"/><path fill="#472b29" d="M46.378,36.825H45.9c0,0,0-3.409-0.86-5.397c-2.771,1.61-6.88,1.042-10.893-1.515 c-2.293,1.704-2.293,6.912-2.293,6.912h-0.478c0-0.189,0-5.681,2.676-7.386c0.096-0.095,0.191-0.095,0.287,0 c4.013,2.557,8.218,3.125,10.798,1.42c0.096,0,0.096,0,0.191,0c0.096,0,0.096,0.095,0.191,0.095 C46.378,33.038,46.378,36.73,46.378,36.825z"/></g><g><path fill="#fddbbc" d="M58.628,50.421c0.096-1.051-0.191-1.911-0.191-2.389l0,0c-0.86-1.147-1.433-2.484-2.771-3.249 c-1.338-0.86-3.058-1.529-4.587-1.911c-3.918-0.956-7.644,1.816-8.887,5.542c0,0,0,0,0,0.096c0.191,0.86,0.287,1.624,0.287,2.007 c-1.051,0-1.624,0.573-1.242,1.624c0,0,0.382,1.816,0.669,2.676c0.191,0.573,0.478,0.764,1.051,0.86c0,0.573,0,1.147,0,1.72 c0,0.669,0.191,1.338,0.573,1.911c1.051,1.433,6.307,4.873,7.549,4.778c2.102,0,6.013-3.577,7.064-5.297 c0.191-0.287,0.239-0.862,0.239-1.245c0-0.669,0.15-1.198,0.15-1.867c0.382-0.096,0.669-0.287,0.86-0.764 c0.287-0.86,0.669-2.58,0.669-2.676C60.444,50.994,59.679,50.421,58.628,50.421z"/><g opacity=".3"><path fill="#f4989e" d="M45.824,55.922c-0.739-0.001-1.338,0.598-1.339,1.337c-0.001,0.739,0.598,1.338,1.337,1.339 c0.001,0,0.001,0,0.002,0c0.739,0.001,1.338-0.598,1.339-1.337c0.001-0.739-0.598-1.338-1.337-1.339 C45.825,55.922,45.824,55.922,45.824,55.922z M56.144,55.922c-0.739-0.001-1.338,0.598-1.339,1.337 c-0.001,0.739,0.598,1.338,1.337,1.339c0.001,0,0.001,0,0.002,0c0.739,0.001,1.338-0.598,1.339-1.337 c0.001-0.739-0.598-1.338-1.337-1.339C56.145,55.922,56.144,55.922,56.144,55.922z" opacity=".8"/></g><path fill="#472b29" d="M43.134,56.063c-0.094,0-0.188-0.094-0.188-0.188l-0.563-5.346c0-0.094,0.094-0.188,0.188-0.188 c0.094,0,0.188,0.094,0.188,0.188l0.563,5.346C43.322,55.969,43.228,56.063,43.134,56.063L43.134,56.063z M58.14,55.781 L58.14,55.781c-0.094,0-0.188-0.094-0.188-0.188l0.281-5.346c0-0.094,0.094-0.188,0.188-0.188c0.094,0,0.188,0.094,0.188,0.188 l-0.281,5.346C58.328,55.687,58.234,55.781,58.14,55.781z"/><path fill="#6d1b18" d="M48.499,59.116c0,0.096,0,0.191,0,0.287c0,0.956,1.051,1.72,2.389,1.72s2.389-0.764,2.389-1.72 c0-0.096,0-0.191,0-0.287H48.499z"/><path fill="#ee3e54" d="M52.13,60.932c-0.191-0.287-0.669-0.382-1.242-0.382c-0.573,0-1.051,0.191-1.242,0.382 c0.382,0.191,0.764,0.287,1.242,0.287C51.366,61.218,51.748,61.027,52.13,60.932z"/><path fill="#fdfcef" d="M49.168,59.116L49.168,59.116v0.287c0,0.287,0.287,0.478,0.764,0.478h1.816 c0.382,0,0.764-0.191,0.764-0.478v-0.287l0,0H49.168z"/><path fill="#472b29" d="M50.888,61.41c-1.433,0-2.58-0.86-2.58-1.911c0-0.096,0-0.287,0.096-0.382 c0-0.096,0.096-0.096,0.191-0.096h4.587c0.096,0,0.191,0.096,0.191,0.191c0,0.096,0.096,0.287,0.096,0.382 C53.373,60.55,52.226,61.41,50.888,61.41z M48.69,59.307v0.096c0,0.86,0.956,1.529,2.198,1.529c1.242,0,2.198-0.669,2.198-1.529 v-0.096H48.69z"/><path fill="#472b29" d="M50.888,57.874c0.478,0,1.051-0.191,1.338-0.573v-0.096l0,0H52.13 c-0.287,0.287-0.669,0.478-1.242,0.478c-0.478,0-0.956-0.191-1.242-0.478c0,0,0,0-0.096,0c0,0,0,0-0.096,0v0.096 C49.837,57.587,50.315,57.874,50.888,57.874z M51.462,62.461C51.462,62.461,51.462,62.365,51.462,62.461 c0.096-0.096,0-0.096,0-0.096h-1.242c0,0-0.096,0-0.096,0.096s0,0.096,0.096,0.096h1.242V62.461z" opacity=".41"/><path fill="#512c2b" d="M49.455,49.656c-1.338-0.478-3.631-0.669-5.064-0.573c-0.096,0-0.096,0.096-0.096,0.096 c0,0.096,0.096,0.096,0.096,0.096s3.44,0.573,4.491,0.956c0,0,0,0,0.096,0s0.096,0,0.096-0.096L49.455,49.656v-0.096 C49.55,49.752,49.455,49.656,49.455,49.656z M52.13,49.561c1.338-0.382,3.727-0.478,5.064-0.287c0.096,0,0.096,0.096,0.096,0.096 c0,0.096-0.096,0.096-0.096,0.096s-3.44,0.382-4.587,0.764c0,0,0,0-0.096,0s-0.096,0-0.096-0.096l-0.382-0.478v-0.096 C52.13,49.561,52.13,49.561,52.13,49.561z"/><path fill="#472b29" d="M47.066,51.09c-0.382,0-0.669,0.191-0.86,0.573h0.096c0.287,0,0.478,0.287,0.478,0.573 c0,0.287-0.191,0.573-0.478,0.573c-0.096,0-0.191,0-0.287-0.096c0.096,0.478,0.478,0.86,0.956,0.86 c0.573,0,0.956-0.573,0.956-1.242C48.022,51.663,47.544,51.09,47.066,51.09z M54.519,51.09c-0.287,0-0.573,0.191-0.764,0.382 c0.096,0,0.096,0,0.191,0c0.287,0,0.478,0.287,0.478,0.573c0,0.287-0.191,0.573-0.478,0.573c-0.191,0-0.287-0.096-0.382-0.287 c0,0.669,0.478,1.242,0.956,1.242c0.573,0,0.956-0.573,0.956-1.242C55.475,51.663,55.093,51.09,54.519,51.09z"/><path fill="#fabf82" d="M37.587,75.557c7.726,5.622,18.293,4.707,26.435,0.452c0.229-3.614-0.234-7.529-2.336-8.198 c-0.096,0-0.096-0.096-0.191-0.096s-0.191-0.096-0.382-0.191c-0.86-0.382-6.307-2.198-6.307-2.198 c-0.382-0.096-0.669-0.382-0.86-0.764c-0.287-0.573-0.191-2.007-0.191-2.007s-1.624,0.764-2.867,0.956 c-1.242,0.096-3.536-1.529-3.536-1.529s-0.096,2.102-0.191,2.484c-0.096,0.382-0.478,0.669-0.86,0.764l-5.256,1.72 c-0.573,0.096-1.051,0.382-1.433,0.573c-1.338,0.86-1.911,2.198-2.198,3.153l0,0c0,0.096,0,0.191-0.096,0.382 c-0.096,0.478-0.096,0.86-0.096,0.956C37.319,72.303,37.587,75.462,37.587,75.557z"/><path fill="#a1a1ca" d="M59.584,77.931l-0.382-11.17l-3.153-1.147c-2.102,1.624-10.919,0.012-10.919,0.012l-3.111,1.098 L41.81,77.931C48.09,80.035,54.046,80.22,59.584,77.931z"/><path fill="#3a2221" d="M57.004,39.527c0-0.191,0-0.287-0.096-0.478c0-0.096,0.096-0.287,0.096-0.478 c0-0.86-0.669-1.624-1.529-1.911c0-1.147-1.051-2.007-2.293-2.102c-0.382-0.764-1.338-1.338-2.389-1.338 c-0.956,0-1.816,0.478-2.293,1.242c-0.191,0-0.382-0.096-0.573-0.096c-1.147,0-2.198,0.86-2.198,1.911v0.096 c-1.051,0.287-1.72,1.147-1.72,2.102c0,0.573,0.191,1.051,0.573,1.433c-0.287,0.287-0.382,0.669-0.382,1.147 c0,1.051,0.956,1.911,2.102,1.911c0.287,0,0.573-0.096,0.86-0.191c0,0.86,0.86,1.624,1.816,1.624c0.191,0,0.382,0,0.573-0.096 c0.478,0.573,1.147,0.86,2.007,0.86c1.242,0,2.389-0.86,2.484-2.007c0.86-0.287,1.433-1.051,1.529-1.911 C56.43,41.152,57.004,40.387,57.004,39.527z"/><path fill="#472b29" d="M49.646,50.803c-1.529-1.816-7.262-0.573-7.262-0.573c0.096,0.382,0.191,0.86,0.287,1.242 c0.382,0,0.478,1.051,0.478,1.338c0.191,1.72,1.338,2.962,3.727,2.867s2.962-1.816,3.058-2.962 C50.028,51.567,49.646,50.803,49.646,50.803z M49.455,52.905c-0.096,1.529-1.051,2.389-2.58,2.484c-0.191,0-0.287,0-0.478,0 c-2.389,0-2.771-2.102-2.867-3.44c0-0.764,0.478-1.433,1.242-1.433c0.478,0,0.956,0,1.529,0c1.816,0,2.58,0.382,2.771,0.764 C49.168,51.376,49.455,52.045,49.455,52.905z M51.366,52.81c0.096,1.051,0.669,2.867,3.058,2.962s3.536-1.147,3.727-2.867 c0-0.382,0.096-1.338,0.478-1.338c0.096-0.382,0.191-0.86,0.287-1.242c0,0-5.733-1.338-7.262,0.573 C51.653,50.803,51.27,51.567,51.366,52.81z M52.226,51.185c0.191-0.382,0.956-0.764,2.771-0.764c0.573,0,1.051,0,1.529,0 c0.764,0.096,1.338,0.764,1.242,1.433c0,1.338-0.478,3.44-2.867,3.44c-0.096,0-0.287,0-0.478,0 c-1.529-0.096-2.484-0.956-2.58-2.484C51.844,52.045,52.13,51.376,52.226,51.185z"/><path fill="#472b29" d="M51.653,52.236c0,0-0.382-0.287-1.051-0.287s-0.956,0.287-0.956,0.287 c-0.096-0.287-0.191-0.573-0.287-0.86c0.86,0,1.816,0,2.676,0C51.939,51.663,51.844,51.95,51.653,52.236z"/><path fill="#472b29" d="M50.832,79.995c-4.938,0-9.925-1.26-13.63-3.785c-0.133-0.091-0.207-0.245-0.195-0.404 c0.004-0.117,0.008-0.977,0.013-1.867c0.011-2.124,0.013-2.134,0.022-2.193c0.428-2.596,1.805-4.232,2.952-4.897 c0.562-0.303,1.021-0.501,1.466-0.693l4.906-1.731c0.11-0.04,0.194-0.095,0.234-0.13c0.008-0.162,0.039-0.474,0.079-0.88 l0.072-0.733c-1.207-0.837-2.719-2.077-3.316-3.041c-0.382-0.576-0.83-1.375-0.83-2.341c0-0.225-0.021-0.45-0.042-0.675 c-0.014-0.147-0.027-0.295-0.036-0.442c-0.591-0.31-0.8-0.987-0.876-1.234c-0.125-0.336-0.25-0.901-0.406-1.616 c-0.068-0.308-0.141-0.642-0.223-0.995c-0.361-1.164,0.018-1.743,0.198-1.937c0.147-0.158,0.392-0.422,0.809-0.591 c-0.156-0.477-0.221-1.111-0.221-1.205c0-4.621,3.862-8.381,8.608-8.381c4.746,0,8.608,3.76,8.608,8.381 c-0.01,0.111-0.068,0.657-0.19,1.099c0.518,0.164,0.857,0.433,1.035,0.814c0.002-0.003,0.032,0.024,0.07,0.067 c0.292,0.318,0.567,0.704,0.458,1.616c-0.037,0.153-0.606,2.234-0.788,2.725c-0.185,0.497-0.564,0.857-0.939,1.053v1.418 c0,0.465-0.2,1.102-0.397,1.528c-0.762,1.237-2.388,2.895-3.947,4.051c0.009,0.614,0.05,0.894,0.07,1.036 c0.003,0.017,0.005,0.032,0.007,0.046c0.07,0.141,0.17,0.273,0.499,0.377c0.205,0.065,4.859,1.756,5.633,2.108 c3.385,1.544,3.76,2.996,3.945,5.036c0.005,0.054,0.007,0.259,0.015,2.017c0.005,0.992,0.009,2.011,0.014,2.12 c0.007,0.15-0.062,0.301-0.183,0.39C60.808,78.697,55.845,79.995,50.832,79.995z M37.91,75.601 c7.141,4.717,19.012,4.677,25.696-0.085c-0.003-0.272-0.005-0.814-0.011-1.916c-0.004-0.939-0.008-1.855-0.012-1.955 c-0.149-1.643-0.259-2.841-3.421-4.284c-0.713-0.325-5.31-1.999-5.531-2.069c-0.758-0.239-0.969-0.693-1.07-0.912 c-0.027-0.059-0.047-0.135-0.047-0.2c-0.033-0.219-0.089-0.593-0.089-1.433c0-0.145,0.07-0.281,0.188-0.366 c1.506-1.081,3.17-2.751,3.87-3.884c0.153-0.337,0.288-0.831,0.288-1.101v-1.72c0-0.203,0.137-0.382,0.333-0.434 c0.231-0.062,0.542-0.304,0.663-0.63c0.14-0.376,0.589-1.993,0.75-2.584c0.058-0.512-0.08-0.662-0.238-0.835 c-0.076-0.083-0.146-0.162-0.199-0.249c-0.138-0.289-0.535-0.407-0.85-0.463c-0.214-0.039-0.37-0.225-0.37-0.443 c0-0.065,0.015-0.321,0.042-0.38c0.105-0.228,0.194-0.796,0.227-1.1c-0.003-4.079-3.461-7.435-7.711-7.435 c-4.25,0-7.708,3.356-7.708,7.481c0.005,0.113,0.092,0.768,0.224,1.053c0.027,0.059,0.042,0.124,0.042,0.189v0.287 c0,0.218-0.156,0.404-0.371,0.443c-0.384,0.069-0.565,0.264-0.725,0.436c-0.003,0.003-0.242,0.273,0.011,1.09 c0.091,0.388,0.166,0.726,0.234,1.037c0.144,0.654,0.268,1.219,0.379,1.519c0.194,0.624,0.412,0.736,0.56,0.768 c0.208,0.045,0.355,0.228,0.355,0.44c0,0.225,0.021,0.45,0.042,0.675c0.023,0.252,0.046,0.505,0.046,0.757 c0,0.574,0.206,1.129,0.687,1.856c0.46,0.743,1.777,1.917,3.283,2.932c0.136,0.092,0.212,0.251,0.197,0.415l-0.098,1.003 c-0.044,0.438-0.077,0.755-0.077,0.866c0,0.444-0.429,0.757-0.83,0.901l-4.88,1.721c-0.418,0.181-0.84,0.363-1.355,0.641 c-0.957,0.555-2.126,1.971-2.503,4.258c0,0.07-0.005,1.078-0.01,2.051C37.915,74.876,37.912,75.352,37.91,75.601z"/><path fill="#512c2b" d="M50.697,38.954c-7.74,0-10.511,6.593-8.218,13.091c0.096,0.287,0.669,0.287,0.669-0.096 c0.287-3.727,2.102-6.784,7.549-5.256c5.542-1.529,7.262,1.529,7.549,5.256c0,0.287,0.573,0.382,0.669,0.096 C61.208,45.547,58.437,38.954,50.697,38.954z"/><g><path fill="#472b29" d="M50.864,63.873c-1.563,0-4.05-1.477-4.155-1.54l0.257-0.429c0.024,0.015,2.473,1.469,3.898,1.469 c1.594,0,3.378-1.354,3.964-1.799l0.303,0.398C54.511,62.442,52.626,63.873,50.864,63.873z"/></g></g></svg>