<svg xmlns="http://www.w3.org/2000/svg" viewBox="0 0 24 24">
  <path d="M11 0C10.399 0.005 9.8235156 0.25389062 9.4785156 1.2128906C9.2145156 1.9488906 8.4191875 2.0019531 7.4921875 2.0019531C7.3311875 2.0019531 7.167 2 7 2C6.035 2 5.7801875 2.7313438 6.2421875 3.4023438C6.4891875 3.7593437 8.01825 6.3641875 8.40625 6.9921875C8.4475938 7.0590634 8.5098427 7.1229935 8.5878906 7.1816406C8.610489 7.1986047 8.6426856 7.2122473 8.6679688 7.2285156C8.7274393 7.2668172 8.7866645 7.3054272 8.859375 7.3398438C8.9418009 7.3788523 9.0560183 7.4035371 9.1523438 7.4375C9.3074303 7.4922497 9.4548565 7.5484008 9.6347656 7.5898438C9.7615691 7.6190735 9.8940612 7.635686 10.027344 7.6582031C10.196044 7.6867554 10.357073 7.7167523 10.527344 7.734375C10.674668 7.7497116 10.803607 7.752721 10.945312 7.7597656C11.064928 7.7657534 11.193255 7.78125 11.304688 7.78125C11.368688 7.78125 11.432187 7.7812969 11.492188 7.7792969C12.022687 7.7622969 12.718281 7.6444844 13.269531 7.4277344C13.544434 7.3194817 13.783596 7.1869991 13.949219 7.0292969C13.949219 7.0292969 13.951172 7.0292969 13.951172 7.0292969C14.034156 6.9502812 14.097457 6.864832 14.138672 6.7734375C14.179887 6.682043 14.197625 6.5842187 14.1875 6.4804688C14.0375 4.9414688 15.606547 2.9227188 15.810547 2.6367188C15.810547 2.6367188 15.808594 2.6367188 15.808594 2.6367188C16.153594 2.1497187 16.104641 1.0703125 15.056641 1.0703125C14.852641 1.0703125 14.610172 1.1110781 14.326172 1.2050781C14.051172 1.2960781 13.594594 1.8105469 13.183594 1.8105469C12.985594 1.8105469 12.797484 1.6907031 12.646484 1.3457031C12.183484 0.28770312 11.548672 1.4802974e-16 11.013672 0L11.013672 1C11.336672 1 11.581469 1.4050938 11.730469 1.7460938C12.150469 2.7060937 12.886594 2.8105469 13.183594 2.8105469C13.764594 2.8105469 14.231063 2.4710938 14.539062 2.2460938C14.593063 2.2070937 14.643453 2.169625 14.689453 2.140625C14.819453 2.100625 14.916422 2.0812187 14.982422 2.0742188L14.947266 2.1230469C14.389205 2.8848372 13.977968 3.5947881 13.683594 4.2578125C13.389213 4.5815886 13.010558 4.8412162 12.515625 4.828125C11.628625 4.804125 11.537 3.635625 11 3.640625C10.399 3.645625 10.313625 4.540625 9.765625 4.640625C8.6697049 4.84105 7.7895084 3.710229 7.2128906 3.0019531L7.2460938 3.0019531L7.4921875 3.0019531C8.3331875 3.0019531 9.8989219 3.0027812 10.419922 1.5507812C10.615922 1.0047812 10.806766 1.002 11.009766 1L11.013672 0L11 0 z M 13.960938 8.2109375C13.150937 8.6109375 12.139531 8.7592969 11.519531 8.7792969L11.310547 8.7792969C11.120547 8.7792969 10.009766 8.7709375 9.0097656 8.4609375C3.8297656 10.020937 0 15.27 0 19C0 23.42 5.37 24 12 24C18.63 24 24 23.42 24 19C24 15.03 19.650937 9.3209375 13.960938 8.2109375 z M 12.25 12.990234C12.89 12.990234 13.39 13.180547 13.75 13.560547C14.11 13.940547 14.279531 14.440547 14.269531 15.060547L14.259766 15.089844L12.839844 15.089844C12.839844 14.759844 12.779922 14.519141 12.669922 14.369141C12.549922 14.209141 12.410234 14.140625 12.240234 14.140625C12.080234 14.140625 11.949375 14.229688 11.859375 14.429688C11.769375 14.629687 11.720703 14.909531 11.720703 15.269531L11.759766 16.320312L13.199219 16.320312L13.199219 17.470703L11.820312 17.470703L11.830078 17.880859C11.830078 18.140859 11.779687 18.390625 11.679688 18.640625C11.579688 18.880625 11.44 19.099063 11.25 19.289062L14.330078 19.289062L14.330078 20.439453L9.9394531 20.439453L9.9394531 19.289062L9.9804688 19.289062C10.110469 19.249063 10.199766 19.090312 10.259766 18.820312C10.319766 18.540312 10.349609 18.260937 10.349609 17.960938L10.339844 17.470703L9.6699219 17.470703L9.6699219 16.320312L10.300781 16.320312L10.259766 15.269531C10.259766 14.559531 10.440781 13.999609 10.800781 13.599609C11.160781 13.189609 11.64 12.990234 12.25 12.990234 z" fill="#FBFBE3" />
</svg>