<svg xmlns="http://www.w3.org/2000/svg" baseProfile="basic" viewBox="0 0 100 100"><circle cx="77" cy="13" r="1" fill="#f1bc19"/><circle cx="50" cy="50" r="37" fill="#e6edb7"/><circle cx="83" cy="15" r="4" fill="#f1bc19"/><circle cx="87" cy="24" r="2" fill="#88ae45"/><circle cx="81" cy="76" r="2" fill="#fbcd59"/><circle cx="15" cy="63" r="4" fill="#fbcd59"/><circle cx="25" cy="87" r="2" fill="#88ae45"/><circle cx="18.5" cy="51.5" r="2.5" fill="#fff"/><circle cx="79.5" cy="33.5" r="1.5" fill="#fff"/><path fill="#d82745" d="M66.3,72.3H33.7c-3.314,0-6-2.686-6-6V33.7c0-3.314,2.686-6,6-6h32.6c3.314,0,6,2.686,6,6v32.6C72.3,69.614,69.614,72.3,66.3,72.3z"/><path fill="#472b29" d="M66.3,73H33.7c-3.694,0-6.7-3.006-6.7-6.7V33.7c0-3.694,3.006-6.7,6.7-6.7h32.6c3.694,0,6.7,3.006,6.7,6.7v32.6C73,69.994,69.994,73,66.3,73z M33.7,28.4c-2.923,0-5.3,2.377-5.3,5.3v32.6c0,2.922,2.377,5.3,5.3,5.3h32.6c2.923,0,5.3-2.377,5.3-5.3V33.7c0-2.922-2.377-5.3-5.3-5.3H33.7z"/><circle cx="21" cy="67" r="1" fill="#f1bc19"/><path fill="#472b29" d="M36.5,70H34c-2.206,0-4-1.794-4-4v-1.5c0-0.276,0.224-0.5,0.5-0.5s0.5,0.224,0.5,0.5V66c0,1.654,1.346,3,3,3h2.5c0.276,0,0.5,0.224,0.5,0.5S36.776,70,36.5,70z"/><path fill="#472b29" d="M30.5,40c-0.276,0-0.5-0.224-0.5-0.5V34c0-2.206,1.794-4,4-4h25.5c0.276,0,0.5,0.224,0.5,0.5S59.776,31,59.5,31H34c-1.654,0-3,1.346-3,3v5.5C31,39.776,30.776,40,30.5,40z"/><path fill="#472b29" d="M69.5,61c-0.276,0-0.5-0.224-0.5-0.5V34c0-1.654-1.346-3-3-3h-3.5c-0.276,0-0.5-0.224-0.5-0.5s0.224-0.5,0.5-0.5H66c2.206,0,4,1.794,4,4v26.5C70,60.776,69.776,61,69.5,61z"/><path fill="#472b29" d="M66,70H39.5c-0.276,0-0.5-0.224-0.5-0.5s0.224-0.5,0.5-0.5H66c1.654,0,3-1.346,3-3v-2.5c0-0.276,0.224-0.5,0.5-0.5s0.5,0.224,0.5,0.5V66C70,68.206,68.206,70,66,70z"/><path fill="#fdfcef" d="M45.5,37.27v25.46c-5.25-1.85-9-6.85-9-12.73S40.25,39.12,45.5,37.27z"/><path fill="#fdfcef" d="M63.5,50c0,7.46-6.04,13.5-13.5,13.5c-0.51,0-1.01-0.03-1.5-0.09v-8.97c0.33,0.04,0.66,0.06,1,0.06c4.42,0,8-3.58,8-8s-3.58-8-8-8c-0.34,0-0.67,0.02-1,0.06v-1.97c0.49-0.06,0.99-0.09,1.5-0.09C57.46,36.5,63.5,42.54,63.5,50z"/><path fill="#472b29" d="M45.5,63.23c-0.056,0-0.112-0.009-0.166-0.028C39.751,61.234,36,55.929,36,50s3.751-11.234,9.334-13.202c0.153-0.053,0.323-0.03,0.455,0.063C45.921,36.956,46,37.108,46,37.27v25.46c0,0.162-0.079,0.314-0.211,0.408C45.703,63.199,45.603,63.23,45.5,63.23z M45,37.997c-4.813,2-8,6.737-8,12.003s3.187,10.002,8,12.003V37.997z"/><path fill="#472b29" d="M50,64c-0.524,0-1.05-0.031-1.561-0.093C48.188,63.876,48,63.663,48,63.41v-8.97c0-0.143,0.062-0.279,0.168-0.374c0.108-0.095,0.244-0.139,0.393-0.123C48.87,53.981,49.181,54,49.5,54c4.136,0,7.5-3.364,7.5-7.5S53.636,39,49.5,39c-0.319,0-0.63,0.019-0.939,0.057c-0.148,0.017-0.284-0.027-0.393-0.123C48.062,38.839,48,38.703,48,38.56v-1.97c0-0.253,0.188-0.466,0.439-0.497C48.95,36.031,49.476,36,50,36c7.72,0,14,6.28,14,14S57.72,64,50,64z M49,62.958C49.33,62.986,49.665,63,50,63c7.168,0,13-5.832,13-13s-5.832-13-13-13c-0.335,0-0.67,0.014-1,0.042v0.973C49.165,38.005,49.331,38,49.5,38c4.687,0,8.5,3.813,8.5,8.5S54.187,55,49.5,55c-0.169,0-0.335-0.005-0.5-0.014V62.958z"/><path fill="#472b29" d="M38.425,48.544c-0.012,0-0.024-0.001-0.036-0.002c-0.137-0.021-0.231-0.147-0.211-0.284c0.328-2.224,1.274-4.305,2.736-6.02c0.091-0.105,0.249-0.117,0.353-0.028c0.105,0.09,0.118,0.248,0.028,0.353c-1.401,1.643-2.309,3.638-2.623,5.769C38.653,48.455,38.547,48.544,38.425,48.544z"/><path fill="#472b29" d="M38.598,52.875c-0.114,0-0.217-0.078-0.243-0.194c-0.202-0.878-0.305-1.78-0.305-2.681c0-0.138,0.112-0.25,0.25-0.25s0.25,0.112,0.25,0.25c0,0.863,0.098,1.728,0.291,2.568c0.031,0.135-0.053,0.269-0.188,0.3C38.635,52.873,38.616,52.875,38.598,52.875z"/><path fill="#472b29" d="M42.313,41.427c-0.069,0-0.139-0.029-0.188-0.085c-0.091-0.104-0.08-0.262,0.024-0.353c0.44-0.385,0.917-0.743,1.416-1.062c0.116-0.076,0.271-0.041,0.346,0.076c0.074,0.116,0.04,0.271-0.076,0.345c-0.478,0.306-0.935,0.648-1.357,1.018C42.431,41.406,42.372,41.427,42.313,41.427z"/><path fill="#472b29" d="M50.3,61.946c-0.135,0-0.246-0.108-0.25-0.244c-0.004-0.138,0.105-0.253,0.243-0.256c1.395-0.036,2.751-0.32,4.032-0.845c0.128-0.053,0.272,0.009,0.326,0.137c0.052,0.128-0.009,0.274-0.137,0.326c-1.338,0.548-2.754,0.845-4.208,0.882C50.304,61.946,50.302,61.946,50.3,61.946z"/><path fill="#472b29" d="M56.5,59.974c-0.08,0-0.159-0.039-0.208-0.111c-0.076-0.115-0.046-0.27,0.068-0.347c1.534-1.028,2.812-2.428,3.697-4.047c0.067-0.121,0.22-0.165,0.34-0.099c0.121,0.066,0.165,0.218,0.1,0.339c-0.924,1.689-2.258,3.15-3.857,4.222C56.597,59.96,56.548,59.974,56.5,59.974z"/><path fill="#472b29" d="M61.154,53.785c-0.025,0-0.051-0.004-0.076-0.012c-0.131-0.042-0.204-0.183-0.162-0.314c0.192-0.605,0.335-1.23,0.422-1.858c0.02-0.135,0.144-0.228,0.282-0.213c0.137,0.019,0.232,0.146,0.214,0.282c-0.092,0.656-0.24,1.309-0.441,1.94C61.358,53.717,61.261,53.785,61.154,53.785z"/><path fill="#472b29" d="M30.5,62c-0.276,0-0.5-0.224-0.5-0.5V42.4c0-0.276,0.224-0.5,0.5-0.5s0.5,0.224,0.5,0.5v19.1C31,61.776,30.776,62,30.5,62z"/></svg>