<svg xmlns="http://www.w3.org/2000/svg" viewBox="0 0 30 30">
  <path d="M6 1C4.9 1 4 1.9 4 3L4 24C4 25.1 4.9 26 6 26L14.519531 26C14.179531 25.06 14 24.05 14 23C14 22.31 14.080703 21.64 14.220703 21L13 21C12.45 21 12 20.55 12 20C12 19.45 12.45 19 13 19L14.939453 19C15.299453 18.27 15.760781 17.6 16.300781 17L13 17C12.45 17 12 16.55 12 16C12 15.45 12.45 15 13 15L18.890625 15C20.120625 14.36 21.52 14 23 14C23.34 14 23.67 14.020547 24 14.060547L24 3C24 1.9 23.1 1 22 1L6 1 z M 9 6L19 6C19.55 6 20 6.45 20 7C20 7.55 19.55 8 19 8L9 8C8.45 8 8 7.55 8 7C8 6.45 8.45 6 9 6 z M 9 11C9.55 11 10 11.45 10 12C10 12.55 9.55 13 9 13C8.45 13 8 12.55 8 12C8 11.45 8.45 11 9 11 z M 13 11L19 11C19.55 11 20 11.45 20 12C20 12.55 19.55 13 19 13L13 13C12.45 13 12 12.55 12 12C12 11.45 12.45 11 13 11 z M 9 15C9.55 15 10 15.45 10 16C10 16.55 9.55 17 9 17C8.45 17 8 16.55 8 16C8 15.45 8.45 15 9 15 z M 23 16C21.51 16 20.13 16.459766 19 17.259766C18.39 17.679766 17.850156 18.200781 17.410156 18.800781C16.710156 19.720781 16.240078 20.81 16.080078 22C16.020078 22.32 16 22.66 16 23C16 26.87 19.13 30 23 30C26.87 30 30 26.87 30 23C30 19.47 27.390234 16.550078 23.990234 16.080078C23.670234 16.020078 23.34 16 23 16 z M 9 19C9.55 19 10 19.45 10 20C10 20.55 9.55 21 9 21C8.45 21 8 20.55 8 20C8 19.45 8.45 19 9 19 z M 23 19C23.17 19 23.340469 19.040859 23.480469 19.130859C23.790469 19.290859 24 19.62 24 20L24 22L26 22C26.55 22 27 22.45 27 23C27 23.55 26.55 24 26 24L24 24L24 26C24 26.55 23.55 27 23 27C22.45 27 22 26.55 22 26L22 24L20 24C19.45 24 19 23.55 19 23C19 22.45 19.45 22 20 22L22 22L22 20C22 19.45 22.45 19 23 19 z" fill="#FBFBE3" />
</svg>