<svg xmlns="http://www.w3.org/2000/svg" viewBox="0 0 100 100"><circle cx="77" cy="13" r="1" fill="#f1bc19"/><circle cx="50" cy="50" r="37" fill="#e6edb7"/><circle cx="83" cy="15" r="4" fill="#f1bc19"/><circle cx="87" cy="24" r="2" fill="#9f8066"/><circle cx="81" cy="76" r="2" fill="#fbcd59"/><path fill="#fbcd59" d="M18,64c0,2.209-0.791,4-3,4s-4-1.791-4-4c0-2.209,1.791-4,4-4S18,61.791,18,64z"/><circle cx="25" cy="87" r="2" fill="#9f8066"/><circle cx="20.5" cy="52.5" r="2.5" fill="#fff"/><circle cx="79.5" cy="40.5" r="1.5" fill="#fff"/><g><path fill="#ee3e54" d="M55.829,54.102c-0.254,0-0.492-0.099-0.672-0.278l-7.566-7.566c-0.37-0.37-0.37-0.973,0-1.344 l14.799-14.799c1.824-1.906,5.713-3.765,7.861-3.765c0.266,0,0.491,0.032,0.651,0.092c1.647,0.496,1.984,2.381,1.208,6.522 l-0.075,0.354c-0.663,3.106-1.349,6.319-3.564,8.535l-11.971,11.97C56.321,54.003,56.083,54.102,55.829,54.102z"/><path fill="#472b29" d="M70.252,27.05c0.259,0,0.377,0.037,0.406,0.048l0.044,0.017l0.045,0.013 c0.818,0.246,1.537,1.115,0.683,5.672l-0.08,0.374c-0.642,3.006-1.305,6.115-3.375,8.185L56.006,53.329 c-0.06,0.061-0.129,0.073-0.177,0.073c-0.047,0-0.116-0.013-0.177-0.073l-7.566-7.566c-0.098-0.098-0.098-0.256,0-0.354 l14.82-14.821C64.73,28.683,68.47,27.05,70.252,27.05 M70.252,25.65c-2.278,0-6.369,1.893-8.357,3.97L47.096,44.419 c-0.644,0.645-0.644,1.689,0,2.333l7.566,7.566c0.322,0.322,0.744,0.483,1.167,0.483c0.422,0,0.845-0.161,1.167-0.483 l11.971-11.971c2.454-2.454,3.126-5.955,3.833-9.254c0.707-3.771,0.707-6.6-1.65-7.307h0 C70.902,25.694,70.598,25.65,70.252,25.65L70.252,25.65z"/><rect width="26" height="18" x="40.001" y="39.415" fill="#ce942b" transform="rotate(-45.001 53 48.415)"/><rect width="23" height="3" x="39.379" y="44.086" fill="#fbcd59" transform="rotate(-45.001 50.88 45.587)"/><path fill="#f4989e" d="M60.779,39.222l-1.414-1.414l8.485-8.485c0.391-0.391,1.024-0.391,1.414,0h0 c0.391,0.391,0.391,1.024,0,1.414L60.779,39.222z"/><path fill="#472b29" d="M55.829,34.838l10.748,10.748L50.172,61.991L39.424,51.243L55.829,34.838 M55.829,32.858 L37.444,51.243l12.728,12.728l18.385-18.385L55.829,32.858L55.829,32.858z"/><path fill="#8889b9" d="M35.382,76.051L25.365,66.033c-1.53-1.53-1.53-4.009,0-5.539l12.08-12.08l15.556,15.556 l-12.08,12.08C39.391,77.58,36.912,77.58,35.382,76.051z"/><rect width="17" height="4" x="25.055" y="58.789" fill="#a1a1ca" transform="rotate(-45.001 33.555 60.79)"/><rect width="3.6" height="20.6" x="41.655" y="47.66" fill="#f1bc19" transform="rotate(-44.992 43.458 57.963)"/><path fill="#472b29" d="M37.444,50.395l13.576,13.576l-1.556,1.556L35.889,51.95L37.444,50.395 M37.444,48.415 l-3.536,3.536l15.556,15.556l3.536-3.536L37.444,48.415L37.444,48.415z"/><path fill="#472b29" d="M37.444,50.395l13.576,13.576l-11.09,11.09c-0.475,0.476-1.107,0.737-1.78,0.737 s-1.304-0.262-1.78-0.737L26.354,65.043c-0.475-0.475-0.737-1.107-0.737-1.779c0-0.672,0.262-1.304,0.737-1.78L37.444,50.395 M37.444,48.415l-12.08,12.08c-1.53,1.53-1.53,4.01,0,5.539l10.017,10.018c0.765,0.765,1.767,1.147,2.77,1.147 c1.002,0,2.005-0.382,2.77-1.147l12.08-12.08L37.444,48.415L37.444,48.415z"/><path fill="#472b29" d="M40.98,52.907c-0.064,0-0.128-0.024-0.177-0.073c-0.098-0.098-0.098-0.256,0-0.354l9.192-9.192 c0.098-0.098,0.256-0.098,0.354,0s0.098,0.256,0,0.354l-9.192,9.192C41.108,52.883,41.044,52.907,40.98,52.907z"/><path fill="#472b29" d="M43.808,55.736c-0.064,0-0.128-0.024-0.177-0.073c-0.098-0.098-0.098-0.256,0-0.354l4.95-4.95 c0.098-0.098,0.256-0.098,0.354,0s0.098,0.256,0,0.354l-4.95,4.95C43.936,55.711,43.872,55.736,43.808,55.736z"/><path fill="#472b29" d="M50.172,49.372c-0.064,0-0.128-0.024-0.177-0.073c-0.098-0.098-0.098-0.256,0-0.354l10.607-10.606 c0.098-0.098,0.256-0.098,0.354,0s0.098,0.256,0,0.354L50.349,49.298C50.3,49.347,50.236,49.372,50.172,49.372z"/><path fill="#472b29" d="M61.486,39.472c-0.064,0-0.128-0.024-0.177-0.073c-0.098-0.098-0.098-0.256,0-0.354l3.535-3.536 c0.098-0.098,0.256-0.098,0.354,0s0.098,0.256,0,0.354l-3.535,3.536C61.614,39.448,61.551,39.472,61.486,39.472z"/><path fill="#472b29" d="M59.364,37.351c-0.064,0-0.128-0.024-0.177-0.073c-0.098-0.098-0.098-0.256,0-0.354l3.536-3.536 c0.098-0.098,0.256-0.098,0.354,0s0.098,0.256,0,0.354l-3.536,3.536C59.492,37.326,59.429,37.351,59.364,37.351z"/><path fill="#472b29" d="M64.314,32.401c-0.064,0-0.128-0.024-0.177-0.073c-0.098-0.098-0.098-0.256,0-0.354l2.828-2.829 c0.098-0.098,0.256-0.098,0.354,0s0.098,0.256,0,0.354l-2.828,2.829C64.442,32.377,64.379,32.401,64.314,32.401z"/><path fill="#472b29" d="M65.729,35.229c-0.064,0-0.128-0.024-0.177-0.073c-0.098-0.098-0.098-0.256,0-0.354l3.536-3.536 c0.098-0.098,0.256-0.098,0.354,0s0.098,0.256,0,0.354l-3.536,3.536C65.856,35.205,65.793,35.229,65.729,35.229z"/><path fill="#472b29" d="M28.959,69.171c-0.064,0-0.128-0.024-0.177-0.073c-0.098-0.098-0.098-0.256,0-0.354l4.95-4.95 c0.098-0.098,0.256-0.098,0.354,0s0.098,0.256,0,0.354l-4.95,4.95C29.087,69.146,29.023,69.171,28.959,69.171z"/><path fill="#472b29" d="M35.323,62.807c-0.064,0-0.128-0.024-0.177-0.073c-0.098-0.098-0.098-0.256,0-0.354l4.95-4.95 c0.098-0.098,0.256-0.098,0.354,0s0.098,0.256,0,0.354l-4.95,4.95C35.451,62.782,35.387,62.807,35.323,62.807z"/><path fill="#472b29" d="M33.909,57.15c-0.064,0-0.128-0.024-0.177-0.073c-0.098-0.098-0.098-0.256,0-0.354l2.829-2.829 c0.098-0.098,0.256-0.098,0.354,0s0.098,0.256,0,0.354l-2.829,2.829C34.037,57.125,33.973,57.15,33.909,57.15z"/><path fill="#472b29" d="M29.666,61.392c-0.064,0-0.128-0.024-0.177-0.073c-0.098-0.098-0.098-0.256,0-0.354l2.829-2.828 c0.098-0.098,0.256-0.098,0.354,0s0.098,0.256,0,0.354l-2.829,2.828C29.794,61.368,29.73,61.392,29.666,61.392z"/><path fill="#472b29" d="M25.423,65.635c-0.064,0-0.128-0.024-0.177-0.073c-0.098-0.098-0.098-0.256,0-0.354l2.829-2.828 c0.098-0.098,0.256-0.098,0.354,0s0.098,0.256,0,0.354L25.6,65.562C25.551,65.611,25.487,65.635,25.423,65.635z"/><g><path fill="#472b29" d="M51.587,42.301c-0.064,0-0.128-0.024-0.177-0.073c-0.098-0.098-0.098-0.256,0-0.354l2.828-2.828 c0.098-0.098,0.256-0.098,0.354,0s0.098,0.256,0,0.354l-2.828,2.828C51.715,42.276,51.651,42.301,51.587,42.301z"/></g><g><path fill="#472b29" d="M55.829,38.058c-0.064,0-0.128-0.024-0.177-0.073c-0.098-0.098-0.098-0.256,0-0.354l2.121-2.121 c0.098-0.098,0.256-0.098,0.354,0s0.098,0.256,0,0.354l-2.121,2.121C55.957,38.033,55.894,38.058,55.829,38.058z"/></g></g></svg>