<svg xmlns="http://www.w3.org/2000/svg" width="552" height="125">
    <path fill="#FFF" fill-rule="evenodd" d="M550.897 71.287l-18.998-20.388v20.388h-4.594V40.403h1.098l19.001 20.396V40.403h4.593v30.884h-1.1zM531.12 93.443h-2.612l-2.386-2.404-2.37 2.404h-2.595v-.422l3.991-3.849h1.948l4.024 3.865v.406zm-23.282-22.156l-14.485-30.884h4.073c.679 0 1.257.424 1.484 1.025l9.474 20.194 9.528-20.304c.253-.539.797-.915 1.429-.915h4.071l-14.487 30.884h-1.087zm-15.43 0c-2.104 0-3.807-1.706-3.807-3.81 0-2.112 1.703-3.81 3.807-3.81 2.103 0 3.806 1.698 3.806 3.81 0 2.104-1.703 3.81-3.806 3.81zm-22.982-60.671h9.024v60.671h-9.024V10.616zm1.681 85.699c.238 0 .465.021.681.057.217.039.395.079.536.124l-.438 2.97-1.639-.098c-.844 0-1.556.201-2.135.601-.578.402-1.024.963-1.338 1.69v12.551h-3.197V96.642h2.857l.308 2.564c.498-.909 1.111-1.616 1.842-2.126.73-.509 1.571-.765 2.523-.765zm-13.27 15.101c.34.337.792.504 1.354.504.185 0 .391-.025.618-.074.227-.048.415-.099.567-.154l.438 2.193c-.238.195-.59.355-1.054.479-.465.123-.925.186-1.38.186-1.298 0-2.331-.391-3.1-1.176-.768-.785-1.151-2.017-1.151-3.694V99.011h-2.792v-2.369h2.792v-4.24h3.196v4.24h3.327v2.369h-3.327v10.669c0 .821.171 1.402.512 1.736zm-11.163-40.129c-1.132 0-2.109-.601-2.662-1.493L425.76 45.272h-13.354v26.015h-9.026V10.616h9.026v26.018h12.612l18.455-24.79c.567-.725 1.5-1.213 2.487-1.224l9.68-.004-22.211 29.84 22.953 30.831h-9.708zm-40.335 18.94c2.628 0 4.705.7 6.231 2.102 1.525 1.404 2.265 3.187 2.223 5.352l-.033.097h-3.067c0-1.44-.465-2.639-1.395-3.597-.931-.957-2.25-1.436-3.959-1.436-1.807 0-3.262.675-4.366 2.028-1.103 1.354-1.655 3.07-1.655 5.147v4.905c0 2.1.584 3.828 1.752 5.187 1.169 1.36 2.662 2.037 4.48 2.037 1.394 0 2.501-.18 3.317-.543.818-.361 1.426-.794 1.826-1.291v-5.325h-5.354v-2.501h8.551v8.638c-.562.876-1.539 1.683-2.93 2.42-1.389.736-3.194 1.103-5.41 1.103-2.727 0-4.982-.902-6.768-2.712-1.785-1.807-2.677-4.145-2.677-7.013v-4.872c0-2.869.86-5.206 2.58-7.013 1.72-1.808 3.938-2.713 6.654-2.713zm-26.815-20.738l-6.108-13.019h-25.212l-6.007 12.804c-.448 1.177-1.579 2.013-2.909 2.013h-8.004l28.456-60.671h2.132l28.452 60.671h-7.988c-1.248-.005-2.315-.739-2.812-1.798zm-18.718-39.89l-8.551 18.237h17.106l-8.555-18.237zM334.895 103.2v11.01h-3.196v-11.042c0-1.451-.311-2.522-.933-3.215-.622-.692-1.549-1.039-2.783-1.039-.952 0-1.78.186-2.482.56-.704.373-1.271.897-1.704 1.568v13.168H320.6V88.881h3.197v10.114c.605-.844 1.349-1.501 2.231-1.972.882-.47 1.858-.708 2.928-.708 1.873 0 3.33.564 4.375 1.69 1.043 1.126 1.564 2.858 1.564 5.195zm-19.499-60.476c2.451.965 4.2 3.343 4.2 6.139 0 .028-.032 1.521-.119 2.304-.089.86-.316 2.138-.318 2.158-2.042 10.241-11.068 17.962-21.899 17.962-10.727 0-19.678-7.571-21.829-17.657l6.495-1.761.009.004c1.443-.324 2.512.633 2.834 1.607 1.863 5.112 6.751 8.775 12.491 8.775 6.189 0 11.389-4.256 12.869-9.997 0 0 .421-1.898-1.356-2.775-6.593-2.438-29.883-11.064-29.892-11.076-2.315-1.022-3.932-3.331-3.932-6.029 0-.142.01-.471.01-.475.016-.288.04-.584.065-.876.022-.187.032-.377.048-.568.063-.491.136-.974.228-1.452 1.869-10.452 10.977-18.391 21.96-18.391 10.558 0 19.378 7.339 21.71 17.186l-6.337 1.647c-.248.061-2.18.596-3.094-1.586-2.003-4.82-6.747-8.216-12.279-8.216-5.983 0-11.039 3.98-12.704 9.429-.249 1.123.315 2.328 1.377 2.742l29.463 10.906zm-37.344 55.257c1.038 1.109 1.557 2.822 1.557 5.138v11.091h-3.196v-11.026c0-1.548-.306-2.645-.917-3.296-.611-.65-1.544-.974-2.799-.974-.984 0-1.82.199-2.507.592-.687.396-1.231.952-1.631 1.666v13.038h-3.197V96.642h2.857l.227 2.613c.583-.932 1.317-1.653 2.198-2.167.882-.515 1.884-.773 3.01-.773 1.893 0 3.359.556 4.398 1.666zm-17.449 2.264c.379.716.668 1.497.869 2.347.199.85.3 1.74.3 2.671v.358c0 2.618-.704 4.763-2.11 6.428-1.407 1.668-3.321 2.501-5.744 2.501-2.424 0-4.341-.835-5.753-2.509-1.412-1.672-2.117-3.812-2.117-6.42v-.358c0-2.598.702-4.738 2.109-6.422 1.406-1.684 3.316-2.526 5.729-2.526 1.102 0 2.114.191 3.033.57.92.378 1.726.909 2.419 1.591.886-.195 1.547-.649 1.98-1.363.431-.714.648-1.636.648-2.761h2.888c0 1.548-.36 2.83-1.078 3.848-.72 1.018-1.777 1.7-3.173 2.045zm-2.028 5.018c0-1.84-.398-3.371-1.193-4.594-.795-1.224-1.961-1.836-3.496-1.836-1.526 0-2.681.612-3.465 1.836-.785 1.223-1.177 2.754-1.177 4.594v.358c0 1.861.392 3.397 1.177 4.611.784 1.213 1.949 1.817 3.497 1.817 1.525 0 2.682-.604 3.473-1.817.788-1.214 1.184-2.75 1.184-4.611v-.358zm-6.144-35.774l-6.104-13.019h-25.212l-6.009 12.804c-.448 1.177-1.577 2.013-2.909 2.013h-7.998l28.451-60.671h2.133l28.453 60.671h-7.989c-1.249-.005-2.315-.739-2.816-1.798zm-18.71-39.89l-8.556 18.237h17.109l-8.553-18.237zm-27.854 62.803v4.24h3.327v2.369h-3.327v10.669c0 .821.171 1.402.512 1.736.341.337.792.504 1.354.504.185 0 .39-.025.618-.074.227-.048.415-.099.567-.154l.438 2.193c-.238.195-.59.355-1.054.479-.465.123-.926.186-1.38.186-1.298 0-2.331-.391-3.1-1.176-.768-.785-1.151-2.017-1.151-3.694V99.011h-2.792v-2.369h2.792v-4.24h3.196zm-10.794-1.753l2.271-4.221h3.424l-3.31 4.221h-2.385zm1.086 2.859h-3.212l-2.71-2.55-2.71 2.55h-3.23l-.032-.097 4.69-4.174h2.564l4.673 4.174-.033.097zm-14.046-48.236h-28.115v26.015h-9.028V10.616h9.028v26.018h28.115V10.616h9.03v60.671h-9.03V45.272zM153.36 90.227c2.671 0 4.797.713 6.377 2.135 1.58 1.423 2.347 3.31 2.304 5.66l-.032.097h-3.067c0-1.656-.487-2.966-1.46-3.93-.974-.963-2.348-1.444-4.122-1.444-1.785 0-3.208.72-4.268 2.158-1.061 1.441-1.59 3.226-1.59 5.358v4.239c0 2.153.529 3.95 1.59 5.391 1.06 1.44 2.483 2.158 4.268 2.158 1.774 0 3.148-.478 4.122-1.436.973-.958 1.46-2.28 1.46-3.97h3.067l.032.097c.043 2.22-.735 4.076-2.336 5.571-1.602 1.493-3.716 2.239-6.345 2.239-2.673 0-4.849-.947-6.532-2.842-1.681-1.892-2.523-4.296-2.523-7.208v-4.207c0-2.911.842-5.317 2.523-7.215 1.683-1.901 3.859-2.851 6.532-2.851zm-90.9 34.769C27.965 124.996 0 97.01 0 62.495 0 27.976 27.965-.002 62.46-.002c34.495 0 62.456 27.978 62.456 62.497 0 34.515-27.961 62.501-62.456 62.501zm0-118.699c-30.969 0-56.167 25.213-56.167 56.198s25.198 56.2 56.167 56.2c30.965 0 56.169-25.215 56.169-56.2 0-30.985-25.204-56.198-56.169-56.198zm6.516 81.787l-.004.004V67.485H55.928v20.623c0 8.897-7.209 16.115-16.093 16.115-10.552 0-17.411-9.859-17.411-18.367 0-10.033 8.043-18.172 18.017-18.363v5.895c-4.667.633-8.397 4.581-8.397 9.985 0 3.765 3.041 6.954 6.951 6.954 3.839 0 6.946-3.124 6.946-6.958V41.645v-.021c0-3.838-3.107-6.958-6.946-6.958-3.91 0-6.951 3.185-6.951 6.958 0 5.401 3.73 9.344 8.397 9.977V57.5c-9.974-.191-18.017-8.329-18.017-18.363 0-8.508 6.859-18.363 17.411-18.363 8.884 0 16.093 7.21 16.093 16.112V57.504h13.044V36.91h.004c0-.012-.004-.02-.004-.024 0-8.902 7.209-16.112 16.107-16.112 10.546 0 17.403 9.855 17.403 18.363 0 10.034-8.035 18.172-18.021 18.363v-5.899c4.667-.633 8.403-4.576 8.403-9.977 0-3.773-3.049-6.958-6.944-6.958-3.844 0-6.952 3.12-6.952 6.958v41.745c0 3.834 3.108 6.958 6.952 6.958 3.895 0 6.944-3.189 6.944-6.954 0-5.404-3.736-9.352-8.403-9.985v-5.895c9.986.191 18.021 8.33 18.021 18.363 0 8.508-6.857 18.367-17.403 18.367-8.898 0-16.107-7.218-16.107-16.115 0-.008.004-.016.004-.024zm99.48 10.911c.605-.844 1.349-1.501 2.231-1.972.882-.47 1.858-.708 2.928-.708 1.873 0 3.33.564 4.374 1.69 1.043 1.126 1.566 2.858 1.566 5.195v11.01h-3.197v-11.042c0-1.451-.311-2.522-.933-3.215-.623-.692-1.549-1.039-2.783-1.039-.952 0-1.78.186-2.483.56-.703.373-1.27.897-1.703 1.568v13.168h-3.197V88.881h3.197v10.114zm22.154 4.919h3.472v-1.736c0-1.028-.313-1.844-.941-2.444-.627-.601-1.514-.901-2.66-.901-1.04 0-1.878.259-2.516.779-.638.519-.957 1.142-.957 1.868l-3.035.033-.032-.098c-.076-1.278.521-2.446 1.793-3.507 1.271-1.061 2.913-1.593 4.925-1.593 1.99 0 3.592.508 4.803 1.52 1.211 1.012 1.817 2.471 1.817 4.375v8.46c0 .629.033 1.233.098 1.819.064.585.183 1.159.356 1.721h-3.293c-.109-.53-.193-.999-.252-1.404-.059-.406-.095-.816-.106-1.227-.595.845-1.371 1.551-2.328 2.119-.957.568-1.988.852-3.091.852-1.828 0-3.221-.468-4.178-1.403-.958-.938-1.437-2.228-1.437-3.873 0-1.678.679-2.99 2.037-3.937 1.357-.948 3.199-1.423 5.525-1.423zm-3.634 7.275c.486.455 1.206.682 2.157.682 1.158 0 2.202-.296 3.133-.893.929-.594 1.535-1.276 1.816-2.045v-2.858h-3.585c-1.288 0-2.319.325-3.092.974-.773.649-1.161 1.414-1.161 2.29 0 .779.245 1.396.732 1.85zm36.361 3.021h-3.198V88.881h3.198v25.329zm7.55-7.178c0 1.873.276 3.161.828 3.865.551.704 1.411 1.055 2.579 1.055 1.137 0 2.075-.229 2.816-.69.741-.458 1.301-1.111 1.68-1.956V96.642h3.196v1.85l.097.032c1.082-.075 1.853-.46 2.314-1.152.459-.693.689-1.722.689-3.085h2.742l.048.097c.033 1.915-.429 3.394-1.386 4.432-.958 1.039-2.459 1.636-4.504 1.788v13.606h-2.872l-.211-2.599c-.551.943-1.261 1.668-2.125 2.177-.866.509-1.866.762-3.003.762-1.915 0-3.408-.61-4.478-1.834-1.072-1.223-1.607-3.128-1.607-5.716V96.642h3.197v10.39zm24.8 12.795h-3.538v-3.246h3.538v3.246zm34.36-23.512c1.114 0 2.093.226 2.938.676.843.448 1.551 1.096 2.125 1.939l.389-2.288h2.548v17.665c0 2.252-.654 3.98-1.964 5.187-1.308 1.207-3.196 1.812-5.662 1.812-.844 0-1.756-.118-2.735-.349-.979-.233-1.842-.55-2.588-.952l.487-2.483c.616.325 1.36.586 2.231.787.871.201 1.728.301 2.573.301 1.557 0 2.69-.356 3.398-1.063.709-.711 1.064-1.79 1.064-3.24v-1.996c-.574.734-1.261 1.292-2.061 1.671-.801.38-1.726.568-2.776.568-2.141 0-3.815-.776-5.021-2.331-1.206-1.551-1.809-3.594-1.809-6.128v-.341c0-2.826.603-5.104 1.809-6.836 1.206-1.732 2.891-2.599 5.054-2.599zm-3.667 9.776c0 1.765.362 3.183 1.087 4.254.725 1.071 1.844 1.607 3.359 1.607.962 0 1.769-.219 2.418-.658.649-.438 1.185-1.056 1.607-1.858v-8.086c-.412-.746-.947-1.341-1.607-1.779-.66-.438-1.456-.657-2.385-.657-1.526 0-2.654.633-3.384 1.901-.729 1.266-1.095 2.911-1.095 4.935v.341zm24.772-13.689h3.196v4.24h3.327v2.369h-3.327v10.669c0 .821.172 1.402.513 1.736.34.337.791.504 1.354.504.184 0 .39-.025.617-.074.227-.048.416-.099.568-.154l.438 2.193c-.239.195-.59.355-1.055.479-.465.123-.925.186-1.379.186-1.299 0-2.332-.391-3.1-1.176-.768-.785-1.152-2.017-1.152-3.694V99.011h-2.791v-2.369h2.791v-4.24zm34.524-1.363l-2.37 2.404h-2.596v-.422l3.992-3.849h1.947l4.024 3.865v.406h-2.612l-2.385-2.404zm.276 12.875h3.471v-1.736c0-1.028-.313-1.844-.94-2.444-.628-.601-1.515-.901-2.661-.901-1.039 0-1.878.259-2.516.779-.638.519-.957 1.142-.957 1.868l-3.035.033-.032-.098c-.075-1.278.522-2.446 1.793-3.507s2.913-1.593 4.925-1.593c1.99 0 3.592.508 4.803 1.52 1.211 1.012 1.818 2.471 1.818 4.375v8.46c0 .629.032 1.233.097 1.819.064.585.183 1.159.357 1.721h-3.294c-.108-.53-.192-.999-.252-1.404-.059-.406-.094-.816-.106-1.227-.594.845-1.37 1.551-2.328 2.119-.957.568-1.988.852-3.091.852-1.828 0-3.221-.468-4.178-1.403-.958-.938-1.437-2.228-1.437-3.873 0-1.678.679-2.99 2.037-3.937 1.357-.948 3.199-1.423 5.526-1.423zm-3.636 7.275c.487.455 1.207.682 2.159.682 1.157 0 2.201-.296 3.132-.893.929-.594 1.536-1.276 1.816-2.045v-2.858h-3.585c-1.288 0-2.318.325-3.092.974-.773.649-1.16 1.414-1.16 2.29 0 .779.244 1.396.73 1.85zm4.349 8.492h-3.537v-3.246h3.537v3.246zm11.348-27.279h3.196v4.24h3.327v2.369h-3.327v10.669c0 .821.172 1.402.512 1.736.341.337.792.504 1.355.504.184 0 .39-.025.617-.074.227-.048.415-.099.567-.154l.438 2.193c-.238.195-.59.355-1.054.479-.465.123-.926.186-1.38.186-1.298 0-2.331-.391-3.099-1.176-.769-.785-1.152-2.017-1.152-3.694V99.011h-2.791v-2.369h2.791v-4.24zm27.173 13.073h-9.575v-2.502h9.575v2.502zm37.742-13.332h-3.198v-3.262h3.198v3.262zm0 22.067h-3.198V96.642h3.198v17.568zm9.642-20.702l3.002-4.319h3.732l.033.097-4.365 4.222h-2.402zm1.737 10.406h3.472v-1.736c0-1.028-.314-1.844-.941-2.444-.628-.601-1.514-.901-2.661-.901-1.039 0-1.877.259-2.516.779-.638.519-.957 1.142-.957 1.868l-3.035.033-.032-.098c-.075-1.278.522-2.446 1.793-3.507s2.913-1.593 4.925-1.593c1.99 0 3.592.508 4.803 1.52 1.212 1.012 1.817 2.471 1.817 4.375v8.46c0 .629.033 1.233.098 1.819.065.585.183 1.159.357 1.721h-3.293c-.109-.53-.193-.999-.253-1.404-.059-.406-.094-.816-.105-1.227-.595.845-1.371 1.551-2.329 2.119-.957.568-1.988.852-3.091.852-1.828 0-3.221-.468-4.178-1.403-.958-.938-1.436-2.228-1.436-3.873 0-1.678.678-2.99 2.036-3.937 1.358-.948 3.199-1.423 5.526-1.423zm-3.635 7.275c.486.455 1.206.682 2.158.682 1.157 0 2.201-.296 3.132-.893.929-.594 1.536-1.276 1.817-2.045v-2.858h-3.586c-1.288 0-2.318.325-3.091.974-.774.649-1.161 1.414-1.161 2.29 0 .779.244 1.396.731 1.85zm44.301-22.308h3.197v3.262h-3.197v-3.262zm3.197 25.329h-3.197V96.642h3.197v17.568zm.178 5.309h-3.537v-3.246h3.537v3.246zm13.251-27.117h3.196v4.24h3.327v2.369h-3.327v10.669c0 .821.171 1.402.512 1.736.341.337.792.504 1.354.504.185 0 .391-.025.618-.074.227-.048.415-.099.567-.154l.438 2.193c-.238.195-.59.355-1.054.479-.465.123-.926.186-1.38.186-1.298 0-2.331-.391-3.099-1.176-.769-.785-1.152-2.017-1.152-3.694V99.011h-2.792v-2.369h2.792v-4.24zm12.646 6.593c.605-.844 1.349-1.501 2.231-1.972.882-.47 1.858-.708 2.928-.708 1.872 0 3.33.564 4.374 1.69 1.043 1.126 1.565 2.858 1.565 5.195v11.01h-3.196v-11.042c0-1.451-.311-2.522-.933-3.215-.623-.692-1.55-1.039-2.783-1.039-.952 0-1.78.186-2.483.56-.703.373-1.271.897-1.703 1.568v13.168h-3.197V88.881h3.197v10.114zm22.153 4.919h3.472v-1.736c0-1.028-.313-1.844-.941-2.444-.627-.601-1.514-.901-2.661-.901-1.039 0-1.877.259-2.516.779-.637.519-.956 1.142-.956 1.868l-3.035.033-.033-.098c-.075-1.278.522-2.446 1.793-3.507 1.272-1.061 2.914-1.593 4.926-1.593 1.99 0 3.591.508 4.803 1.52 1.211 1.012 1.817 2.471 1.817 4.375v8.46c0 .629.033 1.233.098 1.819.064.585.183 1.159.356 1.721h-3.293c-.108-.53-.193-.999-.253-1.404-.059-.406-.094-.816-.105-1.227-.595.845-1.37 1.551-2.329 2.119-.956.568-1.987.852-3.09.852-1.829 0-3.221-.468-4.179-1.403-.957-.938-1.436-2.228-1.436-3.873 0-1.678.678-2.99 2.037-3.937 1.357-.948 3.199-1.423 5.525-1.423zm-3.635 7.275c.487.455 1.207.682 2.158.682 1.158 0 2.202-.296 3.133-.893.929-.594 1.535-1.276 1.816-2.045v-2.858h-3.585c-1.289 0-2.318.325-3.092.974-.773.649-1.161 1.414-1.161 2.29 0 .779.245 1.396.731 1.85zm4.349 8.492h-3.538v-3.246h3.538v3.246zm11.348-27.279h3.196v4.24h3.327v2.369h-3.327v10.669c0 .821.171 1.402.512 1.736.34.337.791.504 1.354.504.184 0 .39-.025.618-.074.226-.048.415-.099.567-.154l.438 2.193c-.238.195-.59.355-1.054.479-.466.123-.926.186-1.38.186-1.298 0-2.331-.391-3.1-1.176-.768-.785-1.151-2.017-1.151-3.694V99.011h-2.792v-2.369h2.792v-4.24zm13.099 14.046h-3.197v-15.88h3.197v15.88zm.017 7.762h-3.214v-3.313h3.214v3.313z"/>
</svg>
