<svg width="46" height="29" viewBox="0 0 46 29" fill="none" xmlns="http://www.w3.org/2000/svg">
<g clip-path="url(#clip0_4437_15581)">
<path d="M43.0666 0.5H2.3666C1.1666 0.5 0.266602 1.5 0.266602 2.7V26.2C0.266602 27.4 1.1666 28.5 2.3666 28.5H43.0666C44.1666 28.5 45.1666 27.5 45.1666 26.3V2.7C45.2666 1.5 44.2666 0.5 43.0666 0.5Z" fill="#999999"/>
<path d="M15.4668 25.1L14.8668 23.5H11.5668L10.9668 25.1H7.9668L11.7668 16.1H14.7668L18.6668 25.1H15.4668Z" fill="white"/>
<path d="M26.1668 18.4H23.5668V25.1H20.5668V18.4H17.9668V16.1H26.1668V18.4Z" fill="white"/>
<path d="M34.7666 25.1V21L32.8666 24.3H31.4666L29.4666 21.1V25H26.7666V16H29.2666L32.1666 20.8L34.9666 16H37.4666V25H34.7666V25.1Z" fill="white"/>
<path d="M43.367 3.80005H2.16699V11.5H43.367V3.80005Z" fill="white"/>
</g>
<defs>
<clipPath id="clip0_4437_15581">
<rect width="45" height="28" fill="white" transform="translate(0.266602 0.5)"/>
</clipPath>
</defs>
</svg>
