<svg xmlns="http://www.w3.org/2000/svg" width="287" height="46">
    <path fill="#FFF" fill-rule="evenodd" d="M269.229 38.635V7.117h8.225v24.449h9.539v7.069h-17.764zm-14.004-4.553h-11.177l-1.699 4.553h-8.839l12.918-31.518h6.482l12.812 31.518h-8.924l-1.573-4.553zm-5.482-17.153h-.126l-3.315 10.77h6.756l-3.315-10.77zm-36.675-9.812h17.892v7.068h-10.008v4.908h9.689v7.067h-9.689v5.406h10.008v7.069h-17.892V7.117zm-21.46 31.518h-11.261V7.117h10.666c1.587 0 2.975.077 4.165.228 1.388.18 2.642.472 3.76.874 2.507.886 4.605 2.481 6.29 4.782 1.983 2.689 2.974 5.952 2.974 9.792 0 10.562-5.531 15.842-16.594 15.842zm8.371-15.717c0-2.647-.623-4.727-1.868-6.238-1.361-1.662-3.352-2.495-5.972-2.495h-3.569v17.381h3.527c2.69 0 4.701-.804 6.033-2.411 1.232-1.47 1.849-3.548 1.849-6.237zm-45.28 3.119h-10.541v12.598h-8.222V7.117h8.222v11.85h10.541V7.117h8.223v31.518h-8.223V26.037zm-33.595-6.987l3.4 1.497c1.19.527 2.181 1.033 2.974 1.519.964.582 1.757 1.198 2.38 1.85 1.446 1.496 2.168 3.381 2.168 5.654 0 3.16-1.076 5.592-3.23 7.297-1.983 1.582-4.647 2.372-7.99 2.372-3.413 0-6.162-.833-8.243-2.495-2.253-1.774-3.379-4.285-3.379-7.526v-1.019h8.18c0 1.163.263 2.14.786 2.932.597.913 1.452 1.372 2.572 1.372 2.083 0 3.123-1.006 3.123-3.015 0-.915-.361-1.656-1.084-2.224-.283-.224-.651-.445-1.104-.667l-.617-.29-3.505-1.478c-1.162-.47-2.162-.948-2.997-1.434-.992-.567-1.827-1.184-2.508-1.851-1.572-1.565-2.358-3.478-2.358-5.736 0-2.787 1.19-5.067 3.57-6.84 2.181-1.623 4.745-2.433 7.692-2.433 1.659 0 3.243.29 4.76.873 1.644.637 2.96 1.538 3.952 2.703 1.332 1.608 2.041 3.68 2.125 6.216h-8.139c-.31-2.052-1.296-3.077-2.953-3.077-1.884 0-2.826.825-2.826 2.473 0 .583.099 1.027.297 1.331.326.541 1.312 1.206 2.954 1.996zM97.986 34.082H86.809l-1.699 4.553H58.591V7.117h8.225v24.449h9.539v6.863L89.189 7.117h6.482l12.812 31.518h-8.924l-1.573-4.553zm-5.482-17.153h-.127l-3.315 10.77h6.757l-3.315-10.77zm-48.256 2.62h9.349v7.07h-9.349v12.016h-7.884V7.117h17.574v7.068h-9.69v5.364zm-22.751.832L6.506 45.027l.709-18.072-7.219.262L5.723.02l16.068.911-8.509 19.152 8.215.298z"/>
</svg>
