<svg xmlns="http://www.w3.org/2000/svg" width="43" height="39">
    <path fill="#333" fill-rule="evenodd" d="M32.986 38.978H6.306V18.293h36.685V38.978H32.986zm7.338-13.683l-1.089-1.039c-.139.026-.266.078-.412.078-1.196 0-2.165-.923-2.165-2.063 0-.14.056-.263.083-.395l-1.087-1.038h-22.01l-1.09 1.04c.028.132.083.253.083.393 0 1.14-.967 2.065-2.162 2.065-.147 0-.275-.053-.414-.08l-1.088 1.038v6.681l1.09 1.039c.138-.025.265-.078.412-.078 1.195 0 2.164.923 2.164 2.064 0 .14-.055.262-.083.394l1.088 1.039h22.009l1.09-1.04c-.028-.132-.083-.253-.083-.393 0-1.141.967-2.065 2.163-2.065.146 0 .275.053.413.079l1.088-1.038v-6.681zm-4.836 5.404c-1.196 0-2.165-.923-2.165-2.064 0-1.14.969-2.063 2.165-2.063 1.195 0 2.164.923 2.164 2.063 0 1.141-.969 2.064-2.164 2.064zm-10.839 3.369c-3.616 0-6.547-2.432-6.547-5.433 0-3 2.931-5.432 6.547-5.432 3.615 0 6.546 2.432 6.546 5.432 0 3.001-2.931 5.433-6.546 5.433zM13.81 30.699c-1.195 0-2.164-.923-2.164-2.064 0-1.14.969-2.063 2.164-2.063 1.195 0 2.164.923 2.164 2.063 0 1.141-.969 2.064-2.164 2.064zm15.973-19.98c1.046-.548 2.361-.181 2.936.818.573 1 .189 2.256-.86 2.803-1.048.55-2.363.183-2.936-.817-.575-1.001-.192-2.256.86-2.804zm-2.726 3.779c.257.448.402.923.498 1.408H15.494c.587-1.266 1.633-2.415 3.086-3.172 3.17-1.657 6.964-.868 8.477 1.764zm7.869 1.408c.171-.463.496-.879.985-1.134.129-.067.269-.081.4-.12l.432-1.409-3.363-5.858-1.478-.413c-.106.087-.192.191-.319.257-1.051.549-2.365.184-2.938-.818-.072-.123-.086-.257-.129-.384l-1.475-.41L7.736 15.703l-.062.203H6.306c-1.381 0-2.501 1.069-2.501 2.387v5.137L.019 16.832l8.775-4.585 14.627-7.642h-.002L32.196.02l4.808 8.372h-.002l4.312 7.514h-6.388z"/>
</svg>
