<svg xmlns="http://www.w3.org/2000/svg" width="28" height="28">
    <path fill="#FFF" fill-rule="evenodd" d="M14.461 27.971C7.003 27.971.956 21.925.956 14.467.956 7.008 7.003.962 14.461.962c7.459 0 13.505 6.046 13.505 13.505 0 7.458-6.046 13.504-13.505 13.504zm7.947-18.364c0-1.163-.93-2.107-2.072-2.107H8.585c-1.141 0-2.07.944-2.07 2.107v8.852c0 1.162.929 2.107 2.07 2.107h1.063v2.361c0 .19.11.363.283.446.071.034.146.05.222.05.11 0 .219-.036.31-.104l3.584-2.753h6.289c1.142 0 2.072-.945 2.072-2.107V9.607zm-4.946 5.263c-.552 0-1.001-.441-1.001-.986 0-.543.449-.984 1.001-.984.553 0 1 .441 1 .984 0 .545-.447.986-1 .986zm-3.004 0c-.551 0-1-.441-1-.986 0-.543.449-.984 1-.984.554 0 1.001.441 1.001.984 0 .545-.447.986-1.001.986zm-2.997 0c-.553 0-1.001-.441-1.001-.986 0-.543.448-.984 1.001-.984.552 0 1 .441 1 .984 0 .545-.448.986-1 .986z"/>
</svg>
