<svg xmlns="http://www.w3.org/2000/svg" width="41" height="42">
    <path fill="#333" fill-rule="evenodd" d="M40.423 25.884l-.866.9-5.646-5.793.867-.898a1.947 1.947 0 0 1 2.806.016l2.825 2.895c.779.801.785 2.09.014 2.88zm-2.912 3.25l-5.891-6.043 1.347-1.297 5.892 6.044-1.348 1.296zm-4.69-2.959l1.541 1.584.01-.01 2.287 2.346-9.407 9.564a.799.799 0 0 1-.383.27l-6.708 2.021a.824.824 0 0 1-.824-.216.871.871 0 0 1-.21-.846l1.968-6.879c.05-.175.16-.31.288-.417l9.385-9.541 2.061 2.115-.008.009zm-7.488 11.717l-.122-2.215-2.217-.187-.453-.464-1.059 3.701.785.806 3.609-1.086-.543-.555zm-3.119-16.181c-.996 3.108.599 3.846.851 3.93.398.136.801.282 1.203.434l-5.041 5.124a4.085 4.085 0 0 0-1.179 1.9l-1.966 6.872c-.182.634-.182 1.286-.068 1.912C8.06 41.757.001 40.53.001 36.007v-1.32c0-3.521 6.188-7.089 11.464-9.046.381-.143 2.202-1.16 1.184-3.901-2.613-2.738-4.587-7.173-4.587-11.539C8.062 3.514 12.371.01 17.411.01c5.037 0 9.372 3.504 9.372 10.191 0 4.348-1.985 8.766-4.583 11.51h.014z"/>
</svg>
