<svg xmlns="http://www.w3.org/2000/svg" width="397" height="119">
    <path fill="#818285" fill-rule="evenodd" d="M396.789 86.252h-22.671c.135 7.966 5.202 11.247 11.069 11.247 4.2 0 6.735-.737 8.936-1.674l.999 4.217c-2.066.938-5.601 2.009-10.736 2.009-9.934 0-15.868-6.56-15.868-16.335 0-9.774 5.735-17.471 15.136-17.471 10.535 0 13.335 9.304 13.335 15.262 0 1.206-.134 2.143-.2 2.745zm-13.602-13.79c-5.934 0-8.535 5.489-9.001 9.572h17.135c.067-3.748-1.533-9.572-8.134-9.572zm-27.406 8.903c-.133.804-.266 1.741-.266 2.746v17.27h-5.802V79.09c0-3.816-.066-7.097-.266-10.11h5.134l.2 6.36h.267c1.467-4.351 5.001-7.095 8.935-7.095.666 0 1.133.066 1.667.2v5.557c-.601-.135-1.201-.201-2.001-.201-4.134 0-7.068 3.146-7.868 7.564zm-29.54 20.753c-8.734 0-15.469-6.427-15.469-16.669 0-10.845 7.067-17.204 16.002-17.204 9.267 0 15.536 6.761 15.536 16.667 0 11.984-8.269 17.206-16.069 17.206zm.4-29.455c-6.935 0-9.935 6.427-9.935 12.584 0 7.097 4.067 12.453 9.801 12.453 5.601 0 9.801-5.289 9.801-12.587 0-5.488-2.733-12.45-9.667-12.45zm-28.14 18.275c0 4.017 1.134 6.293 4.401 6.293 1.534 0 2.667-.201 3.401-.402l.267 4.419c-1.134.468-2.935.803-5.201.803-2.735 0-4.935-.87-6.334-2.478-1.668-1.74-2.268-4.618-2.268-8.434V73.465h-5.001V68.98h5.001v-7.765l5.734-1.539v9.304h8.402v4.485h-8.402v17.473zm-14.604-1.875c0 6.962-5.135 12.988-15.736 12.988-4.334 0-9.069-1.272-11.469-2.879l1.467-4.887c2.6 1.607 6.402 2.946 10.401 2.946 5.935 0 9.402-3.147 9.402-7.699 0-4.218-2.399-6.627-8.468-8.971-7.334-2.61-11.868-6.426-11.868-12.786 0-7.028 5.8-12.251 14.534-12.251 4.602 0 7.936 1.072 9.936 2.21l-1.6 4.753c-1.468-.803-4.469-2.142-8.535-2.142-6.134 0-8.468 3.681-8.468 6.761 0 4.218 2.734 6.293 8.936 8.703 7.6 2.946 11.468 6.627 11.468 13.254zm-61.346 13.055c-4.267 0-8.002-1.875-9.935-5.088h-.133v17.605h-5.801V79.558c0-4.152-.134-7.499-.266-10.578h5.266l.267 5.556h.133c2.401-3.949 6.202-6.291 11.469-6.291 7.802 0 13.669 6.627 13.669 16.468 0 11.648-7.067 17.405-14.669 17.405zm-.8-29.187c-4 0-7.735 2.878-8.869 7.296-.199.737-.399 1.607-.399 2.41v5.556c0 .87.133 1.674.267 2.409 1.066 4.084 4.6 6.897 8.801 6.897 6.201 0 9.802-5.088 9.802-12.518 0-6.494-3.401-12.05-9.602-12.05zm-37.142 29.187c-4.267 0-8.001-1.875-9.935-5.088h-.133v17.605h-5.8V79.558c0-4.152-.134-7.499-.267-10.578h5.267l.267 5.556h.133c2.401-3.949 6.201-6.291 11.469-6.291 7.801 0 13.669 6.627 13.669 16.468 0 11.648-7.069 17.405-14.67 17.405zm-.8-29.187c-4 0-7.735 2.878-8.868 7.296-.2.737-.4 1.607-.4 2.41v5.556c0 .87.133 1.674.267 2.409 1.066 4.084 4.6 6.897 8.801 6.897 6.202 0 9.802-5.088 9.802-12.518 0-6.494-3.4-12.05-9.602-12.05zm-32.276 14.258h-15.935l-4.667 14.192h-6.002l15.27-45.119h7.001l15.335 45.119h-6.201l-4.801-14.192zm-5.6-17.54c-1-2.945-1.667-5.623-2.333-8.233h-.134c-.667 2.677-1.4 5.422-2.267 8.168l-4.401 13.053h13.536l-4.401-12.988zm-52.405 32.074c-4.957 7.577-11.941 17.008-20.594 17.087-7.693.071-9.667-5.024-20.103-4.967-10.437.056-12.617 5.056-20.309 4.986-8.654-.08-15.272-8.598-20.23-16.171-13.858-21.182-15.305-46.036-6.76-59.25 6.076-9.392 15.655-14.889 24.666-14.889 9.173 0 14.939 5.052 22.524 5.052 7.356 0 11.841-5.059 22.445-5.059 8.015 0 16.509 4.382 22.563 11.96-19.83 10.909-16.609 39.346 3.427 46.947-2.758 6.14-4.078 8.879-7.629 14.304zM49.015 29.278c-1.255-6.859 1.966-13.916 5.867-18.676C59.183 5.361 66.546 1.34 72.839.905c1.063 7.166-1.867 14.18-5.717 19.144-4.128 5.321-11.236 9.442-18.107 9.229z"/>
</svg>
