<svg xmlns="http://www.w3.org/2000/svg" viewBox="0 0 100 100"><path fill="#fff" d="M21.8 56.5A.9.9 0 1 0 21.8 58.3.9.9 0 1 0 21.8 56.5zM81 31.8A.7.7 0 1 0 81 33.2.7.7 0 1 0 81 31.8z"/><path fill="#f1bc19" d="M78.4 12.5A.9.9 0 1 0 78.4 14.3.9.9 0 1 0 78.4 12.5zM22.3 64.19999999999999A.9.9 0 1 0 22.3 66 .9.9 0 1 0 22.3 64.19999999999999z"/><path fill="#fce0a2" d="M51.2 13.200000000000003A37.5 37.5 0 1 0 51.2 88.2A37.5 37.5 0 1 0 51.2 13.200000000000003Z"/><path fill="#f1bc19" d="M83.8 11.6A4 4 0 1 0 83.8 19.6A4 4 0 1 0 83.8 11.6Z"/><path fill="#00a5a5" d="M13.7 27.3A1.9 1.9 0 1 0 13.7 31.099999999999998A1.9 1.9 0 1 0 13.7 27.3Z"/><path fill="#fbcd59" d="M78.8 75.3A1.9 1.9 0 1 0 78.8 79.10000000000001 1.9 1.9 0 1 0 78.8 75.3zM37.1 79.5A4 4 0 1 0 37.1 87.5 4 4 0 1 0 37.1 79.5z"/><path fill="#00a5a5" d="M27.4 84.69999999999999A1.9 1.9 0 1 0 27.4 88.5A1.9 1.9 0 1 0 27.4 84.69999999999999Z"/><path fill="#fff" d="M11.8 40.300000000000004A1.8 1.8 0 1 0 11.8 43.9 1.8 1.8 0 1 0 11.8 40.300000000000004zM58.8 77.7A2.6 2.6 0 1 0 58.8 82.89999999999999 2.6 2.6 0 1 0 58.8 77.7z"/><path fill="#fdfcef" d="M64.1,33.7c0-5-5.4-9-12.1-9s-12,4-12,9s5.4,9,12.1,9h1.5c1.7,1.6,3.9,2.6,6.2,2.9 c0.4,0.1,0.7-0.2,0.7-0.6c0-0.1,0-0.3-0.1-0.4c-0.6-1.3-0.8-2.6-0.8-4l0,0C62.5,39,64.1,36.4,64.1,33.7"/><path fill="#472b29" d="M59.9,46.2c-0.1,0-0.1,0-0.2,0c-2.4-0.3-4.5-1.3-6.3-2.9h-1.3c-6.9,0-12.6-4.3-12.6-9.5 c0-5.2,5.6-9.5,12.5-9.5c6.9,0,12.5,4.2,12.6,9.4c0,0,0,0.1,0,0.1c0,2.9-1.6,5.5-4.5,7.3c0,1.2,0.3,2.4,0.8,3.5 C61,44.7,61,45,61,45.2C60.9,45.8,60.4,46.2,59.9,46.2z M52,25.2c-6.4,0-11.5,3.8-11.5,8.5c0,4.7,5.2,8.5,11.6,8.5h1.5 c0.1,0,0.2,0,0.3,0.1c1.7,1.5,3.7,2.5,5.9,2.8c0.1,0,0.2,0,0.2-0.1c0,0,0-0.1,0-0.1c-0.6-1.3-0.9-2.7-0.9-4.2 c0-0.2,0.1-0.3,0.2-0.4c2.7-1.6,4.2-4,4.3-6.5c0,0,0-0.1,0-0.1C63.6,29,58.4,25.2,52,25.2z"/><path fill="#512c2b" d="M41,59.3c0,0.1,0,0.1,0,0.2c-0.1,0.6-0.3,1.1-0.5,1.7c-0.3,0.8-0.6,1.5-1.1,2.2 c-0.2,0.3-0.4,0.5-0.7,0.7c-0.6,0.4-1.2,0.5-1.9,0.5H24.9c-0.7,0-1.4-0.2-1.9-0.6c-0.2-0.2-0.5-0.4-0.6-0.6 c-0.5-0.7-0.9-1.4-1.1-2.2c-0.2-0.6-0.4-1.1-0.5-1.7c0-0.1,0-0.1,0-0.2c-1.8-7.2-1.3-20,2.9-23.8c1.9-2,4.6-3,7.3-3 c2.2-0.1,4.4,0.6,6.2,2c0.4,0.3,0.8,0.6,1.1,0.9c0.1,0.1,0.3,0.3,0.4,0.4C42.3,40.3,42.7,52.4,41,59.3z"/><path fill="#f6cca4" d="M39.2,44c0.1-1-0.2-1.9-0.2-2.5l0,0c-0.9-1.1-1.5-2.5-2.8-3.3c-1.4-0.9-3-1.5-4.6-1.9 c-3.9-1-7.8,1.9-9,5.6V42c0.1,0.7,0.2,1.3,0.3,2c-1,0-1.6,0.6-1.2,1.7c0,0,0.4,1.8,0.7,2.7c0.1,0.5,0.5,0.8,1,0.8 c0,0.6,0,1.1,0,1.7c0,0.7,0.2,1.4,0.6,1.9c1,1.5,6.3,5,7.6,4.8c2.1,0,6.2-3.5,7.3-5.3c0.2-0.4,0.3-0.8,0.3-1.2c0-0.7,0-1.4,0-2 c0.4,0,0.8-0.4,0.9-0.8c0.3-0.9,0.7-2.7,0.7-2.7C41,44.5,40.2,44,39.2,44z"/><path fill="#edbc94" d="M42.3,61.5l-0.2-0.1l-0.4-0.2c-0.8-0.4-6.4-2.2-6.4-2.2c-0.4-0.1-0.7-0.4-0.8-0.8 c-0.2-0.7-0.2-1.3-0.2-2c-0.9,0.4-1.9,0.8-2.9,1c-1.3,0.1-3.5-1.6-3.5-1.6s-0.1,2.1-0.1,2.5c-0.1,0.4-0.5,0.7-0.9,0.8l-5.3,1.8 c-0.5,0.1-1,0.3-1.5,0.6c-1.1,0.7-1.9,1.9-2.3,3.2l0,0c0,0.1,0,0.2-0.1,0.4c-0.1,0.3-0.1,0.6-0.1,0.9c0,0.3-0.1,5.2-0.1,5.6 c7.6,4.3,11.7,4,18,3.3c3.2-0.4,6.9-2.5,9.4-3.8C44.6,64.6,45.2,62.5,42.3,61.5z"/><g opacity=".3"><path fill="#f4989e" d="M26.3 48.6A1.4 1.4 0 1 0 26.3 51.4 1.4 1.4 0 1 0 26.3 48.6zM36.6 48.6A1.3 1.4 0 1 0 36.6 51.4 1.3 1.4 0 1 0 36.6 48.6z" opacity=".8"/></g><path fill="#472b29" d="M23.5 49.7c-.1 0-.2-.1-.2-.2L22.7 44c0-.1.1-.2.2-.2.1 0 .2.1.2.2l.6 5.5C23.7 49.6 23.6 49.7 23.5 49.7 23.5 49.7 23.5 49.7 23.5 49.7zM38.9 49.4C38.9 49.4 38.9 49.4 38.9 49.4c-.1 0-.2-.1-.2-.2l.3-5.5c0-.1.1-.2.2-.2.1 0 .2.1.2.2l-.3 5.5C39.1 49.3 39 49.4 38.9 49.4z"/><path fill="#6d1b18" d="M29.1,52.1c0,0.1,0,0.2,0,0.3c0,1,1.1,1.7,2.4,1.7c1.3,0,2.4-0.8,2.4-1.7c0-0.1,0-0.2,0-0.3H29.1z"/><path fill="#ee3e54" d="M32.7,53.9c-0.7-0.6-1.8-0.6-2.5,0c0.4,0.2,0.8,0.3,1.3,0.3C31.8,54.1,32.3,54.1,32.7,53.9z"/><path fill="#fdfcef" d="M29.8,52.1L29.8,52.1v0.3c0,0.3,0.3,0.5,0.8,0.5h1.8c0.4,0,0.8-0.2,0.8-0.5V52L29.8,52.1z"/><path fill="#472b29" d="M31.4,54.3c-1.5,0-2.6-0.8-2.6-1.9c0-0.1,0-0.3,0.1-0.4c0-0.1,0.1-0.1,0.2-0.1h4.7 c0.1,0,0.2,0.1,0.2,0.2c0,0.1,0,0.3,0,0.4C34,53.5,32.8,54.3,31.4,54.3z M29.3,52.3c0,0,0,0.1,0,0.1c0,0.9,1,1.5,2.2,1.5 c1.2,0,2.2-0.7,2.2-1.5c0,0,0-0.1,0-0.1H29.3z"/><path fill="#f1bc19" d="M25.1,59.6L28,61l3.2,7.4l3.1-7.6l2-1.6l3.3,1.2l1,13.1c-6.3,2.3-13.2,2.3-19.5,0l0.4-12.6 L25.1,59.6z"/><path fill="#fdfcef" d="M24.1 61.1L27.4 62.3 26.1 64.1 31.1 68.2 27.6 58.6zM38.1 61.1L34.6 58.7 31.1 68.2 36.1 64.1 34.8 62.3z"/><path fill="#472b29" d="M31.4 50.8c.4 0 .8-.2 1-.6 0 0 0-.1 0-.1l0 0c0 0-.1 0-.1 0 0 0 0 0 0 0-.4.5-1.1.6-1.6.2-.1-.1-.1-.1-.2-.2 0 0 0 0 0 0l0 0c0 0 0 .1 0 .1C30.7 50.5 31 50.7 31.4 50.8zM32 55.4C32 55.4 32.1 55.4 32 55.4c.1-.1 0-.1 0-.1h-1.2c0 0-.1 0-.1.1 0 0 0 .1.1.1H32z" opacity=".41"/><path fill="#512c2b" d="M30 43.1c-1.7-.5-3.4-.7-5.1-.5-.1 0-.1.1-.1.1 0 .1 0 .1.1.1s3.5.6 4.6 1h0c0 0 .1 0 .1 0l.4-.5c0 0 0-.1 0-.1C30.1 43.2 30.1 43.2 30 43.1zM32.8 43c1.7-.4 3.4-.5 5.1-.3.1 0 .2 0 .2.1 0 .1 0 .2-.1.2 0 0 0 0-.1 0 0 0-3.5.4-4.6.8h-.1c-.1 0-.1 0-.1-.1l-.4-.5C32.7 43.2 32.7 43.1 32.8 43 32.7 43 32.7 43 32.8 43z"/><path fill="#472b29" d="M27.6 44.6c-.4 0-.7.2-.8.6 0 0 .1 0 .1 0 .3 0 .6.3.6.6 0 .3-.3.6-.6.6-.1 0-.2 0-.3-.1.1.5.5.9 1 .9.7-.2 1.1-.9.9-1.5C28.5 45.1 28.1 44.7 27.6 44.6L27.6 44.6zM35.1 44.6c-.3 0-.6.2-.7.4.1 0 .1 0 .2 0 .3 0 .5.3.5.6 0 .3-.2.5-.5.5-.2 0-.3-.1-.4-.3.1.5.7.8 1.2.7.5-.1.8-.7.7-1.2C36 44.9 35.6 44.6 35.1 44.6L35.1 44.6zM31.5 57.5c-1.4 0-3.5-1.2-3.6-1.2-.1-.1-.2-.2-.1-.3.1-.1.2-.2.3-.1 0 0 2.3 1.2 3.5 1.1 1-.2 2-.6 2.9-1.1.1-.1.3 0 .3.1.1.1 0 .3-.1.3-1 .6-2 .9-3.1 1.1C31.7 57.5 31.6 57.5 31.5 57.5z"/><g opacity=".27"><path fill="#f4989e" d="M29 47.699999999999996A.2.2 0 1 0 29 48.1.2.2 0 1 0 29 47.699999999999996zM29.3 48.9A.2.2 0 1 0 29.3 49.300000000000004.2.2 0 1 0 29.3 48.9zM30.3 48.199999999999996A.2.2 0 1 0 30.3 48.6.2.2 0 1 0 30.3 48.199999999999996zM32.4 48A.2.2 0 1 0 32.4 48.400000000000006.2.2 0 1 0 32.4 48zM33.1 49A.2.2 0 1 0 33.1 49.400000000000006.2.2 0 1 0 33.1 49zM33.8 48A.2.2 0 1 0 33.8 48.400000000000006.2.2 0 1 0 33.8 48z" opacity=".8"/></g><path fill="#472b29" d="M30.9,75.8c-4.7,0-9.4-1.3-13.6-3.8c-0.1-0.1-0.2-0.2-0.2-0.4c-0.2-5.9,0.8-9.4,2.8-10.5 c0.5-0.3,1-0.5,1.6-0.7l5.3-1.8c0.3-0.1,0.5-0.2,0.5-0.4c0-0.2,0.1-1.2,0.2-1.8c-1.5-0.9-2.8-1.9-4-3.2c-0.5-0.7-0.8-1.5-0.7-2.3 l0-1.3c-0.5-0.2-0.9-0.6-1-1.2c-0.3-0.8-0.7-2.6-0.7-2.6c-0.3-0.8-0.1-1.3,0.1-1.6c0.2-0.2,0.5-0.5,1-0.6c0,0,0-0.1,0-0.1 c-0.2-0.4-0.3-0.8-0.3-1.2c0-4.6,4-8.3,9-8.3c5,0,9,3.7,9,8.3c0,0.5-0.1,0.9-0.3,1.3v0.1c0.6,0.1,1,0.3,1.3,0.7 c0.2,0.3,0.4,0.8,0.2,1.6l-0.1,0.2c-0.1,0.6-0.4,1.8-0.6,2.4c-0.1,0.4-0.4,0.8-0.8,1v1.6c0,0.5-0.2,1-0.4,1.4 c-1.2,1.7-2.7,3.1-4.4,4.2c0,0.5,0,1,0.2,1.4c0.1,0.2,0.3,0.3,0.5,0.4c0.3,0.1,5.6,1.9,6.4,2.3l0.6,0.2c2.7,0.8,2.8,4.3,2.9,9 l0,0.9c0,0,0,0,0,0v0.1c0,0.2-0.1,0.3-0.2,0.4C40.9,74.3,35.9,75.8,30.9,75.8z M18.1,71.3c8.1,4.8,18.4,4.6,26.4-0.4l0-0.6 c-0.1-4.5-0.2-7.4-2.2-8.1l-0.7-0.3c-0.8-0.4-6.3-2.2-6.3-2.2c-0.5-0.1-0.9-0.5-1.1-1c-0.2-0.7-0.3-1.4-0.2-2.1 c0-0.2,0.1-0.3,0.2-0.4c1.7-1.1,3.1-2.4,4.3-4c0.1-0.2,0.2-0.6,0.2-0.9l0-2c0-0.3,0.2-0.5,0.4-0.5c0.2,0,0.4-0.2,0.4-0.4 c0.2-0.7,0.5-1.9,0.6-2.4c0-0.1,0.1-0.2,0.1-0.3h0c0.1-0.3,0.1-0.5,0-0.7c-0.2-0.2-0.5-0.3-1-0.3c-0.2,0-0.3,0-0.4-0.1 c-0.1-0.1-0.1-0.2-0.1-0.4v-0.7c0-0.1,0-0.2,0.1-0.2c0.1-0.3,0.2-0.6,0.2-1c0-4-3.6-7.2-8-7.2c-4.4,0-8,3.2-8,7.2 c0,0.3,0.1,0.6,0.3,0.9c0,0,0,0.1,0,0.1c0,0.3,0.1,0.5,0.1,0.8c0,0.1,0,0.3-0.1,0.4c-0.1,0.1-0.2,0.1-0.4,0.1 c-0.4,0-0.7,0.1-0.8,0.2c-0.1,0.1-0.1,0.4,0,0.8c0,0.1,0.4,1.8,0.7,2.7c0.1,0.3,0.3,0.5,0.5,0.5c0,0,0,0,0,0 c0.1,0,0.3,0.1,0.4,0.1c0.1,0.1,0.1,0.2,0.1,0.4V51c0,0.6,0.2,1.2,0.5,1.6c1.1,1.2,2.5,2.3,3.9,3.1c0.2,0.1,0.3,0.3,0.3,0.4 c0,0.5-0.1,1.9-0.2,2.4c-0.2,0.6-0.7,1-1.3,1.2l-5.3,1.8c-0.5,0.1-1,0.3-1.4,0.6C19.4,62.5,17.9,64.3,18.1,71.3z M44.9,71.1 L44.9,71.1L44.9,71.1L44.9,71.1z"/><path fill="#512c2b" d="M31.3,33.1c-7.5,0.2-9.5,6.6-9.9,8c0.2-0.2,0.4-0.4,0.6-0.6c-0.1,2.3,0.4,4.6,1.6,6.6 c-0.1-1.5,0.2-3,0.6-4.5c0,0.7,0.1,1.4,0.3,2c-0.1-0.2,3.1-5.1,6.8-6.3c-0.2,0.4-0.4,0.8-0.6,1.1c-0.3,1-0.6,1.9-1,2.8 c1.8-0.7,3.4-2,4.5-3.6c0.2-0.3,0.4-0.7,0.5-1.1H35c0,0.1,0.1,0.2,0.1,0.3c0.3,0.6,0.7,1.2,1.1,1.8c1.5,2.1,2.8,4.8,2.7,7.4 c1.7-2.4,1.2-5.3,0.5-8.2C39.5,38.8,37.4,32.9,31.3,33.1z"/><path fill="#dba179" d="M89.6,62.6c-0.1-1.4-1.1-2.6-2.4-2.9L87,59.6l-0.4-0.2c-0.9-0.4-6.3-2.4-6.3-2.4 c-0.4-0.1-0.7-0.4-0.9-0.8c-0.2-0.7-0.2-1.4-0.2-2.1c-1.2,0.4-2.4,0.7-3.7,1c-1.4,0.1-4.3-1.6-4.3-1.6s-0.1,2.2-0.2,2.7 C71,56.6,70.6,57,70.2,57L65,58.9c-0.6,0.1-1.1,0.4-1.6,0.7c-1.1,0.7-1.9,1.8-2.3,3c0,0-0.3,2.4-0.3,2.5c0,0.3-0.1,0.7-0.1,1.1 c5.6,3.8,10.1,4.9,17.9,4.5c4-0.4,7.8-1.5,11.4-3.3C89.9,64.4,89.6,62.6,89.6,62.6z"/><path fill="#77cbd2" d="M87.2,59.7L87,59.6l-0.4-0.2c-0.6-0.2-2.8-1.1-4.5-1.7H82c-1.8,0.9-4.4,2.3-6.8,2.3 s-4.8-1.3-6.8-2.3l-0.2,0.1L65,59c-0.6,0.1-1.1,0.4-1.6,0.7c-1.1,0.7-1.9,1.8-2.3,3c0,0-0.3,2.4-0.3,2.5c0,0.3-0.1,3.9-0.1,4.3 c5.6,3.8,10.1,4.9,17.9,4.5c4-0.4,7.8-1.5,11.4-3.3c-0.2-3.1-0.4-8.1-0.4-8.1C89.5,61.3,88.5,60.1,87.2,59.7z"/><path fill="#00a5a5" d="M65.6 72.6c-.2 0-.3-.1-.3-.3v-2.9c0-.2.1-.3.3-.3s.3.1.3.3v2.9C65.9 72.5 65.7 72.6 65.6 72.6zM84.6 73.1c-.2 0-.3-.1-.3-.3v-3.4c0-.2.1-.3.3-.3s.3.1.3.3v3.4C84.9 73 84.8 73.1 84.6 73.1z"/><path fill="#edbc94" d="M84.1,43.4h-0.3c-0.7,0-0.6,0.2-0.6-0.2c0.1-0.8-0.3-3.9-0.3-4c0-3.2-3.4-5.8-7.6-6h-0.2 c-4.2,0.2-7.6,2.8-7.6,6c0,0.2-0.1,3.3,0,4c0,0.4-0.2,0.2-0.9,0.2h-0.3c-0.7,0-1.3,0.5-1.5,1.2c0.2,1.3,0.6,2.5,1,3.7 c0.3,0.6,0.8,0.7,1.3,1c0.2,0.2,0.4,0.5,0.4,0.8c0.4,1.2,1,2.2,1.9,3c0.4,0.4,3.3,3.4,5.7,3.3s5.3-2.9,5.7-3.3 c0.9-0.8,1.6-1.8,1.9-3c0-0.3,0.2-0.6,0.4-0.8c0.5-0.4,1-0.5,1.3-1c0.4-1.2,0.8-2.5,1-3.7C85.4,43.9,84.8,43.4,84.1,43.4z"/><path fill="#512c2b" d="M75.3 48.5c.5 0 .9-.2 1.3-.5 0 0 0-.1 0-.1 0 0 0 0 0 0l0 0c0 0-.1 0-.1 0-.6.6-1.7.6-2.3 0 0 0 0 0-.1 0H74c0 0 0 .1 0 .1 0 0 0 0 0 0C74.3 48.3 74.8 48.5 75.3 48.5zM73.7 41.8l.3-.6c-1.4-.3-2.8-.3-4.1.1l.4.6C71.4 41.6 72.6 41.6 73.7 41.8zM80.3 41.8l.3-.6c-1.4-.3-2.8-.3-4.1.1l.4.6C78 41.6 79.2 41.6 80.3 41.8zM71.8 42.7c-.3 0-.6.2-.8.5 0 0 .1 0 .1 0 .3 0 .5.2.5.5 0 .3-.2.5-.5.5-.1 0-.2 0-.2-.1.1.4.4.8.9.8.6-.2 1-.8.9-1.4C72.5 43.2 72.2 42.8 71.8 42.7L71.8 42.7zM78.7 42.7c-.3 0-.5.2-.7.4.1 0 .1 0 .2 0 .3.1.4.4.3.7-.1.2-.2.3-.3.3-.2 0-.3-.1-.4-.2-.1.5.2 1 .7 1.1s1-.2 1.1-.7c0-.1 0-.3 0-.4C79.7 43.3 79.3 42.8 78.7 42.7zM79.1 49.9c0 0 0-.1 0-.1l0 0c0 0-.1 0-.1 0-2.3 1.4-5.2 1.4-7.4 0h-.1c0 0 0 0-.1 0 0 0 0 .1 0 .1 0 0 0 0 0 0C73.7 51.5 76.8 51.5 79.1 49.9L79.1 49.9zM76.3 53.7c0 0 .1 0 .1-.1s0-.1-.1-.1h-1.9c0 0-.1.1-.1.1s0 .1.1.1H76.3z"/><path fill="#472b29" d="M76.1,74.6c-6.5,0-10.7-1.3-15.7-4.7c-0.1-0.1-0.2-0.3-0.2-0.5c0-0.1,0-0.3,0-0.6 c0-1.6,0.1-4.9,0.4-6.3c0.3-1.4,1.2-2.6,2.5-3.3c0.5-0.3,1.1-0.5,1.7-0.7l5.1-1.9c0.3-0.1,0.5-0.3,0.6-0.5c0-0.1,0.1-0.7,0.1-1.3 c-0.7-0.5-1.3-1-1.5-1.1c-1-0.9-1.7-2-2.1-3.2c0,0,0-0.1,0-0.1c0-0.2-0.1-0.3-0.2-0.4c-0.1-0.1-0.2-0.1-0.4-0.2 c-0.4-0.2-0.8-0.4-1.1-1c-0.6-1.3-0.9-2.6-1.1-4c0-0.1,0-0.1,0-0.2c0.3-0.9,1.1-1.5,2-1.5h0.3c0.1,0,0.2,0,0.3,0 c0-0.8,0-2.4,0-3.5l0-0.3c0-3.5,3.5-6.4,8.1-6.6l0.2,0c4.5,0.2,8.1,3,8.1,6.6c0,0,0,0.2,0.1,0.5c0.1,1.2,0.3,2.6,0.3,3.2 c0,0,0.1,0,0.1,0h0.3c0.9,0,1.7,0.6,2,1.5c0,0.1,0,0.1,0,0.2c-0.1,1.4-0.5,2.7-1,4c-0.3,0.5-0.7,0.7-1,0.9 c-0.1,0.1-0.3,0.2-0.5,0.3c-0.1,0.1-0.2,0.2-0.2,0.4c0,0,0,0.1,0,0.1c-0.4,1.2-1.1,2.4-2.1,3.2c-0.5,0.4-1,0.9-1.6,1.2 c0,0.4,0.1,0.8,0.2,1.2c0.1,0.2,0.3,0.4,0.5,0.4c0.3,0.1,5.4,2,6.3,2.4l0.6,0.3c1.5,0.4,2.6,1.7,2.7,3.3c0,0,0,0,0,0 c0,0,0.3,5,0.4,8.1c0,0.2-0.1,0.4-0.3,0.5c-3.7,1.8-7.6,2.9-11.6,3.3C77.7,74.6,76.9,74.6,76.1,74.6z M61.2,69.3 c5.3,3.5,9.7,4.6,17.4,4.3c3.8-0.4,7.5-1.4,10.9-3.1c-0.1-3-0.4-7.6-0.4-7.7c-0.1-1.2-0.9-2.2-2-2.5L86.4,60 c-0.9-0.4-6.2-2.3-6.3-2.4c-0.5-0.1-1-0.5-1.2-1.1c-0.2-0.6-0.3-1.3-0.2-1.9c0-0.2,0.1-0.3,0.2-0.4c0.6-0.4,1.1-0.9,1.7-1.3 c0.8-0.7,1.4-1.7,1.8-2.7c0.1-0.4,0.3-0.8,0.6-1c0.2-0.2,0.4-0.3,0.6-0.4c0.3-0.2,0.5-0.3,0.6-0.5c0.5-1.1,0.8-2.3,0.9-3.5 c-0.2-0.4-0.6-0.7-1-0.7h-0.3c-0.5,0-0.7,0-1-0.2c-0.2-0.2-0.2-0.5-0.2-0.7c0-0.6-0.1-2.4-0.2-3.2c0-0.4-0.1-0.6-0.1-0.6 c0-3-3.1-5.4-7.1-5.6l-0.2,0c-4,0.1-7.1,2.6-7.1,5.6l0,0.3c-0.1,2.1-0.1,3.3,0,3.7c0,0.2,0,0.5-0.2,0.7c-0.2,0.2-0.5,0.1-0.6,0.1 c-0.1,0-0.3,0-0.5,0l-0.3,0c-0.4,0-0.9,0.3-1,0.7c0.1,1.2,0.4,2.4,0.9,3.5c0.1,0.2,0.3,0.3,0.7,0.5c0.2,0.1,0.3,0.2,0.5,0.3 c0.4,0.3,0.6,0.7,0.6,1.1c0.3,1.1,0.9,2,1.8,2.7c0.1,0.1,0.8,0.6,1.6,1.2c0.1,0.1,0.2,0.2,0.2,0.4c0,0.6-0.1,1.5-0.1,1.8 c-0.2,0.7-0.7,1.1-1.3,1.2l-5.1,1.9c-0.6,0.1-1.1,0.3-1.5,0.6c-1.1,0.5-1.8,1.5-2,2.7c-0.3,1.2-0.4,4.6-0.4,6 C61.2,69,61.2,69.2,61.2,69.3z"/><path fill="#895d3d" d="M84.2 47l-.6-.1.1-1.1L83.1 46l-.2-.5L84 45c.1 0 .2 0 .3 0 .1.1.1.2.1.3L84.2 47zM66.5 46.7l-.2-1.6c0-.1 0-.2.1-.3.1-.1.2-.1.3 0l1.1.5-.2.6L67 45.5l.1 1.1L66.5 46.7z"/><path fill="#472b29" d="M67.5 50C67.5 50 67.5 50 67.5 50c-.1 0-.2-.1-.2-.2l.1-6.3c0-.1.1-.2.2-.2 0 0 0 0 0 0 .1 0 .2.1.2.2l-.1 6.3C67.7 49.9 67.6 50 67.5 50zM83 50c-.1 0-.2-.1-.2-.2l-.1-6.3c0-.1.1-.2.2-.2.1 0 .2.1.2.2l.1 6.3C83.2 49.9 83.1 50 83 50 83 50 83 50 83 50zM75.3 56.6c-1.6 0-4.2-1.9-4.3-2-.1-.1-.1-.2-.1-.3s.2-.1.3-.1c.8.6 3 2 4.1 1.9 1.3-.3 2.5-.9 3.6-1.7.1-.1.3-.1.3.1.1.1.1.3-.1.3-1.1.8-2.4 1.4-3.8 1.8C75.5 56.6 75.4 56.6 75.3 56.6z"/><path fill="#472b29" d="M84.2 33.8c0-.4-.5-.3-.9-.3-1.4.1-1.7-.3-4.4-1.9-2.4-1.3-5.3-1.2-7.5.4-8.6 1.9-3.6 13-3.6 13s0-5.8 2.6-7.6c4.5 2.9 8.8 3.2 11.3 1.5.7 2 1 4 1 6.1 1.3-2.4 1.5-5.2.8-7.8C83.3 36.2 84.4 35.2 84.2 33.8L84.2 33.8zM52 38.5c-.1 0-.3-.1-.3-.3v-3.2c0-.1.1-.3.3-.3s.3.1.3.3v3.2C52.2 38.4 52.1 38.5 52 38.5z"/><path fill="#472b29" d="M55.4,38.5h-6.7c-0.1,0-0.3-0.1-0.3-0.3s0.1-0.3,0.3-0.3h6.7c0.1,0,0.3,0.1,0.3,0.3 S55.5,38.5,55.4,38.5z"/><path fill="#8e9db5" d="M52 37.6A0.5 0.5 0 1 0 52 38.6A0.5 0.5 0 1 0 52 37.6Z"/><path fill="#472b29" d="M52,38.9c-0.4,0-0.7-0.3-0.7-0.7c0-0.4,0.3-0.7,0.7-0.7s0.7,0.3,0.7,0.7 C52.7,38.5,52.4,38.9,52,38.9z M52,37.9c-0.1,0-0.2,0.1-0.2,0.2s0.1,0.2,0.2,0.2s0.2-0.1,0.2-0.2S52.1,37.9,52,37.9z"/><path fill="#f9e7e5" d="M51.6,35.1v0.5c0,0.2,0.2,0.3,0.4,0.3s0.4-0.1,0.4-0.3v-0.5H51.6z"/><path fill="#472b29" d="M52,36.2c-0.4,0-0.7-0.3-0.7-0.6v-0.5c0-0.1,0.1-0.3,0.3-0.3h0.8c0.1,0,0.3,0.1,0.3,0.3v0.5 C52.6,36,52.3,36.2,52,36.2z M51.8,35.3v0.3c0,0.1,0.1,0.1,0.2,0.1c0.1,0,0.1-0.1,0.1-0.1v-0.3H51.8z"/><g><path fill="#78a0cf" d="M45.2,33.1c-0.1,1,0.7,1.9,1.8,2c0,0,0.1,0,0.1,0h10.1c1,0,1.9-0.8,1.9-1.9 c0-0.9-0.6-1.7-1.5-1.8c0.2-1-0.6-2-1.6-2.2c-0.1,0-0.2,0-0.3,0c-0.6,0-1.2,0.3-1.5,0.8c-0.1-1.2-1.1-2.1-2.3-2 c-1,0.1-1.7,0.8-1.9,1.7c-0.1,0.3-0.1,0.6,0,0.8c-0.3-0.3-0.6-0.4-1-0.4c-0.7,0-1.3,0.5-1.3,1.3c-0.3-0.1-0.7,0-1,0.1 C45.7,31.8,45.2,32.4,45.2,33.1"/><path fill="#472b29" d="M57.1,35.4H47c0,0-0.1,0-0.1,0c-0.6,0-1.1-0.3-1.5-0.7s-0.6-1-0.5-1.5c0,0,0-0.1,0-0.1 c0.1-0.8,0.6-1.5,1.4-1.7c0.3-0.1,0.6-0.1,0.9-0.1c0.2-0.7,0.8-1.2,1.5-1.2c0,0,0,0,0,0c0.2,0,0.5,0.1,0.7,0.2 c0-0.1,0-0.2,0-0.4c0.2-1,1.1-1.8,2.1-1.9c1.1-0.1,2.2,0.6,2.5,1.7c0.4-0.3,0.9-0.5,1.4-0.5c0.1,0,0.2,0,0.4,0 c0.6,0.1,1.1,0.4,1.4,0.8c0.3,0.4,0.4,0.9,0.4,1.4c0.9,0.3,1.5,1.1,1.5,2C59.2,34.4,58.3,35.4,57.1,35.4z M45.4,33.3 c0,0.4,0.1,0.7,0.4,1c0.3,0.3,0.7,0.5,1.1,0.5c0,0,0.1,0,0.1,0h10.1c0.9,0,1.6-0.7,1.6-1.6c0-0.8-0.5-1.4-1.3-1.6 c-0.1,0-0.2-0.2-0.2-0.3c0.1-0.4,0-0.9-0.3-1.2c-0.3-0.4-0.6-0.6-1.1-0.7c-0.1,0-0.2,0-0.3,0c-0.5,0-1,0.3-1.3,0.7 c-0.1,0.1-0.2,0.1-0.3,0.1c-0.1,0-0.2-0.1-0.2-0.2c-0.1-1-1-1.8-2.1-1.7c-0.8,0.1-1.5,0.7-1.7,1.5c0,0.2,0,0.5,0,0.7 c0,0.1,0,0.2-0.1,0.3c-0.1,0-0.2,0-0.3-0.1c-0.2-0.2-0.5-0.4-0.8-0.3c0,0,0,0,0,0c-0.6,0-1.1,0.4-1.1,1c0,0.1,0,0.1-0.1,0.2 s-0.1,0.1-0.2,0c-0.3-0.1-0.6,0-0.9,0.1C45.9,32,45.5,32.5,45.4,33.3C45.4,33.2,45.4,33.2,45.4,33.3z"/></g><path fill="#472b29" d="M47.3 33.7c-.1 0-.1-.1-.1-.1.1-.7.7-1.1 1.3-1.1 0 0 .1 0 .1 0 .1-.1.1-.3.3-.4.2-.2.4-.2.7-.2.2 0 .3.1.4.1.1-.7.8-1.2 1.5-1.2.1 0 .1.1.1.1s-.1.1-.1.1c-.6-.1-1.1.4-1.2 1 0 .1 0 .1 0 .2 0 .1 0 .1-.1.1 0 0-.1 0-.1 0-.1-.1-.3-.2-.5-.2-.2 0-.4.1-.5.2-.1.1-.2.2-.2.3 0 .1-.1.1-.1.1-.1 0-.1 0-.2 0-.5-.1-1 .3-1.1.8C47.5 33.6 47.4 33.7 47.3 33.7zM56.1 32.4C56.1 32.4 56.1 32.4 56.1 32.4c-.1 0-.1-.1-.1-.1 0-.1 0-.2.1-.2.4-.7 1.2-.9 1.9-.5.1 0 .1.1.1.2 0 .1-.1.1-.2.1-.5-.3-1.2-.1-1.5.4 0 .1 0 .1-.1.2C56.2 32.4 56.1 32.4 56.1 32.4z"/></svg>