<svg xmlns="http://www.w3.org/2000/svg" viewBox="0 0 32 32">
  <path d="M16 4C9.382813 4 4 9.382813 4 16C4 19.070313 5.15625 21.875 7.0625 24L5 24L5 26L11 26L11 20L9 20L9 23.125C7.15625 21.3125 6 18.792969 6 16C6 10.464844 10.464844 6 16 6 Z M 18.25 4.21875L17.6875 6.15625C18.347656 6.269531 19.003906 6.445313 19.625 6.6875L20.15625 4.75C19.53125 4.519531 18.90625 4.34375 18.25 4.21875 Z M 21 6L21 12L23 12L23 8.875C24.847656 10.683594 26 13.199219 26 16C26 21.535156 21.535156 26 16 26L16 28C22.617188 28 28 22.617188 28 16C28 12.921875 26.820313 10.121094 24.90625 8L27 8L27 6 Z M 12.375 25.3125L11.84375 27.25C12.46875 27.480469 13.09375 27.65625 13.75 27.78125L14.3125 25.84375C13.652344 25.730469 12.996094 25.554688 12.375 25.3125Z" fill="#FBFBE3" />
</svg>