<svg xmlns="http://www.w3.org/2000/svg" viewBox="0 0 100 100"><path fill="#fff" d="M21.3 55.6A.9.9 0 1 0 21.3 57.4.9.9 0 1 0 21.3 55.6zM80.3 30.900000000000002A.7.7 0 1 0 80.3 32.300000000000004.7.7 0 1 0 80.3 30.900000000000002z"/><path fill="#f1bc19" d="M77.7 11.7A.9.9 0 1 0 77.7 13.5.9.9 0 1 0 77.7 11.7zM21.8 63.300000000000004A.9.9 0 1 0 21.8 65.10000000000001.9.9 0 1 0 21.8 63.300000000000004z"/><path fill="#e4e4f9" d="M50.6 12.299999999999997A37.5 37.5 0 1 0 50.6 87.3A37.5 37.5 0 1 0 50.6 12.299999999999997Z"/><path fill="#f1bc19" d="M83.1 10.7A4 4 0 1 0 83.1 18.7A4 4 0 1 0 83.1 10.7Z"/><path fill="#ee3e54" d="M87.1 21.900000000000002A1.9 1.9 0 1 0 87.1 25.7A1.9 1.9 0 1 0 87.1 21.900000000000002Z"/><path fill="#fbcd59" d="M78.2 74.3A1.9 1.9 0 1 0 78.2 78.10000000000001 1.9 1.9 0 1 0 78.2 74.3zM15 59.3A4 4 0 1 0 15 67.3 4 4 0 1 0 15 59.3z"/><path fill="#ee3e54" d="M25.2 85.5A1.9 1.9 0 1 0 25.2 89.30000000000001A1.9 1.9 0 1 0 25.2 85.5Z"/><path fill="#fff" d="M19 52.1A2.5 2.5 0 1 0 19 57.1A2.5 2.5 0 1 0 19 52.1Z"/><path fill="#8889b9" d="M61.2 56.8L33.2 58.3 30.7 40.3 64.8 40.4z"/><path fill="#472b29" d="M33.2,59c-0.3,0-0.6-0.3-0.7-0.6l-2.6-18c0-0.2,0-0.4,0.2-0.6c0.1-0.2,0.4-0.3,0.5-0.2l34.1,0.1 c0.2,0,0.4,0.1,0.5,0.3c0.1,0.2,0.2,0.4,0.1,0.6l-3.6,16.4c-0.1,0.3-0.3,0.5-0.6,0.5L33.2,59C33.3,59,33.2,59,33.2,59z M31.5,41l2.4,16.5l26.8-1.4l3.3-15L31.5,41z M61.2,56.8L61.2,56.8L61.2,56.8z"/><path fill="#472b29" d="M39.4,41h-8.7c-0.3,0-0.6-0.3-0.7-0.6l-0.4-3c-0.4-4.4-2.6-4.6-2.7-4.6c-0.4,0-0.7-0.4-0.7-0.7 c0-0.4,0.3-0.7,0.7-0.7c0.1,0,3.5,0.2,4.1,5.8l0.3,2.4h7.4v-1.9c0.1-2.1-0.3-3.7-1.3-4.6c-1-1-2.1-1-2.2-1l-8-0.6 c-0.4,0-0.7-0.4-0.6-0.8c0-0.4,0.4-0.7,0.8-0.6l8,0.6c0,0,1.7,0,3.1,1.5c1.2,1.3,1.8,3.2,1.7,5.6l0,2.6 C40.1,40.7,39.7,41,39.4,41z"/><path fill="#ef9922" d="M27.3,29.9h-2.9c-0.6,0-1,0.4-1,1v0.7c0.1,0.6,0.5,0.8,1,0.8h2.9L27.3,29.9z"/><path fill="#472b29" d="M27.3,32.8h-2.9c-0.8,0-1.3-0.4-1.4-1.1l0-0.7c0-0.8,0.6-1.4,1.4-1.4h2.9c0.2,0,0.4,0.2,0.4,0.4 v2.5C27.7,32.6,27.5,32.8,27.3,32.8z M24.4,30.3c-0.3,0-0.6,0.3-0.6,0.6v0.7c0,0.1,0.1,0.4,0.6,0.4h2.5v-1.7H24.4z"/><path fill="#8889b9" d="M40.5,66.6c0.3,0.4,0.5,0.8,0.5,1.3c0,1.6-1.2,2.9-2.8,2.9c-1.4,0-2.6-0.9-2.9-2.3 c-0.1-0.9,0.3-1.7,1-2.3"/><path fill="#472b29" d="M38.2,71.2c-1.6,0-2.9-1.1-3.2-2.6c-0.1-1,0.3-2,1.1-2.6c0.2-0.1,0.4-0.1,0.5,0.1 c0.1,0.2,0.1,0.4-0.1,0.5c-0.6,0.4-0.9,1.2-0.8,1.9c0.2,1.2,1.3,2,2.5,2c1.4,0,2.4-1.2,2.4-2.5c0-0.4-0.2-0.7-0.5-1.1 c-0.1-0.2-0.1-0.4,0-0.5c0.2-0.1,0.4-0.1,0.5,0c0.4,0.4,0.6,0.9,0.6,1.5C41.5,69.7,40.1,71.2,38.2,71.2 C38.3,71.2,38.2,71.2,38.2,71.2z"/><path fill="#f1bc19" d="M39.4,68.3c-0.7,0.6-1.6,0.9-2.5,0.9l-0.5-4.8h4.1C40.5,64.4,40.8,67.3,39.4,68.3z"/><path fill="#472b29" d="M37.2,69.6c-0.1,0-0.2,0-0.3,0c-0.2,0-0.3-0.2-0.3-0.3l-0.4-4.8c0-0.1,0-0.2,0.1-0.3 c0.1-0.1,0.2-0.1,0.3-0.1h4.1c0.2,0,0.4,0.2,0.4,0.3c0,0.1,0.2,3-1.2,4.2C39,69.3,38.1,69.6,37.2,69.6z M36.9,64.8l0.4,4 c0.7,0,1.4-0.3,1.9-0.8c0,0,0,0,0,0c0.9-0.7,1-2.5,1-3.2H36.9z"/><path fill="#fdfcee" d="M38.4,67.5c-0.3,0-0.5-0.2-0.6-0.5c0-0.3,0.3-0.6,0.6-0.6c0.3,0,0.6,0.3,0.6,0.6 C39,67.3,38.7,67.5,38.4,67.5z"/><path fill="#472b29" d="M38.4,66.6c0.2,0,0.3,0.2,0.3,0.3s-0.2,0.3-0.3,0.3c-0.2,0-0.3-0.2-0.3-0.3 C38.1,66.8,38.2,66.6,38.4,66.6C38.4,66.6,38.4,66.6,38.4,66.6 M38.4,66.1c-0.5,0-0.8,0.4-0.8,0.8c0,0,0,0,0,0 c0,0.5,0.4,0.8,0.8,0.8c0.5,0,0.8-0.4,0.8-0.8C39.2,66.5,38.8,66.1,38.4,66.1C38.4,66.1,38.4,66.1,38.4,66.1z"/><path fill="#c0e5e4" d="M57.9,66.8c0.3,0.4,0.4,0.9,0.4,1.4c-0.2,1.6-1.6,2.8-3.2,2.6c-1.4-0.1-2.5-1.2-2.6-2.6 c0-0.9,0.5-1.7,1.3-2.2"/><path fill="#472b29" d="M55.4,71.2c-0.1,0-0.2,0-0.3,0c-1.6-0.2-2.8-1.4-3-3c0-1.1,0.6-2,1.5-2.6c0.2-0.1,0.4,0,0.5,0.1 c0.1,0.2,0,0.4-0.1,0.5c-0.7,0.4-1.1,1.1-1.1,1.9c0.1,1.2,1.1,2.1,2.3,2.2c0.7,0.1,1.3-0.1,1.9-0.6c0.5-0.4,0.9-1,0.9-1.7 c0-0.4-0.1-0.8-0.4-1.1c-0.1-0.2-0.1-0.4,0.1-0.5c0.2-0.1,0.4-0.1,0.5,0.1c0.3,0.5,0.5,1,0.5,1.6c-0.1,0.9-0.5,1.7-1.2,2.3 C56.9,70.9,56.2,71.2,55.4,71.2z"/><path fill="#f1bc19" d="M56.8,67.7c-0.7,0.6-1.6,0.9-2.5,0.9l-0.5-4.8H58C58,63.8,58.2,66.6,56.8,67.7z"/><path fill="#472b29" d="M54.6,69c-0.1,0-0.2,0-0.3,0c-0.2,0-0.3-0.2-0.3-0.3l-0.4-4.8c0-0.1,0-0.2,0.1-0.3 c0.1-0.1,0.2-0.1,0.3-0.1H58c0.2,0,0.4,0.2,0.4,0.3c0,0.1,0.2,3-1.3,4.2C56.4,68.6,55.5,69,54.6,69z M54.3,64.2l0.4,4 c0.7,0,1.4-0.3,1.9-0.8c0,0,0,0,0,0c0.9-0.7,1-2.3,1-3.2H54.3z"/><path fill="#fdfcee" d="M56,66.9c-0.1,0-0.2,0-0.3-0.1c-0.1-0.1-0.2-0.2-0.2-0.4c0-0.1,0-0.3,0.1-0.4 c0.1-0.1,0.3-0.2,0.5-0.2c0.1,0,0.2,0,0.3,0.1c0.1,0.1,0.2,0.2,0.2,0.4c0.1,0.3-0.1,0.6-0.5,0.7C56.1,66.9,56,66.9,56,66.9z"/><path fill="#472b29" d="M56 66c.1 0 .1 0 .2.1.1.1.2.3.1.4 0 0 0 0 0 0-.1.1-.2.1-.3.1-.1 0-.1 0-.2-.1-.1-.1-.2-.3-.1-.4 0 0 0 0 0 0C55.8 66.1 55.9 66 56 66M56 65.5c-.3 0-.5.1-.7.3-.1.2-.2.4-.1.6 0 .2.2.4.3.5.1.1.3.1.5.1.3 0 .5-.1.7-.3.1-.2.2-.4.2-.6 0-.2-.2-.4-.3-.5C56.3 65.6 56.2 65.5 56 65.5zM37.7 44.6c-.1 0-.2-.1-.3-.2s.1-.3.2-.3l26.1-.2c0 0 0 0 0 0 .1 0 .2.1.3.2s-.1.3-.2.3L37.7 44.6C37.7 44.6 37.7 44.6 37.7 44.6zM33.2 44.6c-.1 0-.2-.1-.3-.2 0-.1.1-.3.2-.3l2.6 0c.1 0 .3.1.3.2 0 .1-.1.3-.2.3L33.2 44.6C33.2 44.6 33.2 44.6 33.2 44.6zM31.9 47.8c-.1 0-.2-.1-.3-.2 0-.1.1-.3.2-.3l31.3-.3c.1 0 .3.1.3.2 0 .1-.1.3-.2.3L31.9 47.8C31.9 47.8 31.9 47.8 31.9 47.8zM32.5 51.2c-.1 0-.2-.1-.3-.2 0-.1.1-.3.2-.3L62.6 50c.1 0 .3.1.3.2 0 .1-.1.3-.2.3L32.5 51.2C32.5 51.2 32.5 51.2 32.5 51.2zM55.9 54c-.1 0-.2-.1-.3-.2 0-.1.1-.3.2-.3l4.2-.1c.2 0 .3.1.3.2s-.1.3-.2.3L55.9 54C55.9 54 55.9 54 55.9 54zM33.1 54.5c-.1 0-.2-.1-.3-.2 0-.1.1-.3.2-.3l20.8-.5c.1 0 .3.1.3.2S54 54 53.9 54L33.1 54.5C33.2 54.5 33.2 54.5 33.1 54.5zM32.5 64.8c-.2 0-.4-.1-.5-.2-.1-.1-.2-.3-.2-.5v-1.7c0-2.9 4.1-4.9 4.3-4.9.3-.2.8 0 .9.3.2.3 0 .8-.3.9-1 .5-3.5 2-3.5 3.7v1l26.4-.2c.4 0 .7.3.7.7s-.3.7-.7.7L32.5 64.8C32.5 64.8 32.5 64.8 32.5 64.8zM33.2 64.1L33.2 64.1 33.2 64.1z"/><path fill="#472b29" d="M58 57.2C58 57.2 57.9 57.2 58 57.2c-.2 0-.3-.2-.2-.3l3.7-16.7c0-.1.2-.2.3-.2.1 0 .2.2.2.3L58.2 57C58.2 57.1 58.1 57.2 58 57.2zM55 57.2C55 57.2 55 57.2 55 57.2c-.2 0-.3-.2-.2-.3l3.7-16.7c0-.1.2-.2.3-.2.1 0 .2.2.2.3L55.3 57C55.2 57.1 55.1 57.2 55 57.2zM52 57.2C52 57.2 52 57.2 52 57.2c-.2 0-.3-.2-.2-.3l3.7-16.7c0-.1.2-.2.3-.2.1 0 .2.2.2.3L52.3 57C52.3 57.1 52.2 57.2 52 57.2zM49.5 57.2C49.5 57.2 49.4 57.2 49.5 57.2c-.2 0-.3-.2-.2-.3l3.7-16.7c0-.1.2-.2.3-.2.1 0 .2.2.2.3L49.7 57C49.7 57.1 49.6 57.2 49.5 57.2zM47.5 53C47.4 53 47.4 53 47.5 53c-.2 0-.3-.2-.2-.3L50 40.3c0-.1.2-.2.3-.2.1 0 .2.2.2.3l-2.8 12.4C47.7 52.9 47.6 53 47.5 53zM45.7 47.6C45.7 47.6 45.6 47.6 45.7 47.6c-.2 0-.3-.2-.2-.3l1.6-7c0-.1.2-.2.3-.2.1 0 .2.2.2.3l-1.6 7C45.9 47.5 45.8 47.6 45.7 47.6z"/><path fill="#d8ad8f" d="M71.2,39.1c0.1-1.1-0.2-2.1-0.2-2.7l0,0c-1-1.2-1.6-2.7-3-3.6c-1.6-1-3.3-1.7-5.1-2.1 c-4.3-1.1-8.4,2-9.8,6.1c0,0,0,0,0,0.1c0.1,0.7,0.2,1.5,0.3,2.2c-1.2,0-1.7,0.6-1.3,1.8c0,0,0.5,2,0.7,2.9 c0.1,0.5,0.6,0.9,1.1,0.9c0,0.6,0,1.2,0,1.9c0,0.8,0.2,1.5,0.6,2.1c1.1,1.6,6.9,5.4,8.3,5.2c2.3,0,6.7-3.8,7.9-5.8 c0.2-0.4,0.3-0.8,0.3-1.3c0-0.7,0-1.5,0-2.2c0.5-0.1,0.9-0.4,0.9-0.9c0.3-0.9,0.7-2.9,0.8-2.9C73.2,39.7,72.4,39.1,71.2,39.1z"/><path fill="#b2876b" d="M74.7,58.2l-0.3-0.1L74,57.9c-0.9-0.4-6.9-2.4-6.9-2.4c-0.4-0.1-0.7-0.4-0.9-0.8 C66,54,65.9,53.2,66,52.5c-1,0.5-2.1,0.8-3.2,1.1c-1.4,0.1-3.8-1.7-3.8-1.7s-0.1,2.3-0.2,2.8c-0.1,0.4-0.5,0.8-0.9,0.8l-5.8,1.9 c-0.6,0.1-1.1,0.4-1.6,0.7c-1.2,0.8-2.1,2.1-2.5,3.5l0,0c0,0.2-0.1,0.3-0.1,0.5c-0.1,0.3-0.1,0.7-0.1,1c0,0.3-0.1,5.3-0.1,5.8 c5.4,4.1,9,3.5,16.8,4.1c3.3,0.2,9.2-2.6,13-4.6C77.2,61.3,77.8,59.2,74.7,58.2z"/><g opacity=".3"><path fill="#f4989e" d="M57.2 44A1.5 1.5 0 1 0 57.2 47 1.5 1.5 0 1 0 57.2 44zM68.5 44A1.5 1.5 0 1 0 68.5 47 1.5 1.5 0 1 0 68.5 44z" opacity=".8"/></g><path fill="#472b29" d="M54.2 45.3c-.1 0-.2-.1-.2-.2l-.6-6c0-.1.1-.2.2-.2.1 0 .2.1.2.2l.6 6C54.4 45.2 54.3 45.3 54.2 45.3 54.2 45.3 54.2 45.3 54.2 45.3zM71 45C71 45 71 45 71 45c-.1 0-.2-.1-.2-.2l.4-6c0-.1.1-.2.2-.2 0 0 0 0 0 0 .1 0 .2.1.2.2l-.4 6C71.2 44.9 71.1 45 71 45z"/><path fill="#6d1b18" d="M60.2,48.6c0,0.1,0,0.2,0,0.4c0,1,1.2,1.9,2.6,1.9s2.5-0.8,2.5-1.8c0-0.1,0-0.2,0-0.4L60.2,48.6z"/><path fill="#ee3e54" d="M64,50.5c-0.8-0.6-1.9-0.6-2.7,0C62.1,50.9,63.1,50.9,64,50.5z"/><path fill="#fdfcef" d="M60.9,48.6V49c0,0.3,0.4,0.5,0.8,0.5h2c0.5,0,0.8-0.2,0.8-0.5v-0.4H60.9z"/><path fill="#472b29" d="M62.7,51c-1.5,0-2.8-1-2.8-2.1c0-0.1,0-0.3,0-0.4c0-0.1,0.1-0.2,0.2-0.2l5.1,0 c0.1,0,0.2,0.1,0.2,0.2c0,0.1,0,0.3,0,0.4C65.5,50.1,64.3,51,62.7,51z M60.3,48.8c0,0,0,0.1,0,0.1c0,0.9,1.1,1.7,2.4,1.7 c1.3,0,2.3-0.7,2.3-1.6c0-0.1,0-0.1,0-0.2L60.3,48.8z"/><path fill="#472b29" d="M62.7 47.2c.6 0 1.1-.2 1.5-.7 0 0 0-.1 0-.2l0 0c0 0-.1 0-.1 0-.4.4-.8.6-1.3.5-.5 0-1-.2-1.3-.5 0 0-.1 0-.1 0h-.1c0 0 0 .1 0 .2C61.6 47 62.1 47.2 62.7 47.2zM63.3 52.2C63.4 52.2 63.4 52.2 63.3 52.2 63.4 52.2 63.4 52.2 63.3 52.2c.1-.1 0-.1 0-.1H62c0 0-.1 0-.1.1 0 0 0 .1.1.1 0 0 0 0 0 0H63.3z" opacity=".41"/><path fill="#512c2b" d="M61.2 38.2c-1.8-.5-3.7-.7-5.5-.6-.1 0-.2 0-.2.1s0 .2.1.2c0 0 .1 0 .1 0 0 0 3.8.7 5 1.1h.1c.1 0 .1 0 .2-.1l.5-.5c0 0 0-.1 0-.1C61.2 38.2 61.2 38.2 61.2 38.2zM64.1 38.1c1.8-.4 3.7-.5 5.6-.3.1 0 .1.1.1.2 0 .1-.1.1-.1.1 0 0-3.8.5-5 .8h-.1c-.1 0-.1 0-.2-.1L64 38.3c0 0 0-.1 0-.1C64 38.1 64.1 38.1 64.1 38.1z"/><path fill="#472b29" d="M58.5 39.8c-.4 0-.7.3-.9.6 0 0 .1 0 .2 0 .3 0 .6.3.6.6 0 .3-.3.6-.6.6l0 0c-.1 0-.2 0-.3-.1.1.5.5.9 1 1 .7-.2 1.2-.9 1-1.7C59.4 40.3 59 39.9 58.5 39.8L58.5 39.8zM66.7 39.8c-.3 0-.6.2-.8.5.1 0 .1 0 .2 0 .3 0 .6.3.6.6 0 .3-.3.6-.6.6l0 0c-.2 0-.4-.1-.5-.3-.1.6.2 1.2.8 1.3s1.2-.2 1.3-.8c0-.2 0-.3 0-.5C67.9 40.5 67.4 39.9 66.7 39.8 66.7 39.8 66.7 39.8 66.7 39.8z"/><path fill="#a1a1ca" d="M56.7,56.2c1.1,0.9,9.3,1.4,11.6-0.4l3.5,1.2l1,13.8c0,0-8.2,4.6-20.4,0.2L53,57.4L56.7,56.2z"/><path fill="#472b29" d="M62.9,53.7c-1.5,0-3.8-1.2-3.9-1.3c-0.1-0.1-0.2-0.2-0.1-0.3c0.1-0.1,0.2-0.2,0.3-0.1 c0,0,2.5,1.4,3.8,1.2c1.1-0.2,2.2-0.6,3.2-1.2c0.1-0.1,0.3,0,0.3,0.1c0.1,0.1,0,0.3-0.1,0.3c-1,0.6-2.2,1-3.4,1.3 C63.1,53.7,63,53.7,62.9,53.7z"/><path fill="#472b29" d="M62.1,73.4c-4.9,0-9.8-1.3-14.3-3.9c0,0-0.1,0-0.1-0.1c0,0-0.1-0.1-0.1-0.1 c-0.1-0.1-0.2-0.2-0.2-0.2c-0.1-0.1-0.1-0.2-0.1-0.4c0,0,0-0.1,0-0.3c-0.2-6,0.9-9.6,3.1-10.7c0.5-0.3,1.1-0.5,1.7-0.7l5.8-1.9 c0.3-0.1,0.5-0.3,0.6-0.5c0-0.3,0.2-1.4,0.2-2c-1.6-0.9-3-2.1-4.3-3.5c-0.5-0.7-0.8-1.6-0.8-2.5v-1.4c-0.6-0.2-1-0.6-1.1-1.2 c-0.3-0.9-0.7-2.8-0.7-2.9c-0.3-0.9-0.1-1.4,0.1-1.7c0.2-0.3,0.5-0.5,1.1-0.7c0-0.1,0-0.1,0-0.2c-0.2-0.4-0.3-0.9-0.4-1.3 c0-5,4.4-9,9.8-9c5.4,0,9.8,4,9.8,8.9c0,0.5-0.1,1-0.3,1.4v0.2c0.6,0.1,1.1,0.3,1.4,0.7c0.2,0.3,0.5,0.9,0.2,1.7l-0.1,0.3 c-0.1,0.6-0.5,1.9-0.7,2.6c-0.1,0.5-0.5,0.9-0.9,1.1V47c0,0.5-0.2,1.1-0.4,1.5c-1.3,1.8-2.9,3.3-4.8,4.5c0,0.5,0,1.1,0.2,1.6 c0.1,0.2,0.3,0.4,0.6,0.4c0.3,0.1,6.1,2.1,7,2.5l0.7,0.3c2.9,0.9,3,4.7,3.1,9.8l0,0.6c0,0.2-0.1,0.3-0.2,0.4 c-0.1,0-0.1,0.1-0.2,0.1C72.9,71.9,67.5,73.4,62.1,73.4z M48.3,68.7c9,5.2,20,4.9,28.7-0.7l0-0.3c-0.1-4.9-0.2-8.2-2.4-8.9 l-0.7-0.3C72.9,58.1,67,56,66.9,56c-0.5-0.1-1-0.5-1.2-1.1c-0.2-0.8-0.3-1.5-0.2-2.2c0-0.2,0.1-0.3,0.2-0.4 c1.8-1.2,3.4-2.6,4.7-4.4c0.2-0.3,0.3-0.6,0.3-1l0-2.2c0-0.2,0.2-0.5,0.4-0.5c0.3,0,0.5-0.2,0.5-0.5c0.2-0.7,0.5-2.1,0.7-2.6 c0-0.2,0.1-0.3,0.1-0.3l0,0c0.1-0.3,0.1-0.6,0-0.8c-0.2-0.2-0.6-0.4-1.1-0.4c-0.1,0-0.3,0-0.4-0.1c-0.1-0.1-0.2-0.2-0.2-0.4 v-0.8c0-0.1,0-0.2,0.1-0.2c0.2-0.3,0.2-0.7,0.3-1c0-4.4-3.9-7.9-8.8-7.9c-4.8,0-8.8,3.6-8.8,7.9c0,0.3,0.1,0.7,0.3,1 c0,0,0,0.1,0,0.1c0,0.3,0.1,0.6,0.1,0.9c0,0.1,0,0.3-0.1,0.4c-0.1,0.1-0.2,0.2-0.4,0.2c-0.4,0-0.7,0.1-0.9,0.3 c-0.1,0.2-0.1,0.5,0,0.9c0,0.1,0.5,2,0.7,2.9c0.1,0.3,0.3,0.6,0.6,0.6c0,0,0,0,0,0c0.1,0,0.3,0.1,0.4,0.1 c0.1,0.1,0.1,0.2,0.1,0.4v1.9c0,0.7,0.2,1.3,0.5,1.8c1.2,1.3,2.7,2.5,4.3,3.4c0.2,0.1,0.3,0.3,0.3,0.4c0,0.6-0.1,2.1-0.2,2.5 c-0.2,0.7-0.7,1.1-1.3,1.2L52.2,58c-0.5,0.2-1.1,0.4-1.5,0.6c-1,0.5-2.7,2.5-2.6,9.8c0,0.1,0,0.1,0,0.1c0,0,0,0,0,0 C48.2,68.6,48.3,68.7,48.3,68.7z"/><path fill="#3a2221" d="M69.4,27.1c0-0.2,0-0.3-0.1-0.5c0-0.2,0.1-0.3,0.1-0.5c0-1-0.7-1.8-1.7-2.1 c-0.1-1.3-1.2-2.3-2.5-2.3c-0.7-1.4-2.5-2-3.9-1.2c-0.5,0.2-0.8,0.6-1.1,1c-0.2,0-0.4-0.1-0.6-0.1c-1.3-0.1-2.3,0.9-2.4,2.1 c0,0,0,0.1,0,0.1c-1.1,0.3-1.9,1.2-1.9,2.4c0,0.6,0.2,1.1,0.6,1.5c-0.3,0.4-0.5,0.8-0.5,1.3c0.1,1.2,1.1,2.2,2.3,2.1 c0,0,0,0,0,0c0.3,0,0.6-0.1,0.9-0.2c0.1,1,1,1.8,2,1.8c0.2,0,0.4,0,0.6-0.1c0.6,0.6,1.4,1,2.2,1c1.3,0,2.5-0.9,2.8-2.2 c0.9-0.3,1.6-1.1,1.7-2.1C68.8,28.8,69.4,28,69.4,27.1z"/><path fill="#512c2b" d="M62.5,26.4c-8.5,0-11.6,7.3-9,14.4c0.1,0.2,0.3,0.3,0.5,0.2c0.1,0,0.2-0.1,0.2-0.2 c0.3-4.1,2.3-7.5,8.3-5.7c6.1-1.7,8,1.7,8.3,5.7c0.1,0.2,0.3,0.3,0.5,0.3c0.1,0,0.2-0.1,0.2-0.2C74.1,33.7,71,26.4,62.5,26.4z"/><path fill="#472b29" d="M61.4 39.4c-1.7-2-8-.6-8-.6.1.5.2.9.3 1.4.5 0 .5 1.1.5 1.5.2 1.9 1.5 3.2 4.1 3.2 1.8 0 3.3-1.4 3.4-3.2 0 0 0 0 0 0C61.8 40.9 61.7 40.1 61.4 39.4zM61.1 41.7c0 1.5-1.2 2.7-2.7 2.7 0 0 0 0-.1 0h-.5c-2.6 0-3.1-2.3-3.1-3.7 0-.8.6-1.5 1.4-1.6.5 0 1 0 1.6 0 2 0 2.8.5 3 .8C61 40.4 61.2 41.1 61.1 41.7zM63.3 41.6c0 1.8 1.5 3.3 3.3 3.2 0 0 0 0 0 0 2.6.1 3.9-1.3 4.1-3.2.1-.4.1-1.4.6-1.5.1-.5.2-.9.3-1.4 0 0-6.3-1.5-8 .6C63.3 40.1 63.2 40.9 63.3 41.6zM64.3 39.9c.2-.4 1.1-.8 3-.8.6 0 1.2 0 1.6 0 .8.1 1.4.8 1.4 1.6 0 1.5-.5 3.7-3.1 3.7h-.5c-1.5 0-2.8-1.1-2.8-2.7 0 0 0 0 0-.1C63.8 41.1 63.9 40.4 64.3 39.9L64.3 39.9z"/><path fill="#472b29" d="M63.6,41c-0.3-0.2-0.8-0.4-1.2-0.3c-0.4,0-0.8,0.1-1.1,0.3L61,40h3C63.8,40.4,63.7,40.7,63.6,41z"/></svg>