<svg xmlns="http://www.w3.org/2000/svg" baseProfile="basic" viewBox="0 0 100 100"><circle cx="50.125" cy="49.958" r="37" fill="#f9dbd2"/><circle cx="13.125" cy="28.958" r="2" fill="#ee3e54"/><circle cx="77.125" cy="12.958" r="1" fill="#f1bc19"/><circle cx="83.125" cy="14.958" r="4" fill="#f1bc19"/><circle cx="87.125" cy="23.958" r="2" fill="#ee3e54"/><circle cx="81.125" cy="75.958" r="2" fill="#fbcd59"/><circle cx="15.125" cy="65.958" r="4" fill="#fbcd59"/><circle cx="25.125" cy="86.958" r="2" fill="#ee3e54"/><circle cx="82.125" cy="37.958" r="1" fill="#fff"/><circle cx="26.125" cy="73.958" r="1" fill="#f1bc19"/><circle cx="34.5" cy="63.5" r="5.8" fill="#9f8066"/><path fill="#472b29" d="M34.5,58.4c2.812,0,5.1,2.288,5.1,5.1s-2.288,5.1-5.1,5.1s-5.1-2.288-5.1-5.1 S31.688,58.4,34.5,58.4 M34.5,57c-3.59,0-6.5,2.91-6.5,6.5s2.91,6.5,6.5,6.5s6.5-2.91,6.5-6.5S38.09,57,34.5,57L34.5,57z"/><circle cx="68.5" cy="63.5" r="5.8" fill="#9f8066"/><path fill="#472b29" d="M68.5,58.4c2.812,0,5.1,2.288,5.1,5.1s-2.288,5.1-5.1,5.1s-5.1-2.288-5.1-5.1 S65.688,58.4,68.5,58.4 M68.5,57c-3.59,0-6.5,2.91-6.5,6.5s2.91,6.5,6.5,6.5s6.5-2.91,6.5-6.5S72.09,57,68.5,57L68.5,57z"/><circle cx="68.5" cy="63.5" r="2.5" fill="#f9e65c"/><path fill="#472b29" d="M68.5,66.5c-1.654,0-3-1.346-3-3s1.346-3,3-3s3,1.346,3,3S70.154,66.5,68.5,66.5z M68.5,61.5 c-1.103,0-2,0.897-2,2s0.897,2,2,2s2-0.897,2-2S69.603,61.5,68.5,61.5z"/><circle cx="34.5" cy="63.5" r="2.5" fill="#f9e65c"/><path fill="#472b29" d="M34.5,66.5c-1.654,0-3-1.346-3-3s1.346-3,3-3s3,1.346,3,3S36.154,66.5,34.5,66.5z M34.5,61.5 c-1.103,0-2,0.897-2,2s0.897,2,2,2s2-0.897,2-2S35.603,61.5,34.5,61.5z"/><path fill="#a1d3a2" d="M60.261,60.3c1.355-3.388,4.575-5.6,8.239-5.6c3.65,0,6.86,2.196,8.189,5.6H60.261z"/><path fill="#472b29" d="M68.5,55.4c3.004,0,5.685,1.617,7.093,4.2H61.407C62.815,57.017,65.496,55.4,68.5,55.4 M68.5,54 c-4.042,0-7.485,2.527-8.856,6.085C59.475,60.524,59.79,61,60.26,61H76.74c0.47,0,0.786-0.476,0.617-0.915 C75.985,56.527,72.542,54,68.5,54L68.5,54z"/><g><path fill="#18c9c4" d="M27.176,58.641c-0.079-0.021-0.148-0.073-0.188-0.145c-0.024-0.045-0.049-0.115-0.024-0.197 c2.135-7.045,7.279-9.558,11.036-9.569l9.227-0.025l-0.673,6.94c-0.076,0.779,0.182,1.558,0.708,2.137 c0.524,0.578,1.273,0.91,2.054,0.91c1.138-0.008,2.013-0.021,3.378-0.041l4.604-0.063l0.206-0.258 c7.46-9.312,3.461-18.543,1.708-21.665l1.564-0.003c7.599,4.343,9.231,13.179,9.492,15.004l-12.5,11.602l-12.636,0.041 L27.176,58.641z"/><path fill="#472b29" d="M60.587,37.362c6.782,3.981,8.548,11.742,8.931,14.043L57.49,62.569l-12.272,0.039l-17.45-4.536 c2.097-6.352,6.791-8.632,10.232-8.642c3.776-0.011,6.76-0.019,8.453-0.023l-0.598,6.171c-0.095,0.976,0.229,1.951,0.887,2.676 c0.657,0.724,1.594,1.139,2.597,1.139c0,0,0,0,0,0c1.121-0.008,1.998-0.021,3.371-0.041c1.033-0.015,2.348-0.034,4.263-0.059 l0.661-0.008l0.413-0.516c7.009-8.749,4.246-17.443,2.312-21.405L60.587,37.362 M60.958,35.961l-3,0.006 c0,0,7.894,10.821-1.002,21.925c-4.451,0.057-5.664,0.086-7.626,0.1c-0.005,0-0.01,0-0.016,0c-1.226,0-2.184-1.057-2.065-2.28 l0.748-7.71c0,0-4,0.009-10,0.027c-4.128,0.012-9.522,2.865-11.704,10.066c-0.16,0.529,0.172,1.084,0.707,1.223l18.042,4.69 l13-0.042l12.964-12.033C71.006,51.934,70,41,60.958,35.961L60.958,35.961z"/></g><g><path fill="#a1d3a2" d="M59.5,36.3c-1.544,0-2.8-1.256-2.8-2.8s1.256-2.8,2.8-2.8h5.606l-1.633,5.595L63.467,36.3H59.5z"/><path fill="#472b29" d="M64.144,31.4l-1.2,4.2H59.5c-1.158,0-2.1-0.942-2.1-2.1s0.942-2.1,2.1-2.1H64.144 M65.106,30H59.5 c-1.933,0-3.5,1.567-3.5,3.5s1.567,3.5,3.5,3.5h3.967c0.316,0,0.593-0.209,0.68-0.513l1.608-5.628 C65.878,30.429,65.554,30,65.106,30L65.106,30z"/></g><g><path fill="#472b29" d="M68.5,64c-0.209,0-0.404-0.133-0.475-0.342l-1-3c-0.087-0.262,0.055-0.545,0.316-0.633 c0.263-0.087,0.545,0.055,0.633,0.316l1,3c0.087,0.262-0.055,0.545-0.316,0.633C68.605,63.992,68.553,64,68.5,64z"/></g><g><path fill="#472b29" d="M34.5,64c-0.075,0-0.151-0.017-0.224-0.053c-0.247-0.124-0.347-0.424-0.224-0.671l1-2 c0.124-0.246,0.425-0.347,0.671-0.224c0.247,0.124,0.347,0.424,0.224,0.671l-1,2C34.859,63.898,34.683,64,34.5,64z"/></g><g><path fill="#472b29" d="M29.5,57.75c-0.048,0-0.096-0.014-0.139-0.042c-0.115-0.076-0.146-0.231-0.069-0.347 c0.647-0.972,1.632-1.869,2.846-2.597c0.12-0.069,0.271-0.033,0.344,0.086c0.07,0.119,0.032,0.272-0.086,0.344 c-1.151,0.688-2.081,1.534-2.688,2.444C29.66,57.711,29.58,57.75,29.5,57.75z"/></g><g><path fill="#472b29" d="M33.595,54.545c-0.096,0-0.188-0.056-0.229-0.149c-0.055-0.127,0.003-0.274,0.129-0.33 c0.759-0.332,1.545-0.587,2.335-0.758c0.135-0.027,0.268,0.057,0.297,0.191s-0.057,0.268-0.191,0.297 c-0.758,0.164-1.511,0.409-2.239,0.729C33.662,54.538,33.628,54.545,33.595,54.545z"/></g><g><path fill="#472b29" d="M43.5,59.75c-0.138,0-0.25-0.112-0.25-0.25c0-0.048-0.05-4.817-3.811-5.758 c-0.604-0.15-1.289-0.202-2.049-0.154c-0.135,0.023-0.256-0.096-0.265-0.233c-0.01-0.138,0.096-0.256,0.233-0.265 c0.804-0.053,1.546,0.004,2.201,0.168c4.142,1.035,4.189,6.19,4.189,6.242C43.75,59.638,43.638,59.75,43.5,59.75L43.5,59.75z"/></g><g><path fill="#472b29" d="M72.367,58.809c-0.062,0-0.123-0.022-0.172-0.068c-0.722-0.681-1.562-1.144-2.498-1.373 c-0.134-0.033-0.216-0.169-0.184-0.303c0.033-0.134,0.171-0.215,0.303-0.184c1.021,0.252,1.937,0.755,2.723,1.496 c0.1,0.095,0.104,0.253,0.01,0.354C72.5,58.782,72.434,58.809,72.367,58.809z"/></g><g><path fill="#472b29" d="M66.861,57.372c-0.107,0-0.207-0.07-0.239-0.179c-0.04-0.132,0.035-0.271,0.167-0.311 c0.027-0.008,0.69-0.2,1.66-0.183c0.138,0.003,0.247,0.118,0.244,0.256s-0.087,0.247-0.256,0.244 c-0.872-0.021-1.499,0.16-1.505,0.161C66.909,57.369,66.885,57.372,66.861,57.372z"/></g><g><path fill="#472b29" d="M59.5,38h-6c-0.276,0-0.5-0.224-0.5-0.5s0.224-0.5,0.5-0.5h6c0.276,0,0.5,0.224,0.5,0.5 S59.776,38,59.5,38z"/></g><g><path fill="#472b29" d="M46,49.5H24c-0.553,0-1-0.448-1-1s0.447-1,1-1h22c0.553,0,1,0.448,1,1S46.553,49.5,46,49.5z"/></g><g><polygon fill="#f6cca4" points="27.17,47.8 27.2,37.67 38.83,37.7 38.8,47.8"/><path fill="#472b29" d="M38.1,38.4v8.7H27.9v-8.7H38.1 M38.83,37H27.17c-0.37,0-0.67,0.3-0.67,0.67v10.16 c0,0.37,0.3,0.67,0.67,0.67h11.66c0.37,0,0.67-0.3,0.67-0.67V37.67C39.5,37.3,39.2,37,38.83,37L38.83,37z"/></g><g><path fill="#e18e4b" d="M39.7,48.3v-1.247c0-1.849,1.504-3.353,3.353-3.353H49c1.269,0,2.3,1.032,2.3,2.3 s-1.031,2.3-2.3,2.3H39.7z"/><path fill="#472b29" d="M49,44.4c0.882,0,1.6,0.718,1.6,1.6s-0.718,1.6-1.6,1.6h-8.6v-0.547 c0-1.463,1.19-2.653,2.653-2.653H49 M49,43h-5.947C40.815,43,39,44.815,39,47.053V49h10c1.657,0,3-1.343,3-3S50.657,43,49,43 L49,43z"/></g></svg>