<svg xmlns="http://www.w3.org/2000/svg" viewBox="0 0 100 100"><path fill="#fff" d="M19.714 55.760999999999996A.886.886 0 1 0 19.714 57.533.886.886 0 1 0 19.714 55.760999999999996zM78.764 31.092A.684.684 0 1 0 78.764 32.46.684.684 0 1 0 78.764 31.092z"/><path fill="#f1bc19" d="M76.134 11.856000000000002A.886.886 0 1 0 76.134 13.628.886.886 0 1 0 76.134 11.856000000000002zM20.209 63.434999999999995A.886.886 0 1 0 20.209 65.207.886.886 0 1 0 20.209 63.434999999999995z"/><path fill="#f9dbd2" d="M49.249 12.527999999999999A37.445 37.445 0 1 0 49.249 87.418A37.445 37.445 0 1 0 49.249 12.527999999999999Z"/><path fill="#f1bc19" d="M81.575 10.89A4.007 4.007 0 1 0 81.575 18.904A4.007 4.007 0 1 0 81.575 10.89Z"/><path fill="#ee8670" d="M85.583 22.084A1.884 1.884 0 1 0 85.583 25.852A1.884 1.884 0 1 0 85.583 22.084Z"/><path fill="#fbcd59" d="M76.597 74.499A1.884 1.884 0 1 0 76.597 78.267 1.884 1.884 0 1 0 76.597 74.499zM13.436 59.428000000000004A4.007 4.007 0 1 0 13.436 67.44200000000001 4.007 4.007 0 1 0 13.436 59.428000000000004z"/><path fill="#ee8670" d="M23.675 85.68599999999999A1.884 1.884 0 1 0 23.675 89.454A1.884 1.884 0 1 0 23.675 85.68599999999999Z"/><path fill="#fff" d="M75.249 28.467000000000002A1.796 1.796 0 1 0 75.249 32.059000000000005 1.796 1.796 0 1 0 75.249 28.467000000000002zM17.177 48.785000000000004A2.541 2.541 0 1 0 17.177 53.867 2.541 2.541 0 1 0 17.177 48.785000000000004z"/><path fill="#d8ad8f" d="M61.462,42.153c0.132-1.518-0.322-2.821-0.224-3.575c-0.002-0.002-0.004-0.002-0.006-0.004 c-1.333-1.647-2.172-3.593-4.009-4.767c-2.018-1.29-4.46-2.244-6.78-2.828c-5.699-1.434-11.304,2.738-13.066,8.127 c-0.013,0.041-0.038,0.068-0.057,0.101c0.212,1.203,0.375,2.333,0.372,2.94c-1.541-0.03-2.325,0.811-1.794,2.431 c0.007,0.023,0.598,2.632,0.995,3.883c0.267,0.841,0.756,1.177,1.478,1.208c0.007,0.835,0.009,1.669-0.027,2.502 c-0.045,1.048,0.271,1.962,0.859,2.814c1.503,2.176,9.226,7.201,11.094,7.016c3.03,0.005,9.017-5.141,10.589-7.7 c0.261-0.425,0.466-1.19,0.471-1.688c0.01-0.988,0.01-1.976,0.012-2.963c0.608-0.085,1.029-0.432,1.269-1.19 c0.397-1.251,0.988-3.86,0.995-3.883C64.167,42.957,63.003,42.122,61.462,42.153z"/><path fill="#b2876b" d="M66.078,67.723c-0.088-0.027-0.206-0.071-0.34-0.123c-0.154-0.068-0.348-0.148-0.576-0.238 c-1.229-0.528-9.263-3.267-9.263-3.267c-0.602-0.155-0.993-0.591-1.22-1.082c-0.374-0.811-0.229-2.914-0.229-2.914 s-2.321,1.062-4.225,1.424c-1.868,0.185-5.152-2.272-5.152-2.272s-0.094,3.037-0.221,3.712c-0.1,0.53-0.661,0.978-1.263,1.133 l-7.739,2.583c-0.775,0.206-1.519,0.5-2.173,0.911c-1.986,1.246-2.882,3.207-3.274,4.681c-0.017-0.002-0.033-0.002-0.05-0.004 c-0.025,0.103-0.056,0.321-0.09,0.607c-0.141,0.715-0.158,1.227-0.139,1.346c-0.044,0.464-0.122,7.164-0.167,7.701 c7.213,5.461,12.041,4.663,22.547,5.43c4.348,0.317,12.323-3.464,17.376-6.102C69.44,71.871,70.339,69.031,66.078,67.723z"/><g opacity=".3"><path fill="#f4989e" d="M42.68 48.823A1.966 1.996 0 1 0 42.68 52.815000000000005 1.966 1.996 0 1 0 42.68 48.823zM57.802 48.823A1.966 1.996 0 1 0 57.802 52.815000000000005 1.966 1.996 0 1 0 57.802 48.823z" opacity=".8"/></g><path fill="#472b29" d="M38.654 50.387c-.101 0-.188-.077-.198-.18l-.823-8.044c-.012-.11.068-.208.178-.22.118-.009.208.07.219.179l.823 8.044c.012.11-.068.208-.178.22C38.668 50.386 38.661 50.387 38.654 50.387zM61.156 49.952c-.004 0-.008 0-.012-.001-.11-.006-.194-.102-.188-.211l.492-8.071c.006-.106.095-.188.2-.188.004 0 .008 0 .012.001.11.006.194.102.188.211l-.492 8.071C61.349 49.87 61.261 49.952 61.156 49.952z"/><path fill="#6d1b18" d="M46.632,54.895c-0.04,0.155-0.063,0.314-0.063,0.477c0,1.397,1.545,2.529,3.451,2.529 c1.906,0,3.451-1.132,3.451-2.529c0-0.163-0.023-0.322-0.063-0.477H46.632z"/><path fill="#ee3e54" d="M51.843,57.512c-0.303-0.354-1.005-0.602-1.823-0.602s-1.52,0.248-1.823,0.602 c0.53,0.243,1.152,0.39,1.823,0.39C50.692,57.901,51.313,57.755,51.843,57.512z"/><path fill="#fdfcef" d="M47.621,54.895c-0.002,0.015-0.007,0.029-0.007,0.044v0.427c0,0.374,0.493,0.68,1.095,0.68h2.623 c0.602,0,1.095-0.306,1.095-0.68V54.94c0-0.015-0.006-0.03-0.007-0.044H47.621z"/><path fill="#472b29" d="M50.02,58.102c-2.013,0-3.651-1.225-3.651-2.729c0-0.173,0.024-0.351,0.07-0.527 c0.023-0.088,0.103-0.149,0.193-0.149h6.776c0.091,0,0.17,0.062,0.193,0.149c0.046,0.177,0.07,0.354,0.07,0.527 C53.672,56.877,52.034,58.102,50.02,58.102z M46.793,55.096c-0.017,0.093-0.024,0.186-0.024,0.276 c0,1.284,1.458,2.329,3.251,2.329c1.793,0,3.251-1.045,3.251-2.329c0-0.091-0.008-0.184-0.024-0.276H46.793z"/><path fill="#472b29" d="M50.02 53.02c.77 0 1.518-.336 1.999-.9.048-.057.042-.142-.014-.191l0 0c-.056-.048-.141-.043-.191.013-.392.448-1.046.705-1.793.705-.748 0-1.402-.257-1.794-.705-.027-.031-.064-.046-.102-.046-.031 0-.063.011-.089.033-.056.049-.063.134-.014.191C48.502 52.683 49.25 53.02 50.02 53.02zM50.908 59.746c.043 0 .079-.041.079-.089s-.036-.089-.079-.089h-1.776c-.043 0-.079.041-.079.089s.036.089.079.089H50.908z" opacity=".41"/><path fill="#512c2b" d="M47.975 40.974c-1.976-.674-5.377-.997-7.422-.778-.116.013-.203.091-.207.188-.004.096.076.183.19.206.041.008 5.075.877 6.643 1.43.027.009.054.015.082.016.079.004.158-.024.207-.078l.615-.677c.045-.049.059-.114.038-.174C48.099 41.048 48.045 40.998 47.975 40.974zM51.974 40.779c2.008-.57 5.421-.716 7.452-.39.115.019.198.102.197.199-.001.096-.085.179-.201.196-.041.006-5.114.611-6.709 1.083-.027.008-.055.012-.082.012-.08 0-.156-.032-.203-.089l-.579-.709c-.042-.052-.053-.117-.029-.176C51.846 40.846 51.902 40.799 51.974 40.779z"/><path fill="#472b29" d="M44.426 43.049c-.505 0-.948.33-1.205.828.064-.02.13-.033.199-.033.414 0 .75.37.75.827 0 .457-.336.827-.75.827-.136 0-.261-.043-.371-.112.177.749.726 1.295 1.376 1.295.793 0 1.437-.813 1.437-1.816C45.863 43.862 45.219 43.049 44.426 43.049zM55.419 43.049c-.431 0-.817.241-1.08.621.082-.034.171-.055.264-.055.414 0 .75.37.75.827 0 .457-.336.827-.75.827-.257 0-.483-.143-.618-.36.019.982.653 1.772 1.435 1.772.793 0 1.437-.813 1.437-1.816C56.856 43.862 56.212 43.049 55.419 43.049z"/><path fill="#ee8670" d="M41.308,65.04c1.533,1.217,12.936,1.849,16.113-0.549l4.851,1.646l1.381,18.432 c0,0-11.317,6.183-28.288,0.208l0.741-18.102L41.308,65.04z"/><g><path fill="#472b29" d="M50.368,61.694c-1.908,0-5.011-1.673-5.147-1.747c-0.122-0.066-0.167-0.218-0.101-0.339 c0.066-0.123,0.219-0.166,0.339-0.101c0.034,0.018,3.389,1.829,5.106,1.679c1.745-0.146,4.293-1.588,4.319-1.602 c0.121-0.07,0.272-0.027,0.341,0.093c0.068,0.12,0.026,0.272-0.094,0.341c-0.108,0.063-2.668,1.511-4.524,1.666 C50.53,61.691,50.45,61.694,50.368,61.694z"/></g><g><path fill="#472b29" d="M49.249,87.945c-6.691,0-13.279-1.775-19.05-5.134c-0.034-0.021-0.065-0.044-0.093-0.07 l-0.185-0.169c-0.109-0.098-0.219-0.196-0.325-0.306c-0.101-0.104-0.151-0.246-0.139-0.39c0.002-0.055-0.002-0.202-0.007-0.424 c-0.194-7.932,1.165-12.695,4.04-14.157c0.632-0.321,1.419-0.722,2.271-0.948l7.709-2.574c0.479-0.125,0.873-0.45,0.93-0.751 c0.063-0.331,0.154-1.407,0.249-2.906c-2.308-1.454-4.938-3.423-5.815-4.693c-0.685-0.992-0.994-2.013-0.946-3.12 c0.029-0.681,0.033-1.363,0.029-2.045c-0.715-0.169-1.194-0.661-1.457-1.493c-0.232-0.73-0.559-2.002-0.973-3.779l-0.031-0.13 c-0.372-1.131-0.108-1.838,0.18-2.228c0.244-0.329,0.708-0.708,1.574-0.806c-0.013-0.142-0.03-0.303-0.051-0.481 c-0.33-0.59-0.472-1.664-0.472-1.762c0-6.503,5.789-11.793,12.905-11.793s12.905,5.29,12.905,11.793 c0,0.016-0.092,1.244-0.446,1.868c-0.003,0.054-0.005,0.127-0.009,0.21c-0.002,0.055-0.005,0.111-0.007,0.171 c0.827,0.088,1.5,0.423,1.893,0.953c0.29,0.392,0.564,1.074,0.226,2.105l-0.021,0.099c-0.414,1.777-0.741,3.049-0.972,3.779 c-0.233,0.735-0.652,1.215-1.247,1.429l0,0.203c-0.001,0.792-0.003,1.583-0.011,2.375c-0.006,0.604-0.245,1.457-0.545,1.944 c-1.057,1.721-3.825,4.331-6.378,6.031c-0.023,1.257,0.084,1.963,0.198,2.209c0.138,0.3,0.404,0.683,0.891,0.808 c0.365,0.123,8.103,2.763,9.335,3.293c0.221,0.086,0.421,0.169,0.579,0.238c0.103,0.04,0.209,0.079,0.288,0.104 c3.815,1.171,3.93,6.117,4.09,12.962l0.021,0.875c0.004,0.172-0.081,0.334-0.224,0.429C63.943,85.773,56.714,87.945,49.249,87.945z M30.748,81.974c5.608,3.252,12.005,4.972,18.501,4.972c7.176,0,14.127-2.062,20.123-5.964l-0.014-0.598 c-0.156-6.666-0.258-11.069-3.386-12.03c-0.099-0.03-0.229-0.077-0.376-0.136c-0.167-0.072-0.355-0.149-0.576-0.237 c-1.211-0.521-9.161-3.231-9.241-3.259c-0.64-0.164-1.19-0.646-1.513-1.347c-0.232-0.502-0.327-1.483-0.283-2.918 c0.005-0.164,0.09-0.314,0.228-0.404c2.761-1.789,5.416-4.435,6.292-5.86c0.207-0.337,0.392-1.006,0.396-1.431 c0.008-0.789,0.009-1.578,0.011-2.367l0.001-0.593c0-0.249,0.184-0.46,0.431-0.494c0.323-0.045,0.651-0.179,0.862-0.846 c0.224-0.705,0.543-1.951,0.951-3.703c0.028-0.12,0.047-0.188,0.048-0.192c0.162-0.493,0.135-0.896-0.083-1.19 c-0.274-0.372-0.872-0.612-1.608-0.57c-0.152-0.024-0.278-0.056-0.375-0.158c-0.097-0.104-0.145-0.244-0.133-0.385 c0.017-0.199,0.027-0.449,0.036-0.646c0.011-0.262,0.022-0.514,0.151-0.669c0.099-0.262,0.303-0.949,0.303-1.368 c0-5.951-5.34-10.793-11.905-10.793s-11.905,4.842-11.905,10.793c0,0.455,0.296,1.198,0.38,1.372 c0.041,0.062,0.068,0.134,0.078,0.212c0.062,0.501,0.092,0.873,0.091,1.138c0,0.134-0.055,0.262-0.15,0.355 c-0.096,0.095-0.221,0.149-0.359,0.143c-0.602-0.016-1.073,0.139-1.285,0.424c-0.268,0.362-0.161,0.935-0.024,1.352l0,0 c0,0,0.018,0.067,0.045,0.184c0.508,2.183,0.798,3.219,0.952,3.704c0.218,0.688,0.553,0.84,1.023,0.861 c0.265,0.012,0.475,0.229,0.478,0.495c0.007,0.842,0.009,1.686-0.027,2.527c-0.038,0.882,0.214,1.702,0.771,2.509 c0.706,1.021,3.08,2.901,5.773,4.57c0.157,0.097,0.247,0.271,0.236,0.455c-0.062,1.01-0.18,2.784-0.283,3.328 c-0.151,0.801-0.927,1.343-1.629,1.524l-7.706,2.573c-0.779,0.208-1.483,0.565-2.104,0.881c-1.408,0.717-3.735,3.39-3.494,13.241 c0.002,0.108,0.004,0.202,0.006,0.28c0.044,0.04,0.088,0.08,0.132,0.119L30.748,81.974z"/></g><g><path fill="#3a2221" d="M59.037,26.082c0-0.235-0.029-0.464-0.082-0.686c0.051-0.209,0.08-0.425,0.08-0.648 c0-1.31-0.928-2.421-2.219-2.832c-0.068-1.66-1.552-2.991-3.392-3.029c-0.553-1.239-1.892-2.113-3.458-2.113 c-1.449,0-2.701,0.749-3.32,1.841c-0.253-0.059-0.517-0.093-0.79-0.093c-1.757,0-3.181,1.289-3.181,2.88 c0,0.054,0.006,0.106,0.009,0.159c-1.477,0.427-2.548,1.68-2.548,3.159c0,0.782,0.301,1.499,0.8,2.066 c-0.384,0.47-0.614,1.05-0.614,1.68c0,1.564,1.4,2.831,3.127,2.831c0.448,0,0.873-0.087,1.258-0.241 c0.053,1.315,1.245,2.368,2.71,2.368c0.295,0,0.578-0.044,0.843-0.122c0.687,0.795,1.754,1.307,2.955,1.307 c1.89,0,3.449-1.266,3.712-2.911c1.24-0.453,2.137-1.51,2.249-2.768C58.286,28.377,59.037,27.309,59.037,26.082z"/></g><g><path fill="#512c2b" d="M49.75,25.167c-11.456,0-15.531,9.729-12.101,19.299c0.16,0.446,0.917,0.368,0.955-0.098 c0.446-5.432,3.027-10,11.146-7.684c8.119-2.317,10.7,2.252,11.146,7.684c0.038,0.466,0.795,0.545,0.955,0.098 C65.281,34.896,61.206,25.167,49.75,25.167z"/></g><g><path fill="#3a2221" d="M48.309 42.61c-2.247-2.739-10.72-.796-10.729-.798.156.619.29 1.23.413 1.834.629.065.666 1.478.729 1.995.305 2.498 1.976 4.338 5.494 4.251 3.526-.183 4.35-2.735 4.495-4.342C48.868 43.798 48.307 42.616 48.309 42.61zM47.907 45.678c-.181 2.238-1.555 3.548-3.777 3.656-.225.012-.444.014-.652.005-3.501-.006-4.1-3.07-4.169-5.008-.045-1.109.748-2.059 1.865-2.169.643-.063 1.366-.063 2.202-.063 2.616 0 3.755.624 4.058 1.125C47.611 43.521 48.008 44.463 47.907 45.678zM50.789 45.55c.145 1.606.969 4.158 4.495 4.342 3.518.087 5.189-1.754 5.494-4.251.062-.517.1-1.93.729-1.995.122-.604.257-1.215.413-1.834-.009.002-8.481-1.941-10.729.798C51.192 42.616 50.631 43.798 50.789 45.55zM52.066 43.223c.303-.501 1.442-1.125 4.058-1.125.836 0 1.559 0 2.202.063 1.118.11 1.91 1.06 1.865 2.169-.069 1.938-.668 5.002-4.169 5.008-.208.009-.428.007-.652-.005-2.222-.108-3.596-1.418-3.777-3.656C51.491 44.463 51.888 43.521 52.066 43.223z"/><g><path fill="#3a2221" d="M51.27,44.762c0,0-0.575-0.453-1.579-0.453c-0.941,0-1.46,0.453-1.46,0.453 c-0.154-0.425-0.307-0.848-0.462-1.272c1.321,0.001,2.642,0.001,3.963,0C51.576,43.914,51.423,44.337,51.27,44.762z"/></g></g><g><path fill="#ed6f5a" d="M56.472,67.044c0,0-2.499,0.708-6.964,0.708s-6.964-0.708-6.964-0.708 c-0.879,0-1.599-0.812-1.599-1.804l0,0c0-0.992,0.719-1.804,1.599-1.804c0,0,4.37,0.525,6.853,0.525 c2.483,0,7.074-0.525,7.074-0.525c0.879,0,1.599,0.812,1.599,1.804l0,0C58.071,66.232,57.351,67.044,56.472,67.044z"/><path fill="#472b29" d="M49.508,68.102c-4.188,0-6.642-0.609-7.013-0.708c-1.052-0.029-1.9-0.984-1.9-2.154 c0-1.188,0.875-2.153,1.949-2.153c0.085,0.008,4.42,0.525,6.853,0.525c2.435,0,6.989-0.519,7.035-0.523c0.001,0,0.002,0,0.004,0 c1.112,0,1.984,0.965,1.984,2.151c0,1.17-0.848,2.125-1.899,2.154C56.15,67.492,53.697,68.102,49.508,68.102z M42.503,63.783 c-0.647,0.002-1.207,0.654-1.207,1.456s0.56,1.455,1.249,1.455l0.095,0.013c0.024,0.007,2.515,0.695,6.868,0.695 c4.354,0,6.844-0.688,6.869-0.695l0.095-0.013c0.688,0,1.249-0.653,1.249-1.455s-0.56-1.454-1.249-1.454 c-0.148,0.02-4.6,0.525-7.074,0.525C46.922,64.311,42.683,63.805,42.503,63.783z"/></g></svg>