<svg width="114" height="27" viewBox="0 0 114 27" fill="none" xmlns="http://www.w3.org/2000/svg">
<g clip-path="url(#clip0_2892_16534)">
<path d="M40.2908 16.389H35.0614L33.9658 19.5269H31.5254L36.6053 6.02881H38.6971L43.777 19.5269H41.3367L40.2908 16.389ZM35.7587 14.4962H39.6931L37.7508 8.9177L35.7587 14.4962Z" fill="white"/>
<path d="M53.489 14.6457C53.489 16.1897 53.1404 17.4349 52.4432 18.3315C51.7459 19.2778 50.7996 19.7261 49.6044 19.7261C48.5087 19.7261 47.6122 19.3775 46.9648 18.6303V23.4119H44.7236V9.5154H46.8154L46.915 10.5116C47.5624 9.71463 48.4589 9.31616 49.6044 9.31616C50.8494 9.31616 51.7957 9.76444 52.493 10.661C53.1902 11.5575 53.5388 12.8526 53.5388 14.4464V14.6457H53.489ZM51.2479 14.4464C51.2479 13.4503 51.0487 12.6533 50.6502 12.0556C50.2518 11.4579 49.704 11.1591 48.9569 11.1591C48.0605 11.1591 47.3632 11.5575 46.9648 12.3047V16.7376C47.3632 17.5346 48.0605 17.8832 48.9569 17.8832C49.6542 17.8832 50.2518 17.5844 50.6502 17.0365C51.0487 16.4886 51.2479 15.592 51.2479 14.4464Z" fill="white"/>
<path d="M64.1961 14.6457C64.1961 16.1897 63.8474 17.4349 63.1502 18.3315C62.4529 19.2778 61.5067 19.7261 60.3114 19.7261C59.2157 19.7261 58.3193 19.3775 57.6718 18.6303V23.4119H55.4307V9.5154H57.5224L57.622 10.5116C58.2695 9.71463 59.1659 9.31616 60.3114 9.31616C61.5565 9.31616 62.5027 9.76444 63.2 10.661C63.8972 11.5575 64.2459 12.8526 64.2459 14.4464V14.6457H64.1961ZM61.9549 14.4464C61.9549 13.4503 61.7557 12.6533 61.3573 12.0556C60.9588 11.4579 60.411 11.1591 59.664 11.1591C58.7675 11.1591 58.0702 11.5575 57.6718 12.3047V16.7376C58.0702 17.5346 58.7675 17.8832 59.664 17.8832C60.3612 17.8832 60.9588 17.5844 61.3573 17.0365C61.7557 16.4886 61.9549 15.592 61.9549 14.4464Z" fill="white"/>
<path d="M78.0916 16.0901C78.0916 15.4924 77.8924 15.0441 77.4442 14.6955C77.0457 14.3966 76.2987 14.048 75.203 13.6993C74.1073 13.3507 73.2607 13.002 72.6132 12.6035C71.3681 11.8564 70.7705 10.8104 70.7705 9.56522C70.7705 8.46944 71.2187 7.57289 72.1152 6.87557C73.0117 6.17825 74.1571 5.82959 75.5516 5.82959C76.4979 5.82959 77.3445 5.97902 78.0418 6.32767C78.7888 6.67633 79.3367 7.17442 79.7849 7.82193C80.1833 8.46944 80.4324 9.16675 80.4324 9.96369H78.0916C78.0916 9.26637 77.8924 8.71848 77.4442 8.32001C76.9959 7.92154 76.3485 7.72231 75.5516 7.72231C74.8046 7.72231 74.2069 7.87174 73.7587 8.22039C73.3603 8.56905 73.1113 9.01733 73.1113 9.61503C73.1113 10.1131 73.3603 10.5116 73.8085 10.8602C74.2567 11.2089 75.0038 11.5078 76.0497 11.8066C77.0955 12.1055 77.9422 12.4541 78.5896 12.8526C79.2371 13.251 79.6853 13.6993 79.9841 14.2472C80.283 14.7951 80.4324 15.343 80.4324 16.0403C80.4324 17.1859 79.9841 18.0825 79.1375 18.73C78.2908 19.3775 77.0955 19.7261 75.6512 19.7261C74.6552 19.7261 73.7587 19.5269 72.9618 19.1782C72.165 18.8296 71.5175 18.3315 71.0693 17.684C70.6211 17.0365 70.3721 16.2894 70.3721 15.4426H72.7128C72.7128 16.1897 72.9618 16.7874 73.4599 17.2357C73.9579 17.6342 74.705 17.8832 75.6512 17.8832C76.4481 17.8832 77.0955 17.7338 77.494 17.3851C77.8924 17.0365 78.0916 16.638 78.0916 16.0901Z" fill="white"/>
<path d="M85.0644 7.07471V9.51532H86.8573V11.159H85.0644V16.7375C85.0644 17.136 85.164 17.3851 85.3134 17.5843C85.4628 17.7337 85.7118 17.8333 86.1102 17.8333C86.3592 17.8333 86.6083 17.7835 86.9071 17.7337V19.477C86.409 19.6264 85.911 19.6762 85.413 19.6762C83.6699 19.6762 82.8232 18.7299 82.8232 16.8372V11.2088H81.1797V9.56513H82.8232V7.12452H85.0644V7.07471Z" fill="white"/>
<path d="M87.8535 14.4464C87.8535 13.4503 88.0527 12.6035 88.4512 11.8066C88.8496 11.0096 89.3974 10.4119 90.0947 10.0135C90.7919 9.61501 91.5888 9.36597 92.535 9.36597C93.8797 9.36597 94.9754 9.81424 95.8221 10.661C96.6687 11.5077 97.117 12.7031 97.1668 14.1476V14.6955C97.1668 15.6916 96.9675 16.5882 96.6189 17.3353C96.2703 18.0824 95.6727 18.73 94.9754 19.1284C94.2782 19.5767 93.4315 19.7759 92.535 19.7759C91.1405 19.7759 89.9951 19.3277 89.1484 18.3813C88.3017 17.4349 87.8535 16.1897 87.8535 14.5959V14.4464ZM90.1445 14.6457C90.1445 15.6916 90.3437 16.4886 90.7919 17.0863C91.2402 17.684 91.788 17.9828 92.5848 17.9828C93.3817 17.9828 93.9295 17.684 94.3778 17.0863C94.826 16.4886 95.0252 15.6418 95.0252 14.4962C95.0252 13.5001 94.826 12.7031 94.3778 12.1054C93.9295 11.5077 93.3319 11.2089 92.5848 11.2089C91.8378 11.2089 91.29 11.5077 90.8417 12.1054C90.3437 12.6035 90.1445 13.4503 90.1445 14.6457Z" fill="white"/>
<path d="M104.338 11.5575C104.039 11.5077 103.74 11.5077 103.441 11.5077C102.395 11.5077 101.698 11.9062 101.35 12.7031V19.5767H99.1084V9.51539H101.25L101.3 10.661C101.848 9.81424 102.595 9.36597 103.541 9.36597C103.84 9.36597 104.139 9.41578 104.338 9.51539V11.5575Z" fill="white"/>
<path d="M110.015 19.7261C108.571 19.7261 107.426 19.2778 106.529 18.3813C105.633 17.4847 105.185 16.2893 105.185 14.7951V14.4962C105.185 13.5001 105.384 12.6035 105.782 11.8066C106.181 11.0096 106.728 10.4119 107.426 9.96367C108.123 9.5154 108.92 9.31616 109.766 9.31616C111.111 9.31616 112.207 9.76444 112.954 10.6112C113.701 11.4579 114.05 12.7031 114.05 14.297V15.1936H107.476C107.525 16.0403 107.824 16.6878 108.322 17.1361C108.82 17.6342 109.418 17.8832 110.165 17.8832C111.211 17.8832 112.057 17.4847 112.705 16.638L113.9 17.7836C113.502 18.3813 112.954 18.8296 112.306 19.1782C111.609 19.5767 110.812 19.7261 110.015 19.7261ZM109.717 11.1591C109.119 11.1591 108.621 11.3583 108.223 11.8066C107.824 12.2549 107.625 12.8526 107.476 13.5997H111.759V13.4503C111.709 12.7031 111.51 12.1054 111.161 11.7568C110.862 11.3583 110.364 11.1591 109.717 11.1591Z" fill="white"/>
<path d="M22.3617 19.5767C21.764 20.9215 21.4652 21.5192 20.6683 22.7146C19.5727 24.4081 18.0288 26.4502 16.0864 26.5C14.3931 26.5 13.9449 25.4042 11.6539 25.4042C9.36296 25.4042 8.86493 26.5 7.17161 26.5C5.27908 26.5 3.78498 24.6073 2.6893 22.9138C-0.398506 18.2318 -0.697327 12.7529 1.1952 9.86402C2.53989 7.77206 4.68144 6.57666 6.67358 6.57666C8.71552 6.57666 9.9606 7.67245 11.6539 7.67245C13.2974 7.67245 14.2935 6.57666 16.6343 6.57666C18.4272 6.57666 20.2699 7.52302 21.6146 9.21651C17.1821 11.6073 17.9291 17.8832 22.3617 19.5767Z" fill="white"/>
<path d="M14.7916 4.73372C15.6383 3.63793 16.2857 2.09387 16.0367 0.5C14.6422 0.599617 12.9987 1.49617 12.0524 2.64176C11.2058 3.68774 10.4587 5.2318 10.7575 6.77586C12.3014 6.82567 13.8951 5.87931 14.7916 4.73372Z" fill="white"/>
</g>
<defs>
<clipPath id="clip0_2892_16534">
<rect width="114" height="26" fill="white" transform="translate(0 0.5)"/>
</clipPath>
</defs>
</svg>
