<svg xmlns="http://www.w3.org/2000/svg" width="27" height="27">
    <path fill="#FFF" fill-rule="evenodd" d="M13.492-.008C6.034-.008-.012 6.038-.012 13.497c0 7.458 6.046 13.505 13.504 13.505 7.459 0 13.505-6.047 13.505-13.505 0-7.459-6.046-13.505-13.505-13.505zm6.798 19.352c-.375.75-1.549 2.298-2.76 2.298-1.328 0-4.548-1.759-7.247-5.535-2.523-3.533-3.755-6.083-3.755-7.803 0-1.351.899-1.997 1.386-2.341l.116-.087c.528-.396 1.364-.524 1.676-.524.561 0 .799.338.936.635.116.247 1.121 2.478 1.227 2.761.153.427.1 1.05-.381 1.409l-.084.06c-.239.173-.683.493-.746.88-.026.191.032.387.185.606.777 1.083 3.25 4.27 3.694 4.705.354.337.798.387 1.099.124.313-.273.45-.437.45-.437.064-.056.307-.254.703-.254.291 0 .582.1.868.303.75.527 2.443 1.705 2.443 1.705.243.215.555.771.19 1.495z"/>
</svg>
