<svg xmlns="http://www.w3.org/2000/svg" width="42" height="31">
    <path fill="#333" fill-rule="evenodd" d="M40.384 26.346h-1.605c-.397-2.836-2.772-5.032-5.664-5.032-2.89 0-5.266 2.195-5.663 5.031-.885-.007-1.606-.741-1.606-1.645V8.237c0-.907.726-1.646 1.615-1.646h7.27c1.186 0 1.685.739 2.423 1.646l3.609 4.907S42 14.909 42 16.469V24.7c0 .906-.726 1.646-1.616 1.646zM38.667 15.07l-3.401-4.798s-.362-.389-.622-.389h-3.952v6.586h8.603c0-.412-.327-.948-.628-1.399zM22.615 26.346h-6.452c-.396-2.836-2.772-5.032-5.663-5.032-2.892 0-5.267 2.196-5.664 5.032H1.615C.726 26.346 0 25.606 0 24.7V1.652C0 .745.726.006 1.615.006h21c.89 0 1.616.739 1.616 1.646V24.7c0 .906-.726 1.646-1.616 1.646zM10.5 23.362c2.063 0 3.736 1.705 3.736 3.807 0 2.103-1.673 3.807-3.736 3.807s-3.736-1.704-3.736-3.807c0-2.102 1.673-3.807 3.736-3.807zm22.615 0c2.064 0 3.736 1.705 3.736 3.807 0 2.103-1.672 3.807-3.736 3.807-2.063 0-3.735-1.704-3.735-3.807 0-2.102 1.672-3.807 3.735-3.807z"/>
</svg>
