<svg xmlns="http://www.w3.org/2000/svg" width="40" height="41">
    <path fill="#333" fill-rule="evenodd" d="M39.842 16.562L29.101 40.057c-.259.568-.828.926-1.45.926-.043 0-.087-.001-.13-.004l-.316-.026c-9.766-.77-22.206-2.818-26.007-8.201-1.159-1.643-1.486-3.546-.949-5.504l.004-.013.007-.032c.002-.006.007-.01.008-.017.003-.007.009-.013.011-.021.029-.091.058-.182.104-.268L12.154 4.492c.304-.581.937-.907 1.605-.835.104.011 10.627 1.216 19.087-3.44.592-.33 1.337-.244 1.842.21.506.454.662 1.177.39 1.796L32.57 7.917c.604.157 1.678.339 3.435.339.547 0 1.055.279 1.348.737.29.459.323 1.033.087 1.522l-1.71 3.521c.71.16 1.614.301 2.654.301h.008c.541 0 1.045.271 1.337.721.293.45.335 1.016.113 1.504zM14.485 6.884L4.21 26.44c4.983.742 13.762 1.391 17.264-1.209l9.024-20.494c-6.68 2.462-13.401 2.322-16.013 2.147zm16.804 3.943l-7.052 16.015c-.095.215-.237.406-.416.56-2.591 2.228-7.099 2.863-11.402 2.863-2.3 0-4.539-.182-6.398-.399 3.948 1.695 11.531 2.333 17.431 2.187l10.084-20.772c-.991-.11-1.713-.281-2.247-.454zm3.034 6.109l-8.42 17.345c-.255.525-.783.868-1.371.891-.627.024-1.662.055-2.96.055-3.676 0-9.456-.25-14.086-1.549 4.012 1.917 10.635 3.343 19.179 4.068L36.012 17.3c-.652-.102-1.218-.234-1.689-.364zm-24.084 3.339s1.201-2.162 1.845-3.316c.753-1.353.932-1.527 2.413-2.108.566-.222 1.796-.196 2.044-.843.17-.45.427-.699.198-.873-.391-.297-.725-1.155-.483-1.799.398-1.058.903-2.554 3.066-2.628 1.966-.067 3.066.922 2.337 2.905-.497 1.355-1.019 1.601-1.392 1.847-.398.263-.398.32-.572.886-.171.557 1.078.616 1.691.616 1.218 0 1.481.578 1.069 1.92l-.919 1.454c-3.065 2.782-8.709 2.125-11.297 1.939zm.945 2.568c-.095.478.151.955.724.729.485-.189.661-.82.968-1.19.247-.296.937-.433 1.303-.256.519.25-.15.926.323 1.172.595.311.951-.475 1.179-.869.246-.423.584-.47 1.026-.546.256-.047.833-.237 1.084-.133.293.123-.062.474.35.56.309.063.491-.143.675-.372.206-.26.523-.377.815-.509.434-.197.872-.36 1.282-.608l-1.221 2.459c-.216.435-.252.544-.704.777-.314.161-.606.247-.96.133-.409-.13-.417-.558-.756-.752-.396-.225-.851.437-1.08.708-.313.375-.571.888-1.125.914-.228.011-.428.007-.587-.166-.151-.168-.104-.422-.275-.576-.367-.329-.914-.118-1.181.216-.258.324-.493.795-1.002.632-.541-.171-.251-.742-.62-1.016-.303-.224-.965-.021-1.236.196-.328.265-.561.698-1.024.737-.121.011-1.108-.202-1.133-.151l.961-1.916c.169-.338.317-.704.514-1.026.284-.466 1.111-.131 1.593-.08.576.062.177.585.107.933z"/>
</svg>
