<svg xmlns="http://www.w3.org/2000/svg" width="41" height="42">
    <path fill="#333" fill-rule="evenodd" d="M23.654 41.993L0 30.233V8.805L19.605.976 41 8.805V30.233l-17.346 11.76zm-20.5-31.018v17.272l20.256 10.07.244-.165V18.988L3.245 10.939l-.091.036zm2.248-.897l19.195 7.57 4.851-2.597L11.04 7.826l-5.638 2.252zm14.253-5.692l-4.294 1.715 17.776 6.976 4.168-2.231-17.65-6.46zM7.884 26.216l11.039 5.269v1.972L7.884 28.188v-1.972zm9.462 2.707l-1.577-.608v-4.811l-1.592-.531 2.377-3.103 2.332 4.676-1.54-.515v4.892zm-6.308-2.741l-1.577-.608V21.2l-1.549-.517 2.335-3.019 2.376 4.592-1.585-.529v4.455z"/>
</svg>

