<svg xmlns="http://www.w3.org/2000/svg" width="35" height="46">
    <path fill="#333" fill-rule="evenodd" d="M31.125 34.659c-.515 2.049-1.666 3.515-2.611 3.3a.85.85 0 0 1-.224-.088c-.062.126-.126.252-.198.395-.243.481-.502.934-.773 1.364-.028.046-.059.084-.088.129-.291.453-.595.875-.908 1.273-.107.136-.214.262-.323.391a15.74 15.74 0 0 1-.767.856c-.108.112-.214.226-.323.332-.061.06-.12.129-.182.187-.285.27-.571.519-.857.752l-.021.019-.005.004c-.04.032-.079.059-.118.09-.241.193-.481.375-.718.541-.096.068-.189.126-.284.19-.178.119-.355.236-.528.341-.103.062-.203.118-.304.176-.159.09-.316.177-.468.256a10.85 10.85 0 0 1-.719.338c-.09.038-.178.076-.264.109a8.08 8.08 0 0 1-.387.139c-.075.025-.151.051-.222.072a5.115 5.115 0 0 1-.355.089c-.053.011-.11.027-.159.036a2.554 2.554 0 0 1-.407.042h-.001l-.048-.001c-.048-.002-.113-.015-.167-.02-.072-.008-.138-.012-.22-.027-.071-.013-.155-.036-.233-.055-.091-.022-.177-.04-.278-.069-.088-.027-.186-.064-.281-.097-.105-.036-.206-.067-.319-.112-.105-.041-.219-.095-.33-.143-.115-.05-.225-.094-.345-.152-.122-.058-.252-.131-.378-.197-.12-.063-.235-.119-.359-.189-.137-.078-.281-.171-.423-.258-.12-.074-.237-.141-.359-.222-.154-.101-.312-.22-.469-.332-.115-.083-.228-.157-.344-.245-.188-.143-.378-.305-.567-.464-.087-.073-.173-.136-.26-.213a15.937 15.937 0 0 1-1.096-1.062l-.013-.012c-.313-.334-.619-.7-.92-1.083-.086-.11-.169-.226-.254-.341a16.092 16.092 0 0 1-.664-.962c-.084-.131-.168-.26-.25-.396-.28-.465-.55-.949-.798-1.47a.872.872 0 0 1-.227.089c-.762.174-1.659-.747-2.248-2.187-2.977-2.328-4.94-6.07-6.013-11.744-.271-1.431-.036-3.548.707-4.545 1.964-2.632 5.672-5.886 11.776-7.542a30.88 30.88 0 0 1 5.38-.939c1.264-.111 2.6-.159 4.016-.132a36.884 36.884 0 0 0-4.016-.354c-1.973-.06-3.762.064-5.38.334C5.766 12.144 1.947 16.771.617 20.226-2.015 8.959 4.014 1.866 13.531.321a26.29 26.29 0 0 1 5.38-.292c.201.009.402.02.604.033 1.584.102 3.033.403 4.335.854 5.271 1.828 8.119 6.128 7.627 9.8 2.275 1.305 6.804 16.162-.352 23.943zm-16.133 4.425c.026.079.045.156.089.24.031.06.083.124.123.186.051.079.094.156.157.236.054.067.125.134.187.201.07.076.132.153.212.228.073.069.162.133.242.2.085.07.164.143.256.21.09.065.191.121.287.182.097.062.189.128.293.184.101.056.211.098.316.148.109.05.214.107.326.15.109.041.223.066.334.099.118.036.233.078.354.103.112.024.226.027.339.041.132.016.263.042.396.044.118.002.233-.024.349-.036.13-.013.263-.013.391-.041.095-.021.185-.061.278-.089.142-.042.286-.078.422-.135.07-.03.133-.071.202-.104.151-.073.304-.144.445-.23.043-.026.079-.058.121-.086.158-.103.314-.208.454-.321.018-.015.032-.03.049-.045.158-.13.307-.263.437-.398l.007-.008c.142-.146.267-.293.371-.433.006-.007.008-.013.013-.02.099-.135.181-.265.24-.383.061-.124.098-.235.108-.328-.556.472-2.242.422-3.091.753a1.61 1.61 0 0 1-.385.09c-.049.006-.1.004-.15.007-.084.006-.168.015-.253.013l-.023-.002-.025.001c-.107-.003-.204-.017-.303-.028-.048-.006-.1-.007-.145-.014a2.087 2.087 0 0 1-.356-.082c-.92-.329-2.497-.08-3.122-.682.009.047.039.1.055.149zm-.068-.24c.588.338 1.449.358 2.271.365.51.005 1.007.005 1.406.071.054.009.143.013.236.016l.052.001.117-.001.084-.002c.064-.003.122-.007.161-.014.737-.125 2.87-.111 3.538-.46-.006-.074-.023-.092-.067-.107-.447-.163-2.134-.714-2.919-.761a.989.989 0 0 0-.274.014 2.813 2.813 0 0 1-.618.09l-.023-.003-.025.003a2.341 2.341 0 0 1-.59-.09c-.485-.131-2.273.502-2.988.718-.13.039-.237.069-.28.073-.058.007-.083.038-.082.077l.001.01zm10.421-22.915c2.444-.34 3.81-1.805 4.645-3.492-1.315 1.182-3.548 1.776-6.14 2.299-1.557.314-3.243.603-4.939.977-1.833.405-3.677.912-5.38 1.66-.808.356-1.585.765-2.314 1.245-4.294 2.831-6.67 8.68-4.626 15.559-.146-.758-.181-1.477-.117-2.091.709 2.31 1.723 3.728 2.612 4.931-.626-1.78-1.779-3.979-2.319-8.455a.63.63 0 0 0-.036-.2c.393-3.194 1.661-6.534 5.085-8.659a19.218 19.218 0 0 1 1.715-.95 16.44 16.44 0 0 1 1.444-.621c.151-.057.294-.093.442-.144.311-.106.623-.216.923-.299.175-.048.342-.079.514-.121.263-.063.53-.133.787-.183.192-.038.378-.063.568-.095.218-.036.439-.078.654-.108a.918.918 0 0 0 .048-.007c.449-.063.889-.112 1.327-.161.552-.062 1.099-.123 1.647-.196.225.654.524 1.616.562 2.726.063 1.85-.599 4.109-3.535 6.031.358-.052.691-.119 1.013-.193.095-.022.186-.046.278-.07.23-.059.451-.124.662-.194.083-.027.169-.054.249-.083.273-.099.535-.204.777-.32l.037-.019a7.32 7.32 0 0 0 .646-.358c.066-.04.128-.082.191-.124.151-.1.296-.204.433-.312.054-.042.109-.083.161-.126.177-.148.345-.301.498-.459.044-.046.081-.095.123-.142a6.24 6.24 0 0 0 .341-.397c.054-.07.099-.143.15-.214.083-.117.167-.233.241-.352.021-.033.037-.068.057-.101.133-.223.251-.45.358-.678.029-.064.059-.127.087-.191a9.953 9.953 0 0 0 .313-.814c.082-.245.152-.488.215-.728l.051-.193c.061-.242.118-.482.168-.712 3.287 3.264 4.443 7.26 4.903 10.308a31.48 31.48 0 0 1-.198 1.375c-.044.265-.091.504-.138.746-.027.141-.054.286-.082.421a20.661 20.661 0 0 1-.264 1.118c-.046.174-.092.35-.139.512-.36 1.27-.753 2.264-1.091 3.113-.08.201-.153.378-.224.543.896-1.215 1.906-2.659 2.601-5.015.054.393.066.835.031 1.308.529-2.847-.147-12.288-6.015-17.295z"/>
</svg>
