<svg xmlns="http://www.w3.org/2000/svg" width="54" height="54">
    <path fill="#306E51" fill-rule="evenodd" d="M26.998 53.999c-14.87 0-27-12.13-27-27.001 0-14.87 12.13-27 27-27 14.871 0 27.001 12.13 27.001 27 0 14.871-12.13 27.001-27.001 27.001zm0-51.001c-13.218 0-23.999 10.782-23.999 24C2.999 40.218 13.78 51 26.998 51c13.219 0 24-10.782 24-24.002 0-13.218-10.781-24-24-24zm0 47c-12.681 0-22.999-10.318-22.999-23S14.317 3.999 26.998 3.999c12.682 0 23.001 10.317 23.001 22.999 0 12.682-10.319 23-23.001 23zm0-45.61c-12.467 0-22.61 10.144-22.61 22.61 0 12.468 10.143 22.611 22.61 22.611 12.467 0 22.613-10.143 22.613-22.611 0-12.466-10.146-22.61-22.613-22.61zm19.819 16.665c-.195-.08-.328-.22-.398-.421-.056-.156-.07-.347-.044-.578.025-.229.017-.402-.024-.517-.027-.08-.086-.133-.175-.161-.092-.027-.184-.024-.283.01l-.046-.566c.206-.073.408-.071.607.006.196.078.331.217.401.416.045.124.056.309.037.555-.02.247-.009.428.032.542.026.076.085.129.175.162.089.033.187.031.288-.006l.034.564c-.21.075-.411.073-.604-.006zm-5.151 3.069l-.356-1.012.908-.695-.553-1.569-1.141.043-.359-1.013 5.339-.07.352.992-4.19 3.324zm2.701-3.364l-1.868.06.387 1.094 1.488-1.134-.007-.02zm-4.928-1.874l1.679-1.269-1.243-1.673-1.678 1.269-.613-.826 4.043-3.052.612.824L40.5 15.47l1.243 1.674 1.739-1.312.612.824-4.043 3.051-.612-.823zm-4.471-4.485l1-1.862-1.819-1.001-1.002 1.861-.896-.494 2.41-4.478.896.494-1.036 1.925 1.82 1.001 1.035-1.925.896.492-2.409 4.479-.895-.492zM30.7 12.523l-1.414-3.76h-.022l-.603 3.382-1.001-.185.894-5.019 1.003.185 1.414 3.754.021.001.604-3.378 1.001.186-.896 5.019-1.001-.185zm-5.057-6.002l.652-.96 1.135-.049.007.021-.925.953-.869.035zm-2.046 3.766l-1.997.542.553 2.048-.984.268-1.33-4.928.984-.268.572 2.118 1.997-.54-.571-2.119.982-.269 1.33 4.929-.983.267-.553-2.048zm-3.701 1.602l.017.014c.295.455.383.904.259 1.348-.122.444-.436.826-.942 1.149-.514.326-1.033.425-1.559.293-.526-.131-.955-.461-1.286-.989l-.537-.857c-.331-.526-.447-1.055-.348-1.585.097-.532.397-.959.898-1.277.523-.333 1.013-.465 1.467-.396.458.07.829.341 1.113.812l.007.022-.838.533c-.173-.277-.37-.44-.587-.491-.219-.052-.466.01-.743.187-.257.165-.393.396-.406.696-.014.3.082.617.29.947l.542.863c.208.332.455.553.739.667.284.113.561.082.832-.09.257-.163.407-.354.449-.57.041-.216-.025-.464-.201-.746l.834-.53zm-4.448 5.503c-.059.347-.231.725-.519 1.131-.356.504-.803.804-1.344.899-.538.095-1.059-.038-1.559-.397l-.861-.62c-.498-.36-.795-.808-.89-1.345-.094-.538.031-1.051.376-1.54.358-.51.756-.814 1.184-.913.431-.099.843 0 1.233.296l.013.017-.554.789c-.22-.158-.437-.217-.648-.177-.212.041-.404.182-.577.427-.182.255-.227.533-.143.829.083.298.28.557.588.778l.866.624c.312.225.624.328.933.31.309-.02.558-.164.748-.433.141-.199.232-.371.274-.515.042-.143.054-.268.039-.375l-.799-.576-.566.802-.572-.411 1.159-1.641 1.591 1.145c.077.251.085.55.028.896zm-2.279 4.239l-3.862.957-.001.02 3.256 1.018-.297.982-4.836-1.512.299-.981 3.858-.957.002-.02-3.255-1.018.299-.982 4.836 1.51-.299.983zm-.957 4.22l-1.088.349.006 1.663 1.092.345.002 1.074-5.062-1.73-.005-1.054 5.053-1.721.002 1.074zm-1.884.598l-1.779.568v.021l1.784.57-.005-1.159zm-4.589 1.937l-.003-1.145.921-.691.003.885-.899.959-.022-.008zm6.837 2.061l-2.007.621.61 1.996 2.009-.618.301.984-4.833 1.489-.299-.984 2.077-.64-.612-1.998-2.077.641-.301-.984 4.832-1.49.3.983zm1.095 8.582l.567-1.003.568 1.003 1.118.235-.768.856.124 1.146-1.042-.473-1.043.473.125-1.146-.769-.856 1.12-.235zM26.666 6.984l.233 5.098-1.02.044-.231-5.099 1.018-.043zm.332 8.099c6.498 0 11.797 5.353 11.797 11.915 0 6.563-5.299 11.916-11.797 11.916-1.871 0-3.635-.455-5.209-1.244l.958-.625s1.857-1.052 3.175-1.192c1.314-.143 3.841.254 5.302-.543 1.461-.796 3.396-1.885 3.256-2.746-.14-.86-.676-.751-.676-.751s.022-.07.197-.284c.174-.214.691-.606.505-1.312-.186-.704-.749-.769-.749-.769.317-.625.702-.567.358-1.726-.247-.833-.956-.702-.956-.702s.822-.584.563-1.636c-.262-1.05-1.119-1.148-2.137-1.069-1.017.078-4.042.781-4.131.474-.086-.305.15-.456.361-1.14.214-.683 1.14-2.316.888-3.544-.253-1.226-.749-2.211-1.335-2.236-.585-.025-1.023.501-1.056.723-.036.22-.062.433.096 1.132.158.699-.151 1.168-.785 2.376-.636 1.207-1.111.93-1.848 1.926-.738.994-.78 1.481-.81 2.877-.027 1.394-.626 1.8-1.89 2.958-.94.861-3.415 1.937-4.623 2.433-.792-1.597-1.249-3.393-1.249-5.296 0-6.562 5.298-11.915 11.795-11.915zm-5.543 22.424c.108.059.223.107.334.163l-.018.011c-.108-.054-.211-.117-.316-.174zm-4.854-4.899c-.054-.103-.115-.201-.168-.307l.019-.007c.05.104.095.212.149.314zm3.788 4.249c-1.238-.848-2.305-1.927-3.146-3.176.841 1.247 1.91 2.327 3.146 3.176zm1.135 6.634l.536-.95.54.95 1.059.223-.727.81.117 1.088-.989-.45-.985.45.117-1.088-.728-.81 1.06-.223zm9.792.333l.538-.949.538.949 1.06.222-.729.812.118 1.087-.987-.449-.988.449.117-1.087-.726-.812 1.059-.222zm7.083-4.424l.568-1.001.568 1.001 1.119.235-.769.856.124 1.147-1.042-.473-1.042.473.125-1.147-.77-.856 1.119-.235zm3.741-9.789c.472-.281 1.004-.34 1.599-.179l1.019.278c.59.16 1.024.476 1.3.947.273.471.334.996.181 1.577-.159.605-.423 1.031-.792 1.275-.367.245-.786.297-1.256.158l-.017-.012.245-.936c.261.071.483.049.667-.062.184-.113.317-.314.392-.605.081-.303.03-.58-.154-.829-.183-.249-.456-.423-.82-.522l-1.027-.279c-.37-.1-.696-.088-.979.04-.283.126-.465.35-.551.669-.063.237-.088.429-.078.58.011.149.042.272.095.365l.945.258.251-.952.679.185-.514 1.947-1.886-.511c-.158-.21-.271-.487-.337-.832-.065-.346-.035-.761.093-1.244.158-.598.472-1.037.945-1.316zm4.721-2.417l.046 1.028-5.052.213-.047-1.027 3.316-2.209-.005-.021-3.403.144-.046-1.028 5.052-.213.046 1.026-3.312 2.21.005.021 3.4-.144z"/>
</svg>
