<svg xmlns="http://www.w3.org/2000/svg" width="54" height="54">
    <path fill="#306E51" fill-rule="evenodd" d="M53.936 28.172c-.02.464-.053.927-.095 1.386 0 .008-.002.014-.003.021-.042.449-.096.895-.16 1.338l-.014.088c-.775 5.254-3.057 10.109-6.614 14.056l-.045.047c-.274.303-.552.599-.838.887-.229.233-.467.457-.704.681-.08.074-.154.153-.235.226-.271.249-.551.484-.83.721l-.069.059c-.37.312-.747.612-1.13.902-.011.007-.022.016-.032.025-1.207.906-2.476 1.706-3.799 2.39h-.001c-.432.224-.87.436-1.315.636l-.05.024c-.428.191-.862.371-1.3.54l-.1.041c-.471.178-.947.346-1.427.499l-.005.001c-.401.129-.806.245-1.215.355l-.118.03c-.37.097-.742.184-1.117.266l-.222.047c-.338.07-.681.133-1.025.19l-.315.051c-.313.049-.629.09-.946.127-.132.016-.262.033-.394.046-.294.03-.589.052-.886.074-.151.011-.303.024-.455.031-.286.016-.574.022-.861.029-.159.003-.315.01-.475.011-.431.001-.865-.005-1.3-.024-.465-.02-.926-.053-1.385-.096C10.604 52.567-.018 40.852.042 26.882c.002-.35.003-.702.018-1.056.019-.46.052-.915.094-1.369.01-.112.027-.221.038-.333.037-.343.074-.687.122-1.026.014-.093.032-.183.047-.275.056-.36.113-.719.183-1.074.01-.052.023-.104.034-.156.08-.396.165-.789.262-1.178l.004-.011c1.059-4.255 3.136-8.172 6.098-11.46.062-.069.128-.135.192-.205.227-.247.455-.493.691-.732.306-.309.62-.613.944-.91.321-.296.649-.581.982-.858C13.836 2.827 18.742.742 23.975.167l.073-.01c.359-.038.723-.065 1.086-.09.095-.007.189-.017.285-.022.305-.018.613-.023.919-.031.152-.003.302-.012.453-.012.428-.003.858.005 1.291.023l.074.001c.177.008.351.025.526.035 13.514.852 24.153 11.573 25.187 24.816.086 1.084.115 2.182.067 3.295zM28.047 2.524c-.363-.017-.727-.024-1.088-.024-6.132 0-11.956 2.264-16.502 6.44-4.816 4.422-7.622 10.456-7.902 16.994-.578 13.496 9.916 24.955 23.394 25.541 6.535.289 12.774-1.993 17.59-6.416 4.816-4.421 7.622-10.457 7.903-16.994.579-13.495-9.916-24.954-23.395-25.541zm11.137 34.848h1.506v4.251H30.024v-4.251h1.955v-6.198l6.301-6.31c.866-.865 2.278-.867 3.145 0 .866.867.866 2.279.001 3.148l-3.715 3.718-.494-.495 3.713-3.719c.594-.594.594-1.563 0-2.157-.593-.594-1.561-.595-2.156 0l-6.096 6.105v5.908h5.808v-1.413l6.456-5.828V18.095c0-.841-.684-1.525-1.524-1.525-.841 0-1.525.684-1.525 1.525v5.259h-.698v-5.259c0-1.227.996-2.225 2.223-2.225 1.226 0 2.222.998 2.222 2.225v12.348l-6.456 5.828v1.101zm-8.462.701v2.85h9.27v-2.85h-9.27zM27.914 5.646c-.317-.014-.631-.02-.943-.02-6.645 0-12.562 3.038-16.472 7.817h-.914c4.212-5.437 10.893-8.825 18.36-8.496 6.7.291 12.571 3.575 16.41 8.496h-.917C39.722 8.922 34.2 5.92 27.914 5.646zM12.779 18.095v5.259h-.698v-5.259c0-.841-.684-1.526-1.524-1.526s-1.523.685-1.523 1.526V30.13l6.455 5.828v1.413h5.809v-5.907L15.2 25.359c-.288-.289-.671-.448-1.078-.448-.406 0-.789.158-1.076.447-.594.595-.594 1.564 0 2.158l3.712 3.718-.493.495-3.713-3.719c-.868-.868-.868-2.279-.002-3.147.421-.42.979-.651 1.572-.651.594 0 1.152.231 1.572.652l6.303 6.309v6.198h1.955v4.251H13.285v-4.251h1.506V36.27l-6.455-5.827V18.095c0-1.228.997-2.225 2.221-2.225 1.225 0 2.222.997 2.222 2.225zm1.204 19.978v2.849h9.27v-2.849h-9.27zm12.984-13.841c-4.456 0-8.08-2.081-8.08-4.651 0-.19.036-.416.075-.605.565 2.269 3.889 4.047 8.005 4.047 4.08 0 7.442-1.778 7.97-4.047.038.189.075.415.075.605 0 2.57-3.587 4.651-8.045 4.651zm0-3.705c-4.456 0-8.08-2.081-8.08-4.69 0-.876.44-1.694 1.19-2.394 1.422-1.326 3.974-2.22 6.89-2.22 2.918 0 5.455.894 6.865 2.22.744.7 1.18 1.518 1.18 2.394 0 2.609-3.587 4.69-8.045 4.69zm6.386-4.879h-1.362c-.076-.493-.3-.832-.566-1.096-.53-.454-1.399-.72-2.644-.72-.867 0-1.509.19-1.964.569-.264.226-.566.642-.868 1.247h-3.4c0-.341.265-.644.757-.795.226-.075.527-.113.905-.152v-.717c-.794 0-1.434.151-1.925.453-.492.303-.755.681-.832 1.211h-.906v.415h.943c0 .529.303.946.87 1.248.565.303 1.207.453 1.926.453.792 0 1.397-.15 1.85-.414.453-.265.793-.72.981-1.287h3.815c-.073.453-.377.756-.907.946-.301.076-.754.151-1.397.151v.718c.831 0 1.436-.075 1.927-.226.869-.302 1.359-.795 1.435-1.589h1.362v-.415zm-5.554-.68c.303-.267.718-.379 1.322-.379.377 0 .677.038.944.151.566.151.868.454.906.908h-3.699c.186-.341.338-.568.527-.68zm-2.532 1.776c-.225.226-.604.303-1.093.303-.377 0-.718-.077-1.095-.228-.342-.151-.53-.415-.568-.756h3.323c-.113.303-.301.529-.567.681zm1.7 5.635c-4.456 0-8.08-2.08-8.08-4.652 0-.189.036-.416.075-.604.565 2.268 3.889 4.007 8.005 4.007 4.08 0 7.442-1.739 7.97-4.007.038.188.075.415.075.604 0 2.572-3.587 4.652-8.045 4.652zm-.885 25.973c5.782.255 11.069-1.802 15.046-5.327h1.039c-3.947 3.752-9.272 6.048-15.142 6.048-.324 0-.646-.007-.973-.02-5.506-.24-10.454-2.501-14.174-6.028h1.046c3.532 3.121 8.098 5.106 13.158 5.327z"/>
</svg>
